G04 Filename: d:\work\layer_1 *
G04 Creator: GC-CAM (TM) 4.1.4  Fri Apr 13 18:28:33 2018 *
G04 This file contains layer(s): *
G04 Layer 2: D:\WORK\\T6-DHMI-CADCAMTOPCOPPER.TOP MRC COMPLETED *
%FSLAX35Y35*%
G04 Units: mm   *
%MOMM*%
G71*
%SFA1.00000B1.00000*%
%OFA0.00000B0.00000*%
G75*
%AD*%
G04 D10 (position 1 of UNTITLED):0.508000 Round     *
%ADD10C,0.508000*%
G04 D1008 (position 3 of UNTITLED):0.254000 Round     *
%ADD1008C,0.254000*%
G04 D1009 (position 4 of UNTITLED):0.762000 Round     *
%ADD1009C,0.762000*%
G04 D1010 (position 5 of UNTITLED):1.016000X1.778000 Rectangle *
%ADD1010R,1.016000X1.778000*%
G04 D1011 (position 6 of UNTITLED):0.060960 Round     *
%ADD1011C,0.060960*%
G04 D1012 (position 7 of UNTITLED):3.810000 Round     *
%ADD1012C,3.810000*%
G04 D1013 (position 8 of UNTITLED):2.794000X1.778000 Rectangle *
%ADD1013R,2.794000X1.778000*%
G04 D1014 (position 9 of UNTITLED):0.508000X2.540000 Rectangle *
%ADD1014R,0.508000X2.540000*%
G04 D1015 (position 10 of UNTITLED):2.032000X2.540000 Rectangle *
%ADD1015R,2.032000X2.540000*%
G04 D20 (position 11 of UNTITLED):1.270000 Round     *
%ADD20C,1.270000*%
G04 D21 (position 12 of UNTITLED):1.016000X1.270000 Rectangle *
%ADD21R,1.016000X1.270000*%
G04 D22 (position 13 of UNTITLED):1.270000X1.016000 Rectangle *
%ADD22R,1.270000X1.016000*%
G04 D23 (position 14 of UNTITLED):1.016000X0.889000 Rectangle *
%ADD23R,1.016000X0.889000*%
G04 D24 (position 15 of UNTITLED):0.889000X1.524000 Rectangle *
%ADD24R,0.889000X1.524000*%
G04 D25 (position 16 of UNTITLED):2.032000 Square    *
%ADD25R,2.032000X2.032000*%
G04 D26 (position 17 of UNTITLED):0.889000X1.016000 Rectangle *
%ADD26R,0.889000X1.016000*%
G04 D27 (position 18 of UNTITLED):2.032000 Round     *
%ADD27C,2.032000*%
%IPPOS*%
G04 Layer 2: D:\WORK\\T6-DHMI-CADCAMTOPCOPPER.TOP MRC COMPLETED *
%LN(02)D:\WORK\\T6-DHMI-CADCAMTOPCOPPER.TOP_MRC_COMPLETED*%
%LPD*%
X0Y0D02*
D10*
X-10428748Y-9678182D02*
X-10461768Y-9645162D01*
X-10619248*
D1008*
X-10428748Y-9424182D02*
X-10568956D01*
X-10825496Y-9167642*
X-10873248*
X-10428748Y-9170182D02*
X-10430272Y-9171452D01*
X-10644140*
X-10804922Y-9010670*
X-10875280*
X-10809748Y-9551182D02*
X-10891282D01*
X-10902966Y-9539244*
X-10809748Y-9551182D02*
Y-9360682D01*
X-12249928Y-9139956D02*
Y-9340108D01*
X-12270248Y-9360682*
X-12249928Y-9139956D02*
Y-8873002D01*
X-12333748Y-8789182*
X-12169918Y-9139956D02*
Y-9312930D01*
X-12122166Y-9360682*
X-12079748*
X-12169918Y-9139956D02*
Y-8815598D01*
X-12143248Y-8789182*
X-16080248Y-6757182D02*
X-16067548Y-6769882D01*
X-15962900*
Y-6800362*
X-16016748Y-6312682D02*
X-16029194Y-6300236D01*
X-16149590*
X-16080248Y-6757182D02*
X-16123174Y-6800362D01*
X-16249666*
X-15772654Y-6530360D02*
Y-6675648D01*
X-16158480*
X-16189214Y-6706382*
X-16440166*
X-16330184Y-8086110D02*
X-15962900D01*
Y-8200156*
X-16330184Y-8086110D02*
X-16347964D01*
Y-7930154*
X-16379714*
X-15772654D02*
Y-8090682D01*
X-15856220*
Y-8281182*
X-15919720Y-8344682*
X-16016748*
X-16092948Y-8268482*
Y-8180090*
X-16139684*
X-16330184Y-8274070D02*
X-16519668D01*
Y-8263402*
X-16334248Y-7138182D02*
X-16343646Y-7147834D01*
Y-7500386*
X-15953248Y-7646182D02*
X-15949692Y-7642880D01*
Y-7500386*
X-16334248Y-7138182D02*
X-16449564D01*
Y-7200412*
X-15772654Y-7230384D02*
Y-7392182D01*
X-16055864*
Y-7582682*
X-16119364Y-7646182*
X-16249666*
Y-7309886*
X-16270748Y-7900182D02*
Y-7874782D01*
X-16308848Y-7836682*
X-16379714*
Y-7621798*
X-16549640*
Y-7583698*
X-16207248Y-7011182D02*
Y-7138182D01*
X-16166608Y-7178822*
Y-7392182*
X-16155686Y-7403358*
Y-7500386*
X-16207248Y-7011182D02*
X-16208518Y-7009912D01*
X-16355584*
X-16378190Y-8620018D02*
Y-8756162D01*
X-16340090*
X-16270748Y-8598682D02*
X-16292084Y-8620018D01*
X-16378190*
X-16399526*
X-15953248Y-9043182D02*
Y-8860048D01*
X-15962900*
X-16340090Y-8944122D02*
X-16244840D01*
Y-8789182*
X-16194548Y-8738636*
Y-8429518*
X-16305546*
X-16207248Y-9424182D02*
Y-9290578D01*
X-16383524*
X-16016748Y-9741682D02*
X-15982966Y-9707900D01*
Y-9569978*
X-16207248Y-9424182D02*
X-16229092Y-9446026D01*
X-16330184*
X-15762748Y-9868682D02*
X-16016748D01*
X-16139684Y-9745492*
Y-9540006*
X-16334248Y-9805182D02*
X-16519668D01*
Y-9643384*
X-16143748Y-9106682D02*
X-16150098Y-9100078D01*
X-16289544*
X-16334248Y-9805182D02*
X-16330184Y-9801118D01*
Y-9633986*
X-11762248Y-6312682D02*
X-11889248Y-6439682D01*
X-13603748*
X-11762248D02*
X-12079748Y-6757182D01*
X-14238748*
X-14365748Y-6884182*
X-14937248Y-7519182D02*
X-15191248Y-7265182D01*
X-15381748*
X-15616698Y-7500386*
X-15736332*
X-15508748Y-6820682D02*
X-15529068Y-6800362D01*
X-15749540*
D10*
X-16543544Y-6947682D02*
Y-7009912D01*
X-16588248Y-6884182D02*
Y-6909582D01*
X-16550148Y-6947682*
X-16543544*
X-11889248Y-7074682D02*
X-11635248Y-6820682D01*
Y-6312682*
X-11762248Y-6185682*
X-16549640Y-6513596D02*
X-16340090D01*
Y-6394216*
X-16588248Y-9106682D02*
Y-9233682D01*
X-16519668Y-9302008*
Y-9430024*
X-16588248Y-8598682D02*
X-16562848Y-8573282D01*
Y-8429518*
X-16493506*
X-16549640Y-6513596D02*
Y-6693682D01*
X-16588248Y-6732290*
Y-6884182*
X-14810248Y-7011182D02*
X-14365748D01*
X-14238748Y-6884182*
X-16461248Y-6947682D02*
X-16543544D01*
X-16524748Y-7900182D02*
X-16519668Y-7905008D01*
Y-8050042*
X-16588248Y-9106682D02*
X-16581644Y-9100078D01*
X-16477504*
X-10428748Y-8662182D02*
X-10873248D01*
X-11000248Y-8535182*
X-16524748Y-7074682D02*
X-16549640D01*
Y-7370338*
X-16461248Y-7009912D02*
Y-6947682D01*
Y-7009912D02*
Y-7074682D01*
X-16524748*
Y-7900182D02*
X-16487156Y-7862844D01*
Y-7809758*
X-16473694*
Y-7739908*
X-11226562Y-9846076D02*
X-11152648Y-9772162D01*
Y-9736602*
D1008*
X-14429248Y-6503182D02*
X-14365748Y-6566682D01*
X-13286248*
X-12968748Y-9551182D02*
X-12987798Y-9569978D01*
X-15769606*
X-11571748Y-8916182D02*
X-11477260Y-9010670D01*
X-11088640*
X-14683248Y-6884182D02*
Y-6249182D01*
X-14619748Y-6185682*
X-11889248*
X-15572248Y-8662182D02*
Y-8789182D01*
X-15643114Y-8860048*
X-15749540*
D10*
X-12009898Y-9139956D02*
Y-7519182D01*
X-12136898Y-7392182*
X-13476748*
X-13667248Y-7201682*
X-14111748*
X-12009898Y-9139956D02*
Y-9185676D01*
X-11840226Y-9355348*
Y-9444756*
X-11908298Y-9512828*
Y-9522480*
X-12429506Y-9516130D02*
X-12430776Y-9515114D01*
Y-9513590*
X-12500118Y-9444248*
Y-9355856*
X-12329938Y-9185676*
Y-9139956*
X-11190748Y-7011182D02*
X-10873248D01*
X-11149854Y-9360682D02*
X-11276854Y-9233682D01*
X-11444748*
X-11149854Y-9360682D02*
X-11152648Y-9363476D01*
Y-9523242*
X-11148330Y-9527560*
X-11079242*
X-10867914Y-9739142*
X-10809748*
X-13349748Y-8090682D02*
X-13070348D01*
X-12841748Y-8319282*
Y-8408182*
X-12575048Y-8204982D02*
Y-8281182D01*
Y-8204982D02*
Y-7792232D01*
X-13286248*
Y-7937774*
X-12329938Y-9139956D02*
Y-9053850D01*
X-12484624Y-8898910*
Y-8638306*
X-12486148Y-8636782*
Y-7709682*
X-14111748*
X-13070348Y-8979428D02*
X-13084826Y-8965204D01*
X-12575048Y-8281182D02*
Y-8727206D01*
X-12897120Y-9049024*
X-13000752*
X-13070348Y-8979428*
Y-8978666D02*
Y-8979428D01*
D1008*
X-15419848Y-8200156D02*
X-15399020D01*
X-15300722*
X-15280148Y-8179582*
X-15419848Y-8200156D02*
X-15749540D01*
D10*
X-13084826Y-8965204D02*
Y-8964442D01*
X-13299710Y-8749304*
Y-8640084*
D1008*
X-11571748Y-8789182D02*
Y-8916182D01*
X-11546348Y-9144782D02*
X-11514598Y-9113032D01*
X-11508248Y-9106682*
X-11317748*
X-11256788Y-9167642*
X-11086608*
D10*
X-10428748Y-8217682D02*
Y-8651006D01*
X-10400046Y-8679962*
X-10428748Y-8662182*
D1008*
X-12714748Y-9360682D02*
X-13001514D01*
X-13097018Y-9265178*
X-13185410Y-9066042D02*
X-13018024Y-9233682D01*
X-12892548*
X-12983988Y-8864366D02*
X-12740148Y-8620780D01*
Y-8585982*
X-13720842Y-8370082D02*
X-13614670Y-8434852D01*
X-14187948Y-8979682D02*
X-14302248D01*
X-15381748Y-7392182D02*
X-15127748Y-7646182D01*
Y-8839982*
X-14988048Y-8979682*
X-14302248*
X-14187948D02*
X-14159500D01*
X-13715508Y-8535690*
X-15772654Y-8630178D02*
X-15728458Y-8585982D01*
X-15432548*
D10*
X-16577834Y-8750066D02*
Y-8608842D01*
X-16588248Y-8598682*
D1008*
X-16461248Y-8963426D02*
X-16577834D01*
X-16340090Y-8944122D02*
Y-8963426D01*
X-16461248*
X-13540248Y-9360682D02*
Y-9170182D01*
X-13559044Y-8289056D02*
X-13515610Y-8332744D01*
X-13514086Y-8334014*
X-14454648Y-7823982D02*
Y-7900182D01*
X-13997448Y-8357382*
X-13908548*
X-14619748Y-7265182D02*
Y-7569982D01*
X-14454648Y-7735082*
Y-7823982*
X-12983988Y-8864366D02*
X-13181346Y-8667008D01*
Y-8576584*
X-13203698Y-8554232*
X-13908548Y-8357382D02*
X-13870448Y-8319282D01*
X-13713476*
X-13712968Y-8319790*
X-13694934*
X-13665978Y-8290834*
X-13614416*
X-13612892Y-8289056*
X-13559044*
X-14305804Y-7848874D02*
X-14302248Y-7845318D01*
Y-7201682*
X-14365748Y-7138182*
X-14746748*
X-13718048Y-8243082D02*
X-13660898Y-8185932D01*
X-13718048Y-8243082D02*
X-13911342D01*
X-14305804Y-7848874*
X-13660898Y-8185932D02*
X-13603748D01*
X-13547868*
X-13614670Y-8434852D02*
X-13571236Y-8478286D01*
X-13462524*
X-13368544Y-8384306*
Y-8343920*
X-13526786Y-8185932*
X-13547868*
X-16340090Y-6206256D02*
Y-6211082D01*
X-16249666*
Y-6612402*
X-16340090Y-6211082D02*
Y-6300236D01*
X-16549640*
X-14556248Y-6884182D02*
X-14327648Y-6655582D01*
X-12486148*
X-12460748Y-6630182*
X-15043166Y-6071382D02*
X-15119366Y-6147582D01*
Y-6228862*
X-15318248Y-7011182D02*
X-15119366Y-6812554D01*
Y-6228862*
X-15043166Y-6071382D02*
X-11178048D01*
X-11063748Y-6185682*
X-10174748Y-6084082D02*
X-10287524Y-5971560D01*
X-11288538*
X-15141972*
X-15254748Y-6084082*
X-10174748Y-8408182D02*
Y-6084082D01*
X-15254748D02*
Y-6757182D01*
D10*
X-14810248Y-7011182D02*
Y-6909582D01*
X-14835648Y-6884182*
X-14810248*
Y-7011182D02*
X-14937248Y-7138182D01*
X-15572248*
X-15762748Y-6947682*
D1008*
X-14810248Y-7392182D02*
Y-7544582D01*
X-15038848Y-7773182*
Y-8656086*
X-14918452Y-8776482*
X-14169660*
X-14156960Y-8789182*
X-14111748*
X-13413248Y-8725682D02*
X-13375148Y-8763782D01*
Y-8875288*
X-13185410Y-9066042*
X-15772654Y-8630178D02*
X-15851648Y-8708918D01*
Y-9094236*
X-15876540Y-9119382*
X-16004048*
X-16149590Y-8973586*
Y-8850142*
X-16118348Y-8433582D02*
X-15242048D01*
X-15191248Y-8382782*
X-16330184Y-8274070D02*
X-16207248D01*
X-16143748Y-8337570*
Y-8408182*
X-16118348Y-8433582*
X-15191248Y-8382782D02*
Y-7836682D01*
X-15288022Y-7739908*
X-16285734*
D10*
X-11190748Y-7011182D02*
X-11381248Y-7201682D01*
X-12841748*
Y-6833382*
X-13667248*
Y-6884182*
D1008*
X-11190748Y-7328682D02*
X-11228848Y-7290582D01*
X-13425948*
X-13591048Y-7125482*
X-14226048*
X-14251448Y-7150882*
Y-7506482*
X-14175248Y-7582682*
X-13562600Y-7026930D02*
X-12946396D01*
X-12943348Y-7023882*
X-13552948Y-6922282D02*
X-12942332D01*
X-12940300Y-6920250*
Y-6922282*
X-12333748Y-8077982D02*
Y-8575822D01*
X-12143248D02*
X-12235704Y-8483366D01*
Y-8173740*
X-13794248Y-8370082D02*
X-13720842D01*
X-13908548Y-8484382D02*
X-13794248Y-8370082D01*
D1011*
X-13687314Y-7851922D02*
X-13647182D01*
X-13641594Y-7852684*
X-13636260Y-7854208*
X-13631688Y-7856748*
X-13627624Y-7860050*
X-13624322Y-7864114*
X-13621782Y-7868686*
X-13620258Y-7874020*
X-13619496Y-7879608*
Y-7995940*
X-13620258Y-8001528*
X-13621782Y-8006862*
X-13624322Y-8011434*
X-13627624Y-8015498*
X-13631688Y-8018800*
X-13636260Y-8021340*
X-13641594Y-8022864*
X-13647182Y-8023626*
X-13687314*
X-13692902Y-8022864*
X-13698236Y-8021340*
X-13702808Y-8018800*
X-13706872Y-8015498*
X-13710174Y-8011434*
X-13712714Y-8006862*
X-13714238Y-8001528*
X-13715000Y-7995940*
Y-7879608*
X-13714238Y-7874020*
X-13712714Y-7868686*
X-13710174Y-7864114*
X-13706872Y-7860050*
X-13702808Y-7856748*
X-13698236Y-7854208*
X-13692902Y-7852684*
X-13687314Y-7851922*
X-13715000Y-7995940D02*
Y-7879608D01*
X-13711952Y-8008132D02*
Y-7867416D01*
X-13708904Y-8012958D02*
Y-7862590D01*
X-13705856Y-8016260D02*
Y-7859288D01*
X-13702808Y-8018800D02*
Y-7856748D01*
X-13699760Y-8020324D02*
Y-7855224D01*
X-13696712Y-8021594D02*
Y-7853954D01*
X-13693664Y-8022610D02*
Y-7852938D01*
X-13690616Y-8023118D02*
Y-7852430D01*
X-13687568Y-8023372D02*
Y-7852176D01*
X-13684520Y-8023626D02*
Y-7851922D01*
X-13681472Y-8023626D02*
Y-7851922D01*
X-13678424Y-8023626D02*
Y-7851922D01*
X-13675376Y-8023626D02*
Y-7851922D01*
X-13672328Y-8023626D02*
Y-7851922D01*
X-13669280Y-8023626D02*
Y-7851922D01*
X-13666232Y-8023626D02*
Y-7851922D01*
X-13663184Y-8023626D02*
Y-7851922D01*
X-13660136Y-8023626D02*
Y-7851922D01*
X-13657088Y-8023626D02*
Y-7851922D01*
X-13654040Y-8023626D02*
Y-7851922D01*
X-13650992Y-8023626D02*
Y-7851922D01*
X-13647944Y-8023626D02*
Y-7851922D01*
X-13644896Y-8023118D02*
Y-7852430D01*
X-13641848Y-8022864D02*
Y-7852684D01*
X-13638800Y-8021848D02*
Y-7853700D01*
X-13635752Y-8020832D02*
Y-7854716D01*
X-13632704Y-8019308D02*
Y-7856240D01*
X-13629656Y-8017022D02*
Y-7858526D01*
X-13626608Y-8014228D02*
Y-7861320D01*
X-13623560Y-8009910D02*
Y-7865638D01*
X-13620512Y-8002290D02*
Y-7873258D01*
X-13619496Y-7995940D02*
Y-7879608D01*
X-13560314Y-7851922D02*
X-13520182D01*
X-13514594Y-7852684*
X-13509260Y-7854208*
X-13504688Y-7856748*
X-13500624Y-7860050*
X-13497322Y-7864114*
X-13494782Y-7868686*
X-13493258Y-7874020*
X-13492496Y-7879608*
Y-7995940*
X-13493258Y-8001528*
X-13494782Y-8006862*
X-13497322Y-8011434*
X-13500624Y-8015498*
X-13504688Y-8018800*
X-13509260Y-8021340*
X-13514594Y-8022864*
X-13520182Y-8023626*
X-13560314*
X-13565902Y-8022864*
X-13571236Y-8021340*
X-13575808Y-8018800*
X-13579872Y-8015498*
X-13583174Y-8011434*
X-13585714Y-8006862*
X-13587238Y-8001528*
X-13588000Y-7995940*
Y-7879608*
X-13587238Y-7874020*
X-13585714Y-7868686*
X-13583174Y-7864114*
X-13579872Y-7860050*
X-13575808Y-7856748*
X-13571236Y-7854208*
X-13565902Y-7852684*
X-13560314Y-7851922*
X-13588000Y-7995940D02*
Y-7879608D01*
X-13584952Y-8008132D02*
Y-7867416D01*
X-13581904Y-8012958D02*
Y-7862590D01*
X-13578856Y-8016260D02*
Y-7859288D01*
X-13575808Y-8018800D02*
Y-7856748D01*
X-13572760Y-8020324D02*
Y-7855224D01*
X-13569712Y-8021594D02*
Y-7853954D01*
X-13566664Y-8022610D02*
Y-7852938D01*
X-13563616Y-8023118D02*
Y-7852430D01*
X-13560568Y-8023372D02*
Y-7852176D01*
X-13557520Y-8023626D02*
Y-7851922D01*
X-13554472Y-8023626D02*
Y-7851922D01*
X-13551424Y-8023626D02*
Y-7851922D01*
X-13548376Y-8023626D02*
Y-7851922D01*
X-13545328Y-8023626D02*
Y-7851922D01*
X-13542280Y-8023626D02*
Y-7851922D01*
X-13539232Y-8023626D02*
Y-7851922D01*
X-13536184Y-8023626D02*
Y-7851922D01*
X-13533136Y-8023626D02*
Y-7851922D01*
X-13530088Y-8023626D02*
Y-7851922D01*
X-13527040Y-8023626D02*
Y-7851922D01*
X-13523992Y-8023626D02*
Y-7851922D01*
X-13520944Y-8023626D02*
Y-7851922D01*
X-13517896Y-8023118D02*
Y-7852430D01*
X-13514848Y-8022864D02*
Y-7852684D01*
X-13511800Y-8021848D02*
Y-7853700D01*
X-13508752Y-8020832D02*
Y-7854716D01*
X-13505704Y-8019308D02*
Y-7856240D01*
X-13502656Y-8017022D02*
Y-7858526D01*
X-13499608Y-8014228D02*
Y-7861320D01*
X-13496560Y-8009910D02*
Y-7865638D01*
X-13493512Y-8002290D02*
Y-7873258D01*
X-13492496Y-7995940D02*
Y-7879608D01*
X-13433314Y-7851922D02*
X-13393182D01*
X-13387594Y-7852684*
X-13382260Y-7854208*
X-13377688Y-7856748*
X-13373624Y-7860050*
X-13370322Y-7864114*
X-13367782Y-7868686*
X-13366258Y-7874020*
X-13365496Y-7879608*
Y-7995940*
X-13366258Y-8001528*
X-13367782Y-8006862*
X-13370322Y-8011434*
X-13373624Y-8015498*
X-13377688Y-8018800*
X-13382260Y-8021340*
X-13387594Y-8022864*
X-13393182Y-8023626*
X-13433314*
X-13438902Y-8022864*
X-13444236Y-8021340*
X-13448808Y-8018800*
X-13452872Y-8015498*
X-13456174Y-8011434*
X-13458714Y-8006862*
X-13460238Y-8001528*
X-13461000Y-7995940*
Y-7879608*
X-13460238Y-7874020*
X-13458714Y-7868686*
X-13456174Y-7864114*
X-13452872Y-7860050*
X-13448808Y-7856748*
X-13444236Y-7854208*
X-13438902Y-7852684*
X-13433314Y-7851922*
X-13461000Y-7995940D02*
Y-7879608D01*
X-13457952Y-8008132D02*
Y-7867416D01*
X-13454904Y-8012958D02*
Y-7862590D01*
X-13451856Y-8016260D02*
Y-7859288D01*
X-13448808Y-8018800D02*
Y-7856748D01*
X-13445760Y-8020324D02*
Y-7855224D01*
X-13442712Y-8021594D02*
Y-7853954D01*
X-13439664Y-8022610D02*
Y-7852938D01*
X-13436616Y-8023118D02*
Y-7852430D01*
X-13433568Y-8023372D02*
Y-7852176D01*
X-13430520Y-8023626D02*
Y-7851922D01*
X-13427472Y-8023626D02*
Y-7851922D01*
X-13424424Y-8023626D02*
Y-7851922D01*
X-13421376Y-8023626D02*
Y-7851922D01*
X-13418328Y-8023626D02*
Y-7851922D01*
X-13415280Y-8023626D02*
Y-7851922D01*
X-13412232Y-8023626D02*
Y-7851922D01*
X-13409184Y-8023626D02*
Y-7851922D01*
X-13406136Y-8023626D02*
Y-7851922D01*
X-13403088Y-8023626D02*
Y-7851922D01*
X-13400040Y-8023626D02*
Y-7851922D01*
X-13396992Y-8023626D02*
Y-7851922D01*
X-13393944Y-8023626D02*
Y-7851922D01*
X-13390896Y-8023118D02*
Y-7852430D01*
X-13387848Y-8022864D02*
Y-7852684D01*
X-13384800Y-8021848D02*
Y-7853700D01*
X-13381752Y-8020832D02*
Y-7854716D01*
X-13378704Y-8019308D02*
Y-7856240D01*
X-13375656Y-8017022D02*
Y-7858526D01*
X-13372608Y-8014228D02*
Y-7861320D01*
X-13369560Y-8009910D02*
Y-7865638D01*
X-13366512Y-8002290D02*
Y-7873258D01*
X-13365496Y-7995940D02*
Y-7879608D01*
X-13306314Y-7851922D02*
X-13266182D01*
X-13260594Y-7852684*
X-13255260Y-7854208*
X-13250688Y-7856748*
X-13246624Y-7860050*
X-13243322Y-7864114*
X-13240782Y-7868686*
X-13239258Y-7874020*
X-13238496Y-7879608*
Y-7995940*
X-13239258Y-8001528*
X-13240782Y-8006862*
X-13243322Y-8011434*
X-13246624Y-8015498*
X-13250688Y-8018800*
X-13255260Y-8021340*
X-13260594Y-8022864*
X-13266182Y-8023626*
X-13306314*
X-13311902Y-8022864*
X-13317236Y-8021340*
X-13321808Y-8018800*
X-13325872Y-8015498*
X-13329174Y-8011434*
X-13331714Y-8006862*
X-13333238Y-8001528*
X-13334000Y-7995940*
Y-7879608*
X-13333238Y-7874020*
X-13331714Y-7868686*
X-13329174Y-7864114*
X-13325872Y-7860050*
X-13321808Y-7856748*
X-13317236Y-7854208*
X-13311902Y-7852684*
X-13306314Y-7851922*
X-13334000Y-7995940D02*
Y-7879608D01*
X-13330952Y-8008132D02*
Y-7867416D01*
X-13327904Y-8012958D02*
Y-7862590D01*
X-13324856Y-8016260D02*
Y-7859288D01*
X-13321808Y-8018800D02*
Y-7856748D01*
X-13318760Y-8020324D02*
Y-7855224D01*
X-13315712Y-8021594D02*
Y-7853954D01*
X-13312664Y-8022610D02*
Y-7852938D01*
X-13309616Y-8023118D02*
Y-7852430D01*
X-13306568Y-8023372D02*
Y-7852176D01*
X-13303520Y-8023626D02*
Y-7851922D01*
X-13300472Y-8023626D02*
Y-7851922D01*
X-13297424Y-8023626D02*
Y-7851922D01*
X-13294376Y-8023626D02*
Y-7851922D01*
X-13291328Y-8023626D02*
Y-7851922D01*
X-13288280Y-8023626D02*
Y-7851922D01*
X-13285232Y-8023626D02*
Y-7851922D01*
X-13282184Y-8023626D02*
Y-7851922D01*
X-13279136Y-8023626D02*
Y-7851922D01*
X-13276088Y-8023626D02*
Y-7851922D01*
X-13273040Y-8023626D02*
Y-7851922D01*
X-13269992Y-8023626D02*
Y-7851922D01*
X-13266944Y-8023626D02*
Y-7851922D01*
X-13263896Y-8023118D02*
Y-7852430D01*
X-13260848Y-8022864D02*
Y-7852684D01*
X-13257800Y-8021848D02*
Y-7853700D01*
X-13254752Y-8020832D02*
Y-7854716D01*
X-13251704Y-8019308D02*
Y-7856240D01*
X-13248656Y-8017022D02*
Y-7858526D01*
X-13245608Y-8014228D02*
Y-7861320D01*
X-13242560Y-8009910D02*
Y-7865638D01*
X-13239512Y-8002290D02*
Y-7873258D01*
X-13238496Y-7995940D02*
Y-7879608D01*
X-13179314Y-7851922D02*
X-13139182D01*
X-13133594Y-7852684*
X-13128260Y-7854208*
X-13123688Y-7856748*
X-13119624Y-7860050*
X-13116322Y-7864114*
X-13113782Y-7868686*
X-13112258Y-7874020*
X-13111496Y-7879608*
Y-7995940*
X-13112258Y-8001528*
X-13113782Y-8006862*
X-13116322Y-8011434*
X-13119624Y-8015498*
X-13123688Y-8018800*
X-13128260Y-8021340*
X-13133594Y-8022864*
X-13139182Y-8023626*
X-13179314*
X-13184902Y-8022864*
X-13190236Y-8021340*
X-13194808Y-8018800*
X-13198872Y-8015498*
X-13202174Y-8011434*
X-13204714Y-8006862*
X-13206238Y-8001528*
X-13207000Y-7995940*
Y-7879608*
X-13206238Y-7874020*
X-13204714Y-7868686*
X-13202174Y-7864114*
X-13198872Y-7860050*
X-13194808Y-7856748*
X-13190236Y-7854208*
X-13184902Y-7852684*
X-13179314Y-7851922*
X-13207000Y-7995940D02*
Y-7879608D01*
X-13203952Y-8008132D02*
Y-7867416D01*
X-13200904Y-8012958D02*
Y-7862590D01*
X-13197856Y-8016260D02*
Y-7859288D01*
X-13194808Y-8018800D02*
Y-7856748D01*
X-13191760Y-8020324D02*
Y-7855224D01*
X-13188712Y-8021594D02*
Y-7853954D01*
X-13185664Y-8022610D02*
Y-7852938D01*
X-13182616Y-8023118D02*
Y-7852430D01*
X-13179568Y-8023372D02*
Y-7852176D01*
X-13176520Y-8023626D02*
Y-7851922D01*
X-13173472Y-8023626D02*
Y-7851922D01*
X-13170424Y-8023626D02*
Y-7851922D01*
X-13167376Y-8023626D02*
Y-7851922D01*
X-13164328Y-8023626D02*
Y-7851922D01*
X-13161280Y-8023626D02*
Y-7851922D01*
X-13158232Y-8023626D02*
Y-7851922D01*
X-13155184Y-8023626D02*
Y-7851922D01*
X-13152136Y-8023626D02*
Y-7851922D01*
X-13149088Y-8023626D02*
Y-7851922D01*
X-13146040Y-8023626D02*
Y-7851922D01*
X-13142992Y-8023626D02*
Y-7851922D01*
X-13139944Y-8023626D02*
Y-7851922D01*
X-13136896Y-8023118D02*
Y-7852430D01*
X-13133848Y-8022864D02*
Y-7852684D01*
X-13130800Y-8021848D02*
Y-7853700D01*
X-13127752Y-8020832D02*
Y-7854716D01*
X-13124704Y-8019308D02*
Y-7856240D01*
X-13121656Y-8017022D02*
Y-7858526D01*
X-13118608Y-8014228D02*
Y-7861320D01*
X-13115560Y-8009910D02*
Y-7865638D01*
X-13112512Y-8002290D02*
Y-7873258D01*
X-13111496Y-7995940D02*
Y-7879608D01*
X-13052314Y-7851922D02*
X-13012182D01*
X-13006594Y-7852684*
X-13001260Y-7854208*
X-12996688Y-7856748*
X-12992624Y-7860050*
X-12989322Y-7864114*
X-12986782Y-7868686*
X-12985258Y-7874020*
X-12984496Y-7879608*
Y-7995940*
X-12985258Y-8001528*
X-12986782Y-8006862*
X-12989322Y-8011434*
X-12992624Y-8015498*
X-12996688Y-8018800*
X-13001260Y-8021340*
X-13006594Y-8022864*
X-13012182Y-8023626*
X-13052314*
X-13057902Y-8022864*
X-13063236Y-8021340*
X-13067808Y-8018800*
X-13071872Y-8015498*
X-13075174Y-8011434*
X-13077714Y-8006862*
X-13079238Y-8001528*
X-13080000Y-7995940*
Y-7879608*
X-13079238Y-7874020*
X-13077714Y-7868686*
X-13075174Y-7864114*
X-13071872Y-7860050*
X-13067808Y-7856748*
X-13063236Y-7854208*
X-13057902Y-7852684*
X-13052314Y-7851922*
X-13080000Y-7995940D02*
Y-7879608D01*
X-13076952Y-8008132D02*
Y-7867416D01*
X-13073904Y-8012958D02*
Y-7862590D01*
X-13070856Y-8016260D02*
Y-7859288D01*
X-13067808Y-8018800D02*
Y-7856748D01*
X-13064760Y-8020324D02*
Y-7855224D01*
X-13061712Y-8021594D02*
Y-7853954D01*
X-13058664Y-8022610D02*
Y-7852938D01*
X-13055616Y-8023118D02*
Y-7852430D01*
X-13052568Y-8023372D02*
Y-7852176D01*
X-13049520Y-8023626D02*
Y-7851922D01*
X-13046472Y-8023626D02*
Y-7851922D01*
X-13043424Y-8023626D02*
Y-7851922D01*
X-13040376Y-8023626D02*
Y-7851922D01*
X-13037328Y-8023626D02*
Y-7851922D01*
X-13034280Y-8023626D02*
Y-7851922D01*
X-13031232Y-8023626D02*
Y-7851922D01*
X-13028184Y-8023626D02*
Y-7851922D01*
X-13025136Y-8023626D02*
Y-7851922D01*
X-13022088Y-8023626D02*
Y-7851922D01*
X-13019040Y-8023626D02*
Y-7851922D01*
X-13015992Y-8023626D02*
Y-7851922D01*
X-13012944Y-8023626D02*
Y-7851922D01*
X-13009896Y-8023118D02*
Y-7852430D01*
X-13006848Y-8022864D02*
Y-7852684D01*
X-13003800Y-8021848D02*
Y-7853700D01*
X-13000752Y-8020832D02*
Y-7854716D01*
X-12997704Y-8019308D02*
Y-7856240D01*
X-12994656Y-8017022D02*
Y-7858526D01*
X-12991608Y-8014228D02*
Y-7861320D01*
X-12988560Y-8009910D02*
Y-7865638D01*
X-12985512Y-8002290D02*
Y-7873258D01*
X-12984496Y-7995940D02*
Y-7879608D01*
X-12925314Y-7851922D02*
X-12885182D01*
X-12879594Y-7852684*
X-12874260Y-7854208*
X-12869688Y-7856748*
X-12865624Y-7860050*
X-12862322Y-7864114*
X-12859782Y-7868686*
X-12858258Y-7874020*
X-12857496Y-7879608*
Y-7995940*
X-12858258Y-8001528*
X-12859782Y-8006862*
X-12862322Y-8011434*
X-12865624Y-8015498*
X-12869688Y-8018800*
X-12874260Y-8021340*
X-12879594Y-8022864*
X-12885182Y-8023626*
X-12925314*
X-12930902Y-8022864*
X-12936236Y-8021340*
X-12940808Y-8018800*
X-12944872Y-8015498*
X-12948174Y-8011434*
X-12950714Y-8006862*
X-12952238Y-8001528*
X-12953000Y-7995940*
Y-7879608*
X-12952238Y-7874020*
X-12950714Y-7868686*
X-12948174Y-7864114*
X-12944872Y-7860050*
X-12940808Y-7856748*
X-12936236Y-7854208*
X-12930902Y-7852684*
X-12925314Y-7851922*
X-12953000Y-7995940D02*
Y-7879608D01*
X-12949952Y-8008132D02*
Y-7867416D01*
X-12946904Y-8012958D02*
Y-7862590D01*
X-12943856Y-8016260D02*
Y-7859288D01*
X-12940808Y-8018800D02*
Y-7856748D01*
X-12937760Y-8020324D02*
Y-7855224D01*
X-12934712Y-8021594D02*
Y-7853954D01*
X-12931664Y-8022610D02*
Y-7852938D01*
X-12928616Y-8023118D02*
Y-7852430D01*
X-12925568Y-8023372D02*
Y-7852176D01*
X-12922520Y-8023626D02*
Y-7851922D01*
X-12919472Y-8023626D02*
Y-7851922D01*
X-12916424Y-8023626D02*
Y-7851922D01*
X-12913376Y-8023626D02*
Y-7851922D01*
X-12910328Y-8023626D02*
Y-7851922D01*
X-12907280Y-8023626D02*
Y-7851922D01*
X-12904232Y-8023626D02*
Y-7851922D01*
X-12901184Y-8023626D02*
Y-7851922D01*
X-12898136Y-8023626D02*
Y-7851922D01*
X-12895088Y-8023626D02*
Y-7851922D01*
X-12892040Y-8023626D02*
Y-7851922D01*
X-12888992Y-8023626D02*
Y-7851922D01*
X-12885944Y-8023626D02*
Y-7851922D01*
X-12882896Y-8023118D02*
Y-7852430D01*
X-12879848Y-8022864D02*
Y-7852684D01*
X-12876800Y-8021848D02*
Y-7853700D01*
X-12873752Y-8020832D02*
Y-7854716D01*
X-12870704Y-8019308D02*
Y-7856240D01*
X-12867656Y-8017022D02*
Y-7858526D01*
X-12864608Y-8014228D02*
Y-7861320D01*
X-12861560Y-8009910D02*
Y-7865638D01*
X-12858512Y-8002290D02*
Y-7873258D01*
X-12857496Y-7995940D02*
Y-7879608D01*
X-10292096Y-9482348D02*
Y-9366016D01*
X-10292858Y-9360428*
X-10294382Y-9355094*
X-10296922Y-9350522*
X-10300224Y-9346458*
X-10304288Y-9343156*
X-10308860Y-9340616*
X-10314194Y-9339092*
X-10319782Y-9338330*
X-10537714*
X-10543302Y-9339092*
X-10548636Y-9340616*
X-10553208Y-9343156*
X-10557272Y-9346458*
X-10560574Y-9350522*
X-10563114Y-9355094*
X-10564638Y-9360428*
X-10565400Y-9366016*
Y-9482348*
X-10564638Y-9487936*
X-10563114Y-9493270*
X-10560574Y-9497842*
X-10557272Y-9501906*
X-10553208Y-9505208*
X-10548636Y-9507748*
X-10543302Y-9509272*
X-10537714Y-9510034*
X-10319782*
X-10314194Y-9509272*
X-10308860Y-9507748*
X-10304288Y-9505208*
X-10300224Y-9501906*
X-10296922Y-9497842*
X-10294382Y-9493270*
X-10292858Y-9487936*
X-10292096Y-9482348*
X-10537714Y-9510034D02*
X-10319782D01*
X-10550160Y-9506986D02*
X-10307590D01*
X-10554986Y-9503938D02*
X-10302764D01*
X-10558288Y-9500890D02*
X-10299462D01*
X-10560574Y-9497842D02*
X-10296922D01*
X-10562352Y-9494794D02*
X-10295398D01*
X-10563622Y-9491746D02*
X-10294128D01*
X-10564638Y-9488698D02*
X-10293112D01*
X-10565146Y-9485650D02*
X-10292604D01*
X-10565400Y-9482602D02*
X-10292350D01*
X-10565400Y-9479554D02*
X-10292096D01*
X-10565400Y-9476506D02*
X-10292096D01*
X-10565400Y-9473458D02*
X-10292096D01*
X-10565400Y-9470410D02*
X-10292096D01*
X-10565400Y-9467362D02*
X-10292096D01*
X-10565400Y-9464314D02*
X-10292096D01*
X-10565400Y-9461266D02*
X-10292096D01*
X-10565400Y-9458218D02*
X-10292096D01*
X-10565400Y-9455170D02*
X-10292096D01*
X-10565400Y-9452122D02*
X-10292096D01*
X-10565400Y-9449074D02*
X-10292096D01*
X-10565400Y-9446026D02*
X-10292096D01*
X-10565400Y-9442978D02*
X-10292096D01*
X-10565400Y-9439930D02*
X-10292096D01*
X-10565400Y-9436882D02*
X-10292096D01*
X-10565400Y-9433834D02*
X-10292096D01*
X-10565400Y-9430786D02*
X-10292096D01*
X-10565400Y-9427738D02*
X-10292096D01*
X-10565400Y-9424690D02*
X-10292096D01*
X-10565400Y-9421642D02*
X-10292096D01*
X-10565400Y-9418594D02*
X-10292096D01*
X-10565400Y-9415546D02*
X-10292096D01*
X-10565400Y-9412498D02*
X-10292096D01*
X-10565400Y-9409450D02*
X-10292096D01*
X-10565400Y-9406402D02*
X-10292096D01*
X-10565400Y-9403354D02*
X-10292096D01*
X-10565400Y-9400306D02*
X-10292096D01*
X-10565400Y-9397258D02*
X-10292096D01*
X-10565400Y-9394210D02*
X-10292096D01*
X-10565400Y-9391162D02*
X-10292096D01*
X-10565400Y-9388114D02*
X-10292096D01*
X-10565400Y-9385066D02*
X-10292096D01*
X-10565400Y-9382018D02*
X-10292096D01*
X-10565400Y-9378970D02*
X-10292096D01*
X-10565400Y-9375922D02*
X-10292096D01*
X-10565400Y-9372874D02*
X-10292096D01*
X-10565400Y-9369826D02*
X-10292096D01*
X-10565400Y-9366778D02*
X-10292096D01*
X-10565146Y-9363730D02*
X-10292604D01*
X-10564892Y-9360682D02*
X-10292858D01*
X-10563876Y-9357634D02*
X-10293874D01*
X-10562860Y-9354586D02*
X-10294890D01*
X-10561336Y-9351538D02*
X-10296414D01*
X-10559050Y-9348490D02*
X-10298700D01*
X-10556256Y-9345442D02*
X-10301494D01*
X-10551938Y-9342394D02*
X-10305812D01*
X-10544318Y-9339346D02*
X-10313432D01*
X-10537714Y-9338330D02*
X-10319782D01*
X-10292096Y-9228348D02*
Y-9112016D01*
X-10292858Y-9106428*
X-10294382Y-9101094*
X-10296922Y-9096522*
X-10300224Y-9092458*
X-10304288Y-9089156*
X-10308860Y-9086616*
X-10314194Y-9085092*
X-10319782Y-9084330*
X-10537714*
X-10543302Y-9085092*
X-10548636Y-9086616*
X-10553208Y-9089156*
X-10557272Y-9092458*
X-10560574Y-9096522*
X-10563114Y-9101094*
X-10564638Y-9106428*
X-10565400Y-9112016*
Y-9228348*
X-10564638Y-9233936*
X-10563114Y-9239270*
X-10560574Y-9243842*
X-10557272Y-9247906*
X-10553208Y-9251208*
X-10548636Y-9253748*
X-10543302Y-9255272*
X-10537714Y-9256034*
X-10319782*
X-10314194Y-9255272*
X-10308860Y-9253748*
X-10304288Y-9251208*
X-10300224Y-9247906*
X-10296922Y-9243842*
X-10294382Y-9239270*
X-10292858Y-9233936*
X-10292096Y-9228348*
X-10537714Y-9256034D02*
X-10319782D01*
X-10550160Y-9252986D02*
X-10307590D01*
X-10554986Y-9249938D02*
X-10302764D01*
X-10558288Y-9246890D02*
X-10299462D01*
X-10560574Y-9243842D02*
X-10296922D01*
X-10562352Y-9240794D02*
X-10295398D01*
X-10563622Y-9237746D02*
X-10294128D01*
X-10564638Y-9234698D02*
X-10293112D01*
X-10565146Y-9231650D02*
X-10292604D01*
X-10565400Y-9228602D02*
X-10292350D01*
X-10565400Y-9225554D02*
X-10292096D01*
X-10565400Y-9222506D02*
X-10292096D01*
X-10565400Y-9219458D02*
X-10292096D01*
X-10565400Y-9216410D02*
X-10292096D01*
X-10565400Y-9213362D02*
X-10292096D01*
X-10565400Y-9210314D02*
X-10292096D01*
X-10565400Y-9207266D02*
X-10292096D01*
X-10565400Y-9204218D02*
X-10292096D01*
X-10565400Y-9201170D02*
X-10292096D01*
X-10565400Y-9198122D02*
X-10292096D01*
X-10565400Y-9195074D02*
X-10292096D01*
X-10565400Y-9192026D02*
X-10292096D01*
X-10565400Y-9188978D02*
X-10292096D01*
X-10565400Y-9185930D02*
X-10292096D01*
X-10565400Y-9182882D02*
X-10292096D01*
X-10565400Y-9179834D02*
X-10292096D01*
X-10565400Y-9176786D02*
X-10292096D01*
X-10565400Y-9173738D02*
X-10292096D01*
X-10565400Y-9170690D02*
X-10292096D01*
X-10565400Y-9167642D02*
X-10292096D01*
X-10565400Y-9164594D02*
X-10292096D01*
X-10565400Y-9161546D02*
X-10292096D01*
X-10565400Y-9158498D02*
X-10292096D01*
X-10565400Y-9155450D02*
X-10292096D01*
X-10565400Y-9152402D02*
X-10292096D01*
X-10565400Y-9149354D02*
X-10292096D01*
X-10565400Y-9146306D02*
X-10292096D01*
X-10565400Y-9143258D02*
X-10292096D01*
X-10565400Y-9140210D02*
X-10292096D01*
X-10565400Y-9137162D02*
X-10292096D01*
X-10565400Y-9134114D02*
X-10292096D01*
X-10565400Y-9131066D02*
X-10292096D01*
X-10565400Y-9128018D02*
X-10292096D01*
X-10565400Y-9124970D02*
X-10292096D01*
X-10565400Y-9121922D02*
X-10292096D01*
X-10565400Y-9118874D02*
X-10292096D01*
X-10565400Y-9115826D02*
X-10292096D01*
X-10565400Y-9112778D02*
X-10292096D01*
X-10565146Y-9109730D02*
X-10292604D01*
X-10564892Y-9106682D02*
X-10292858D01*
X-10563876Y-9103634D02*
X-10293874D01*
X-10562860Y-9100586D02*
X-10294890D01*
X-10561336Y-9097538D02*
X-10296414D01*
X-10559050Y-9094490D02*
X-10298700D01*
X-10556256Y-9091442D02*
X-10301494D01*
X-10551938Y-9088394D02*
X-10305812D01*
X-10544318Y-9085346D02*
X-10313432D01*
X-10537714Y-9084330D02*
X-10319782D01*
X-10292096Y-8974348D02*
Y-8858016D01*
X-10292858Y-8852428*
X-10294382Y-8847094*
X-10296922Y-8842522*
X-10300224Y-8838458*
X-10304288Y-8835156*
X-10308860Y-8832616*
X-10314194Y-8831092*
X-10319782Y-8830330*
X-10537714*
X-10543302Y-8831092*
X-10548636Y-8832616*
X-10553208Y-8835156*
X-10557272Y-8838458*
X-10560574Y-8842522*
X-10563114Y-8847094*
X-10564638Y-8852428*
X-10565400Y-8858016*
Y-8974348*
X-10564638Y-8979936*
X-10563114Y-8985270*
X-10560574Y-8989842*
X-10557272Y-8993906*
X-10553208Y-8997208*
X-10548636Y-8999748*
X-10543302Y-9001272*
X-10537714Y-9002034*
X-10319782*
X-10314194Y-9001272*
X-10308860Y-8999748*
X-10304288Y-8997208*
X-10300224Y-8993906*
X-10296922Y-8989842*
X-10294382Y-8985270*
X-10292858Y-8979936*
X-10292096Y-8974348*
X-10537714Y-9002034D02*
X-10319782D01*
X-10550160Y-8998986D02*
X-10307590D01*
X-10554986Y-8995938D02*
X-10302764D01*
X-10558288Y-8992890D02*
X-10299462D01*
X-10560574Y-8989842D02*
X-10296922D01*
X-10562352Y-8986794D02*
X-10295398D01*
X-10563622Y-8983746D02*
X-10294128D01*
X-10564638Y-8980698D02*
X-10293112D01*
X-10565146Y-8977650D02*
X-10292604D01*
X-10565400Y-8974602D02*
X-10292350D01*
X-10565400Y-8971554D02*
X-10292096D01*
X-10565400Y-8968506D02*
X-10292096D01*
X-10565400Y-8965458D02*
X-10292096D01*
X-10565400Y-8962410D02*
X-10292096D01*
X-10565400Y-8959362D02*
X-10292096D01*
X-10565400Y-8956314D02*
X-10292096D01*
X-10565400Y-8953266D02*
X-10292096D01*
X-10565400Y-8950218D02*
X-10292096D01*
X-10565400Y-8947170D02*
X-10292096D01*
X-10565400Y-8944122D02*
X-10292096D01*
X-10565400Y-8941074D02*
X-10292096D01*
X-10565400Y-8938026D02*
X-10292096D01*
X-10565400Y-8934978D02*
X-10292096D01*
X-10565400Y-8931930D02*
X-10292096D01*
X-10565400Y-8928882D02*
X-10292096D01*
X-10565400Y-8925834D02*
X-10292096D01*
X-10565400Y-8922786D02*
X-10292096D01*
X-10565400Y-8919738D02*
X-10292096D01*
X-10565400Y-8916690D02*
X-10292096D01*
X-10565400Y-8913642D02*
X-10292096D01*
X-10565400Y-8910594D02*
X-10292096D01*
X-10565400Y-8907546D02*
X-10292096D01*
X-10565400Y-8904498D02*
X-10292096D01*
X-10565400Y-8901450D02*
X-10292096D01*
X-10565400Y-8898402D02*
X-10292096D01*
X-10565400Y-8895354D02*
X-10292096D01*
X-10565400Y-8892306D02*
X-10292096D01*
X-10565400Y-8889258D02*
X-10292096D01*
X-10565400Y-8886210D02*
X-10292096D01*
X-10565400Y-8883162D02*
X-10292096D01*
X-10565400Y-8880114D02*
X-10292096D01*
X-10565400Y-8877066D02*
X-10292096D01*
X-10565400Y-8874018D02*
X-10292096D01*
X-10565400Y-8870970D02*
X-10292096D01*
X-10565400Y-8867922D02*
X-10292096D01*
X-10565400Y-8864874D02*
X-10292096D01*
X-10565400Y-8861826D02*
X-10292096D01*
X-10565400Y-8858778D02*
X-10292096D01*
X-10565146Y-8855730D02*
X-10292604D01*
X-10564892Y-8852682D02*
X-10292858D01*
X-10563876Y-8849634D02*
X-10293874D01*
X-10562860Y-8846586D02*
X-10294890D01*
X-10561336Y-8843538D02*
X-10296414D01*
X-10559050Y-8840490D02*
X-10298700D01*
X-10556256Y-8837442D02*
X-10301494D01*
X-10551938Y-8834394D02*
X-10305812D01*
X-10544318Y-8831346D02*
X-10313432D01*
X-10537714Y-8830330D02*
X-10319782D01*
X-10292096Y-8720348D02*
Y-8604016D01*
X-10292858Y-8598428*
X-10294382Y-8593094*
X-10296922Y-8588522*
X-10300224Y-8584458*
X-10304288Y-8581156*
X-10308860Y-8578616*
X-10314194Y-8577092*
X-10319782Y-8576330*
X-10537714*
X-10543302Y-8577092*
X-10548636Y-8578616*
X-10553208Y-8581156*
X-10557272Y-8584458*
X-10560574Y-8588522*
X-10563114Y-8593094*
X-10564638Y-8598428*
X-10565400Y-8604016*
Y-8720348*
X-10564638Y-8725936*
X-10563114Y-8731270*
X-10560574Y-8735842*
X-10557272Y-8739906*
X-10553208Y-8743208*
X-10548636Y-8745748*
X-10543302Y-8747272*
X-10537714Y-8748034*
X-10319782*
X-10314194Y-8747272*
X-10308860Y-8745748*
X-10304288Y-8743208*
X-10300224Y-8739906*
X-10296922Y-8735842*
X-10294382Y-8731270*
X-10292858Y-8725936*
X-10292096Y-8720348*
X-10537714Y-8748034D02*
X-10319782D01*
X-10550160Y-8744986D02*
X-10307590D01*
X-10554986Y-8741938D02*
X-10302764D01*
X-10558288Y-8738890D02*
X-10299462D01*
X-10560574Y-8735842D02*
X-10296922D01*
X-10562352Y-8732794D02*
X-10295398D01*
X-10563622Y-8729746D02*
X-10294128D01*
X-10564638Y-8726698D02*
X-10293112D01*
X-10565146Y-8723650D02*
X-10292604D01*
X-10565400Y-8720602D02*
X-10292350D01*
X-10565400Y-8717554D02*
X-10292096D01*
X-10565400Y-8714506D02*
X-10292096D01*
X-10565400Y-8711458D02*
X-10292096D01*
X-10565400Y-8708410D02*
X-10292096D01*
X-10565400Y-8705362D02*
X-10292096D01*
X-10565400Y-8702314D02*
X-10292096D01*
X-10565400Y-8699266D02*
X-10292096D01*
X-10565400Y-8696218D02*
X-10292096D01*
X-10565400Y-8693170D02*
X-10292096D01*
X-10565400Y-8690122D02*
X-10292096D01*
X-10565400Y-8687074D02*
X-10292096D01*
X-10565400Y-8684026D02*
X-10292096D01*
X-10565400Y-8680978D02*
X-10292096D01*
X-10565400Y-8677930D02*
X-10292096D01*
X-10565400Y-8674882D02*
X-10292096D01*
X-10565400Y-8671834D02*
X-10292096D01*
X-10565400Y-8668786D02*
X-10292096D01*
X-10565400Y-8665738D02*
X-10292096D01*
X-10565400Y-8662690D02*
X-10292096D01*
X-10565400Y-8659642D02*
X-10292096D01*
X-10565400Y-8656594D02*
X-10292096D01*
X-10565400Y-8653546D02*
X-10292096D01*
X-10565400Y-8650498D02*
X-10292096D01*
X-10565400Y-8647450D02*
X-10292096D01*
X-10565400Y-8644402D02*
X-10292096D01*
X-10565400Y-8641354D02*
X-10292096D01*
X-10565400Y-8638306D02*
X-10292096D01*
X-10565400Y-8635258D02*
X-10292096D01*
X-10565400Y-8632210D02*
X-10292096D01*
X-10565400Y-8629162D02*
X-10292096D01*
X-10565400Y-8626114D02*
X-10292096D01*
X-10565400Y-8623066D02*
X-10292096D01*
X-10565400Y-8620018D02*
X-10292096D01*
X-10565400Y-8616970D02*
X-10292096D01*
X-10565400Y-8613922D02*
X-10292096D01*
X-10565400Y-8610874D02*
X-10292096D01*
X-10565400Y-8607826D02*
X-10292096D01*
X-10565400Y-8604778D02*
X-10292096D01*
X-10565146Y-8601730D02*
X-10292604D01*
X-10564892Y-8598682D02*
X-10292858D01*
X-10563876Y-8595634D02*
X-10293874D01*
X-10562860Y-8592586D02*
X-10294890D01*
X-10561336Y-8589538D02*
X-10296414D01*
X-10559050Y-8586490D02*
X-10298700D01*
X-10556256Y-8583442D02*
X-10301494D01*
X-10551938Y-8580394D02*
X-10305812D01*
X-10544318Y-8577346D02*
X-10313432D01*
X-10537714Y-8576330D02*
X-10319782D01*
X-13549392Y-8232414D02*
X-13412486Y-8369320D01*
X-13478780Y-8435614*
X-13615686Y-8298708*
X-13549392Y-8232414*
X-13481828Y-8432566D02*
X-13475732D01*
X-13484876Y-8429518D02*
X-13472684D01*
X-13487924Y-8426470D02*
X-13469636D01*
X-13490972Y-8423422D02*
X-13466588D01*
X-13494020Y-8420374D02*
X-13463540D01*
X-13497068Y-8417326D02*
X-13460492D01*
X-13500116Y-8414278D02*
X-13457444D01*
X-13503164Y-8411230D02*
X-13454396D01*
X-13506212Y-8408182D02*
X-13451348D01*
X-13509260Y-8405134D02*
X-13448300D01*
X-13512308Y-8402086D02*
X-13445252D01*
X-13515356Y-8399038D02*
X-13442204D01*
X-13518404Y-8395990D02*
X-13439156D01*
X-13521452Y-8392942D02*
X-13436108D01*
X-13524500Y-8389894D02*
X-13433060D01*
X-13527548Y-8386846D02*
X-13430012D01*
X-13530596Y-8383798D02*
X-13426964D01*
X-13533644Y-8380750D02*
X-13423916D01*
X-13536692Y-8377702D02*
X-13420868D01*
X-13539740Y-8374654D02*
X-13417820D01*
X-13542788Y-8371606D02*
X-13414772D01*
X-13545836Y-8368558D02*
X-13413248D01*
X-13548884Y-8365510D02*
X-13416296D01*
X-13551932Y-8362462D02*
X-13419344D01*
X-13554980Y-8359414D02*
X-13422392D01*
X-13558028Y-8356366D02*
X-13425440D01*
X-13561076Y-8353318D02*
X-13428488D01*
X-13564124Y-8350270D02*
X-13431536D01*
X-13567172Y-8347222D02*
X-13434584D01*
X-13570220Y-8344174D02*
X-13437632D01*
X-13573268Y-8341126D02*
X-13440680D01*
X-13576316Y-8338078D02*
X-13443728D01*
X-13579364Y-8335030D02*
X-13446776D01*
X-13582412Y-8331982D02*
X-13449824D01*
X-13585460Y-8328934D02*
X-13452872D01*
X-13588508Y-8325886D02*
X-13455920D01*
X-13591556Y-8322838D02*
X-13458968D01*
X-13594604Y-8319790D02*
X-13462016D01*
X-13597652Y-8316742D02*
X-13465064D01*
X-13600700Y-8313694D02*
X-13468112D01*
X-13603748Y-8310646D02*
X-13471160D01*
X-13606796Y-8307598D02*
X-13474208D01*
X-13609844Y-8304550D02*
X-13477256D01*
X-13612892Y-8301502D02*
X-13480304D01*
X-13615432Y-8298454D02*
X-13483352D01*
X-13612384Y-8295406D02*
X-13486400D01*
X-13609336Y-8292358D02*
X-13489448D01*
X-13606288Y-8289310D02*
X-13492496D01*
X-13603240Y-8286262D02*
X-13495544D01*
X-13600192Y-8283214D02*
X-13498592D01*
X-13597144Y-8280166D02*
X-13501640D01*
X-13594096Y-8277118D02*
X-13504688D01*
X-13591048Y-8274070D02*
X-13507736D01*
X-13588000Y-8271022D02*
X-13510784D01*
X-13584952Y-8267974D02*
X-13513832D01*
X-13581904Y-8264926D02*
X-13516880D01*
X-13578856Y-8261878D02*
X-13519928D01*
X-13575808Y-8258830D02*
X-13522976D01*
X-13572760Y-8255782D02*
X-13526024D01*
X-13569712Y-8252734D02*
X-13529072D01*
X-13566664Y-8249686D02*
X-13532120D01*
X-13563616Y-8246638D02*
X-13535168D01*
X-13560568Y-8243590D02*
X-13538216D01*
X-13557520Y-8240542D02*
X-13541264D01*
X-13554472Y-8237494D02*
X-13544312D01*
X-13551424Y-8234446D02*
X-13547360D01*
X-13649976Y-8333252D02*
X-13513070Y-8470158D01*
X-13579364Y-8536452*
X-13716270Y-8399546*
X-13649976Y-8333252*
X-13582412Y-8533404D02*
X-13576316D01*
X-13585460Y-8530356D02*
X-13573268D01*
X-13588508Y-8527308D02*
X-13570220D01*
X-13591556Y-8524260D02*
X-13567172D01*
X-13594604Y-8521212D02*
X-13564124D01*
X-13597652Y-8518164D02*
X-13561076D01*
X-13600700Y-8515116D02*
X-13558028D01*
X-13603748Y-8512068D02*
X-13554980D01*
X-13606796Y-8509020D02*
X-13551932D01*
X-13609844Y-8505972D02*
X-13548884D01*
X-13612892Y-8502924D02*
X-13545836D01*
X-13615940Y-8499876D02*
X-13542788D01*
X-13618988Y-8496828D02*
X-13539740D01*
X-13622036Y-8493780D02*
X-13536692D01*
X-13625084Y-8490732D02*
X-13533644D01*
X-13628132Y-8487684D02*
X-13530596D01*
X-13631180Y-8484636D02*
X-13527548D01*
X-13634228Y-8481588D02*
X-13524500D01*
X-13637276Y-8478540D02*
X-13521452D01*
X-13640324Y-8475492D02*
X-13518404D01*
X-13643372Y-8472444D02*
X-13515356D01*
X-13646420Y-8469396D02*
X-13513832D01*
X-13649468Y-8466348D02*
X-13516880D01*
X-13652516Y-8463300D02*
X-13519928D01*
X-13655564Y-8460252D02*
X-13522976D01*
X-13658612Y-8457204D02*
X-13526024D01*
X-13661660Y-8454156D02*
X-13529072D01*
X-13664708Y-8451108D02*
X-13532120D01*
X-13667756Y-8448060D02*
X-13535168D01*
X-13670804Y-8445012D02*
X-13538216D01*
X-13673852Y-8441964D02*
X-13541264D01*
X-13676900Y-8438916D02*
X-13544312D01*
X-13679948Y-8435868D02*
X-13547360D01*
X-13682996Y-8432820D02*
X-13550408D01*
X-13686044Y-8429772D02*
X-13553456D01*
X-13689092Y-8426724D02*
X-13556504D01*
X-13692140Y-8423676D02*
X-13559552D01*
X-13695188Y-8420628D02*
X-13562600D01*
X-13698236Y-8417580D02*
X-13565648D01*
X-13701284Y-8414532D02*
X-13568696D01*
X-13704332Y-8411484D02*
X-13571744D01*
X-13707380Y-8408436D02*
X-13574792D01*
X-13710428Y-8405388D02*
X-13577840D01*
X-13713476Y-8402340D02*
X-13580888D01*
X-13716016Y-8399292D02*
X-13583936D01*
X-13712968Y-8396244D02*
X-13586984D01*
X-13709920Y-8393196D02*
X-13590032D01*
X-13706872Y-8390148D02*
X-13593080D01*
X-13703824Y-8387100D02*
X-13596128D01*
X-13700776Y-8384052D02*
X-13599176D01*
X-13697728Y-8381004D02*
X-13602224D01*
X-13694680Y-8377956D02*
X-13605272D01*
X-13691632Y-8374908D02*
X-13608320D01*
X-13688584Y-8371860D02*
X-13611368D01*
X-13685536Y-8368812D02*
X-13614416D01*
X-13682488Y-8365764D02*
X-13617464D01*
X-13679440Y-8362716D02*
X-13620512D01*
X-13676392Y-8359668D02*
X-13623560D01*
X-13673344Y-8356620D02*
X-13626608D01*
X-13670296Y-8353572D02*
X-13629656D01*
X-13667248Y-8350524D02*
X-13632704D01*
X-13664200Y-8347476D02*
X-13635752D01*
X-13661152Y-8344428D02*
X-13638800D01*
X-13658104Y-8341380D02*
X-13641848D01*
X-13655056Y-8338332D02*
X-13644896D01*
X-13652008Y-8335284D02*
X-13647944D01*
X-13750814Y-8434090D02*
X-13613908Y-8570996D01*
X-13680202Y-8637290*
X-13817108Y-8500384*
X-13750814Y-8434090*
X-13683250Y-8634242D02*
X-13677154D01*
X-13686298Y-8631194D02*
X-13674106D01*
X-13689346Y-8628146D02*
X-13671058D01*
X-13692394Y-8625098D02*
X-13668010D01*
X-13695442Y-8622050D02*
X-13664962D01*
X-13698490Y-8619002D02*
X-13661914D01*
X-13701538Y-8615954D02*
X-13658866D01*
X-13704586Y-8612906D02*
X-13655818D01*
X-13707634Y-8609858D02*
X-13652770D01*
X-13710682Y-8606810D02*
X-13649722D01*
X-13713730Y-8603762D02*
X-13646674D01*
X-13716778Y-8600714D02*
X-13643626D01*
X-13719826Y-8597666D02*
X-13640578D01*
X-13722874Y-8594618D02*
X-13637530D01*
X-13725922Y-8591570D02*
X-13634482D01*
X-13728970Y-8588522D02*
X-13631434D01*
X-13732018Y-8585474D02*
X-13628386D01*
X-13735066Y-8582426D02*
X-13625338D01*
X-13738114Y-8579378D02*
X-13622290D01*
X-13741162Y-8576330D02*
X-13619242D01*
X-13744210Y-8573282D02*
X-13616194D01*
X-13747258Y-8570234D02*
X-13614670D01*
X-13750306Y-8567186D02*
X-13617718D01*
X-13753354Y-8564138D02*
X-13620766D01*
X-13756402Y-8561090D02*
X-13623814D01*
X-13759450Y-8558042D02*
X-13626862D01*
X-13762498Y-8554994D02*
X-13629910D01*
X-13765546Y-8551946D02*
X-13632958D01*
X-13768594Y-8548898D02*
X-13636006D01*
X-13771642Y-8545850D02*
X-13639054D01*
X-13774690Y-8542802D02*
X-13642102D01*
X-13777738Y-8539754D02*
X-13645150D01*
X-13780786Y-8536706D02*
X-13648198D01*
X-13783834Y-8533658D02*
X-13651246D01*
X-13786882Y-8530610D02*
X-13654294D01*
X-13789930Y-8527562D02*
X-13657342D01*
X-13792978Y-8524514D02*
X-13660390D01*
X-13796026Y-8521466D02*
X-13663438D01*
X-13799074Y-8518418D02*
X-13666486D01*
X-13802122Y-8515370D02*
X-13669534D01*
X-13805170Y-8512322D02*
X-13672582D01*
X-13808218Y-8509274D02*
X-13675630D01*
X-13811266Y-8506226D02*
X-13678678D01*
X-13814314Y-8503178D02*
X-13681726D01*
X-13816854Y-8500130D02*
X-13684774D01*
X-13813806Y-8497082D02*
X-13687822D01*
X-13810758Y-8494034D02*
X-13690870D01*
X-13807710Y-8490986D02*
X-13693918D01*
X-13804662Y-8487938D02*
X-13696966D01*
X-13801614Y-8484890D02*
X-13700014D01*
X-13798566Y-8481842D02*
X-13703062D01*
X-13795518Y-8478794D02*
X-13706110D01*
X-13792470Y-8475746D02*
X-13709158D01*
X-13789422Y-8472698D02*
X-13712206D01*
X-13786374Y-8469650D02*
X-13715254D01*
X-13783326Y-8466602D02*
X-13718302D01*
X-13780278Y-8463554D02*
X-13721350D01*
X-13777230Y-8460506D02*
X-13724398D01*
X-13774182Y-8457458D02*
X-13727446D01*
X-13771134Y-8454410D02*
X-13730494D01*
X-13768086Y-8451362D02*
X-13733542D01*
X-13765038Y-8448314D02*
X-13736590D01*
X-13761990Y-8445266D02*
X-13739638D01*
X-13758942Y-8442218D02*
X-13742686D01*
X-13755894Y-8439170D02*
X-13745734D01*
X-13752846Y-8436122D02*
X-13748782D01*
X-13019294Y-8762766D02*
X-12882388Y-8899672D01*
X-12948682Y-8965966*
X-13085588Y-8829060*
X-13019294Y-8762766*
X-12951730Y-8962918D02*
X-12945634D01*
X-12954778Y-8959870D02*
X-12942586D01*
X-12957826Y-8956822D02*
X-12939538D01*
X-12960874Y-8953774D02*
X-12936490D01*
X-12963922Y-8950726D02*
X-12933442D01*
X-12966970Y-8947678D02*
X-12930394D01*
X-12970018Y-8944630D02*
X-12927346D01*
X-12973066Y-8941582D02*
X-12924298D01*
X-12976114Y-8938534D02*
X-12921250D01*
X-12979162Y-8935486D02*
X-12918202D01*
X-12982210Y-8932438D02*
X-12915154D01*
X-12985258Y-8929390D02*
X-12912106D01*
X-12988306Y-8926342D02*
X-12909058D01*
X-12991354Y-8923294D02*
X-12906010D01*
X-12994402Y-8920246D02*
X-12902962D01*
X-12997450Y-8917198D02*
X-12899914D01*
X-13000498Y-8914150D02*
X-12896866D01*
X-13003546Y-8911102D02*
X-12893818D01*
X-13006594Y-8908054D02*
X-12890770D01*
X-13009642Y-8905006D02*
X-12887722D01*
X-13012690Y-8901958D02*
X-12884674D01*
X-13015738Y-8898910D02*
X-12883150D01*
X-13018786Y-8895862D02*
X-12886198D01*
X-13021834Y-8892814D02*
X-12889246D01*
X-13024882Y-8889766D02*
X-12892294D01*
X-13027930Y-8886718D02*
X-12895342D01*
X-13030978Y-8883670D02*
X-12898390D01*
X-13034026Y-8880622D02*
X-12901438D01*
X-13037074Y-8877574D02*
X-12904486D01*
X-13040122Y-8874526D02*
X-12907534D01*
X-13043170Y-8871478D02*
X-12910582D01*
X-13046218Y-8868430D02*
X-12913630D01*
X-13049266Y-8865382D02*
X-12916678D01*
X-13052314Y-8862334D02*
X-12919726D01*
X-13055362Y-8859286D02*
X-12922774D01*
X-13058410Y-8856238D02*
X-12925822D01*
X-13061458Y-8853190D02*
X-12928870D01*
X-13064506Y-8850142D02*
X-12931918D01*
X-13067554Y-8847094D02*
X-12934966D01*
X-13070602Y-8844046D02*
X-12938014D01*
X-13073650Y-8840998D02*
X-12941062D01*
X-13076698Y-8837950D02*
X-12944110D01*
X-13079746Y-8834902D02*
X-12947158D01*
X-13082794Y-8831854D02*
X-12950206D01*
X-13085334Y-8828806D02*
X-12953254D01*
X-13082286Y-8825758D02*
X-12956302D01*
X-13079238Y-8822710D02*
X-12959350D01*
X-13076190Y-8819662D02*
X-12962398D01*
X-13073142Y-8816614D02*
X-12965446D01*
X-13070094Y-8813566D02*
X-12968494D01*
X-13067046Y-8810518D02*
X-12971542D01*
X-13063998Y-8807470D02*
X-12974590D01*
X-13060950Y-8804422D02*
X-12977638D01*
X-13057902Y-8801374D02*
X-12980686D01*
X-13054854Y-8798326D02*
X-12983734D01*
X-13051806Y-8795278D02*
X-12986782D01*
X-13048758Y-8792230D02*
X-12989830D01*
X-13045710Y-8789182D02*
X-12992878D01*
X-13042662Y-8786134D02*
X-12995926D01*
X-13039614Y-8783086D02*
X-12998974D01*
X-13036566Y-8780038D02*
X-13002022D01*
X-13033518Y-8776990D02*
X-13005070D01*
X-13030470Y-8773942D02*
X-13008118D01*
X-13027422Y-8770894D02*
X-13011166D01*
X-13024374Y-8767846D02*
X-13014214D01*
X-13021326Y-8764798D02*
X-13017262D01*
X-13120132Y-8863604D02*
X-12983226Y-9000510D01*
X-13049520Y-9066804*
X-13186426Y-8929898*
X-13120132Y-8863604*
X-13052568Y-9063756D02*
X-13046472D01*
X-13055616Y-9060708D02*
X-13043424D01*
X-13058664Y-9057660D02*
X-13040376D01*
X-13061712Y-9054612D02*
X-13037328D01*
X-13064760Y-9051564D02*
X-13034280D01*
X-13067808Y-9048516D02*
X-13031232D01*
X-13070856Y-9045468D02*
X-13028184D01*
X-13073904Y-9042420D02*
X-13025136D01*
X-13076952Y-9039372D02*
X-13022088D01*
X-13080000Y-9036324D02*
X-13019040D01*
X-13083048Y-9033276D02*
X-13015992D01*
X-13086096Y-9030228D02*
X-13012944D01*
X-13089144Y-9027180D02*
X-13009896D01*
X-13092192Y-9024132D02*
X-13006848D01*
X-13095240Y-9021084D02*
X-13003800D01*
X-13098288Y-9018036D02*
X-13000752D01*
X-13101336Y-9014988D02*
X-12997704D01*
X-13104384Y-9011940D02*
X-12994656D01*
X-13107432Y-9008892D02*
X-12991608D01*
X-13110480Y-9005844D02*
X-12988560D01*
X-13113528Y-9002796D02*
X-12985512D01*
X-13116576Y-8999748D02*
X-12983988D01*
X-13119624Y-8996700D02*
X-12987036D01*
X-13122672Y-8993652D02*
X-12990084D01*
X-13125720Y-8990604D02*
X-12993132D01*
X-13128768Y-8987556D02*
X-12996180D01*
X-13131816Y-8984508D02*
X-12999228D01*
X-13134864Y-8981460D02*
X-13002276D01*
X-13137912Y-8978412D02*
X-13005324D01*
X-13140960Y-8975364D02*
X-13008372D01*
X-13144008Y-8972316D02*
X-13011420D01*
X-13147056Y-8969268D02*
X-13014468D01*
X-13150104Y-8966220D02*
X-13017516D01*
X-13153152Y-8963172D02*
X-13020564D01*
X-13156200Y-8960124D02*
X-13023612D01*
X-13159248Y-8957076D02*
X-13026660D01*
X-13162296Y-8954028D02*
X-13029708D01*
X-13165344Y-8950980D02*
X-13032756D01*
X-13168392Y-8947932D02*
X-13035804D01*
X-13171440Y-8944884D02*
X-13038852D01*
X-13174488Y-8941836D02*
X-13041900D01*
X-13177536Y-8938788D02*
X-13044948D01*
X-13180584Y-8935740D02*
X-13047996D01*
X-13183632Y-8932692D02*
X-13051044D01*
X-13186172Y-8929644D02*
X-13054092D01*
X-13183124Y-8926596D02*
X-13057140D01*
X-13180076Y-8923548D02*
X-13060188D01*
X-13177028Y-8920500D02*
X-13063236D01*
X-13173980Y-8917452D02*
X-13066284D01*
X-13170932Y-8914404D02*
X-13069332D01*
X-13167884Y-8911356D02*
X-13072380D01*
X-13164836Y-8908308D02*
X-13075428D01*
X-13161788Y-8905260D02*
X-13078476D01*
X-13158740Y-8902212D02*
X-13081524D01*
X-13155692Y-8899164D02*
X-13084572D01*
X-13152644Y-8896116D02*
X-13087620D01*
X-13149596Y-8893068D02*
X-13090668D01*
X-13146548Y-8890020D02*
X-13093716D01*
X-13143500Y-8886972D02*
X-13096764D01*
X-13140452Y-8883924D02*
X-13099812D01*
X-13137404Y-8880876D02*
X-13102860D01*
X-13134356Y-8877828D02*
X-13105908D01*
X-13131308Y-8874780D02*
X-13108956D01*
X-13128260Y-8871732D02*
X-13112004D01*
X-13125212Y-8868684D02*
X-13115052D01*
X-13122164Y-8865636D02*
X-13118100D01*
X-13220716Y-8964442D02*
X-13083810Y-9101348D01*
X-13150104Y-9167642*
X-13287010Y-9030736*
X-13220716Y-8964442*
X-13153152Y-9164594D02*
X-13147056D01*
X-13156200Y-9161546D02*
X-13144008D01*
X-13159248Y-9158498D02*
X-13140960D01*
X-13162296Y-9155450D02*
X-13137912D01*
X-13165344Y-9152402D02*
X-13134864D01*
X-13168392Y-9149354D02*
X-13131816D01*
X-13171440Y-9146306D02*
X-13128768D01*
X-13174488Y-9143258D02*
X-13125720D01*
X-13177536Y-9140210D02*
X-13122672D01*
X-13180584Y-9137162D02*
X-13119624D01*
X-13183632Y-9134114D02*
X-13116576D01*
X-13186680Y-9131066D02*
X-13113528D01*
X-13189728Y-9128018D02*
X-13110480D01*
X-13192776Y-9124970D02*
X-13107432D01*
X-13195824Y-9121922D02*
X-13104384D01*
X-13198872Y-9118874D02*
X-13101336D01*
X-13201920Y-9115826D02*
X-13098288D01*
X-13204968Y-9112778D02*
X-13095240D01*
X-13208016Y-9109730D02*
X-13092192D01*
X-13211064Y-9106682D02*
X-13089144D01*
X-13214112Y-9103634D02*
X-13086096D01*
X-13217160Y-9100586D02*
X-13084572D01*
X-13220208Y-9097538D02*
X-13087620D01*
X-13223256Y-9094490D02*
X-13090668D01*
X-13226304Y-9091442D02*
X-13093716D01*
X-13229352Y-9088394D02*
X-13096764D01*
X-13232400Y-9085346D02*
X-13099812D01*
X-13235448Y-9082298D02*
X-13102860D01*
X-13238496Y-9079250D02*
X-13105908D01*
X-13241544Y-9076202D02*
X-13108956D01*
X-13244592Y-9073154D02*
X-13112004D01*
X-13247640Y-9070106D02*
X-13115052D01*
X-13250688Y-9067058D02*
X-13118100D01*
X-13253736Y-9064010D02*
X-13121148D01*
X-13256784Y-9060962D02*
X-13124196D01*
X-13259832Y-9057914D02*
X-13127244D01*
X-13262880Y-9054866D02*
X-13130292D01*
X-13265928Y-9051818D02*
X-13133340D01*
X-13268976Y-9048770D02*
X-13136388D01*
X-13272024Y-9045722D02*
X-13139436D01*
X-13275072Y-9042674D02*
X-13142484D01*
X-13278120Y-9039626D02*
X-13145532D01*
X-13281168Y-9036578D02*
X-13148580D01*
X-13284216Y-9033530D02*
X-13151628D01*
X-13286756Y-9030482D02*
X-13154676D01*
X-13283708Y-9027434D02*
X-13157724D01*
X-13280660Y-9024386D02*
X-13160772D01*
X-13277612Y-9021338D02*
X-13163820D01*
X-13274564Y-9018290D02*
X-13166868D01*
X-13271516Y-9015242D02*
X-13169916D01*
X-13268468Y-9012194D02*
X-13172964D01*
X-13265420Y-9009146D02*
X-13176012D01*
X-13262372Y-9006098D02*
X-13179060D01*
X-13259324Y-9003050D02*
X-13182108D01*
X-13256276Y-9000002D02*
X-13185156D01*
X-13253228Y-8996954D02*
X-13188204D01*
X-13250180Y-8993906D02*
X-13191252D01*
X-13247132Y-8990858D02*
X-13194300D01*
X-13244084Y-8987810D02*
X-13197348D01*
X-13241036Y-8984762D02*
X-13200396D01*
X-13237988Y-8981714D02*
X-13203444D01*
X-13234940Y-8978666D02*
X-13206492D01*
X-13231892Y-8975618D02*
X-13209540D01*
X-13228844Y-8972570D02*
X-13212588D01*
X-13225796Y-8969522D02*
X-13215636D01*
X-13222748Y-8966474D02*
X-13218684D01*
X-13790692Y-9004066D02*
X-13618480Y-8831854D01*
X-13481320Y-8969014*
X-13653532Y-9141226*
X-13790692Y-9004066*
X-13656580Y-9138178D02*
X-13650484D01*
X-13659628Y-9135130D02*
X-13647436D01*
X-13662676Y-9132082D02*
X-13644388D01*
X-13665724Y-9129034D02*
X-13641340D01*
X-13668772Y-9125986D02*
X-13638292D01*
X-13671820Y-9122938D02*
X-13635244D01*
X-13674868Y-9119890D02*
X-13632196D01*
X-13677916Y-9116842D02*
X-13629148D01*
X-13680964Y-9113794D02*
X-13626100D01*
X-13684012Y-9110746D02*
X-13623052D01*
X-13687060Y-9107698D02*
X-13620004D01*
X-13690108Y-9104650D02*
X-13616956D01*
X-13693156Y-9101602D02*
X-13613908D01*
X-13696204Y-9098554D02*
X-13610860D01*
X-13699252Y-9095506D02*
X-13607812D01*
X-13702300Y-9092458D02*
X-13604764D01*
X-13705348Y-9089410D02*
X-13601716D01*
X-13708396Y-9086362D02*
X-13598668D01*
X-13711444Y-9083314D02*
X-13595620D01*
X-13714492Y-9080266D02*
X-13592572D01*
X-13717540Y-9077218D02*
X-13589524D01*
X-13720588Y-9074170D02*
X-13586476D01*
X-13723636Y-9071122D02*
X-13583428D01*
X-13726684Y-9068074D02*
X-13580380D01*
X-13729732Y-9065026D02*
X-13577332D01*
X-13732780Y-9061978D02*
X-13574284D01*
X-13735828Y-9058930D02*
X-13571236D01*
X-13738876Y-9055882D02*
X-13568188D01*
X-13741924Y-9052834D02*
X-13565140D01*
X-13744972Y-9049786D02*
X-13562092D01*
X-13748020Y-9046738D02*
X-13559044D01*
X-13751068Y-9043690D02*
X-13555996D01*
X-13754116Y-9040642D02*
X-13552948D01*
X-13757164Y-9037594D02*
X-13549900D01*
X-13760212Y-9034546D02*
X-13546852D01*
X-13763260Y-9031498D02*
X-13543804D01*
X-13766308Y-9028450D02*
X-13540756D01*
X-13769356Y-9025402D02*
X-13537708D01*
X-13772404Y-9022354D02*
X-13534660D01*
X-13775452Y-9019306D02*
X-13531612D01*
X-13778500Y-9016258D02*
X-13528564D01*
X-13781548Y-9013210D02*
X-13525516D01*
X-13784596Y-9010162D02*
X-13522468D01*
X-13787644Y-9007114D02*
X-13519420D01*
X-13790692Y-9004066D02*
X-13516372D01*
X-13787644Y-9001018D02*
X-13513324D01*
X-13784596Y-8997970D02*
X-13510276D01*
X-13781548Y-8994922D02*
X-13507228D01*
X-13778500Y-8991874D02*
X-13504180D01*
X-13775452Y-8988826D02*
X-13501132D01*
X-13772404Y-8985778D02*
X-13498084D01*
X-13769356Y-8982730D02*
X-13495036D01*
X-13766308Y-8979682D02*
X-13491988D01*
X-13763260Y-8976634D02*
X-13488940D01*
X-13760212Y-8973586D02*
X-13485892D01*
X-13757164Y-8970538D02*
X-13482844D01*
X-13754116Y-8967490D02*
X-13482844D01*
X-13751068Y-8964442D02*
X-13485892D01*
X-13748020Y-8961394D02*
X-13488940D01*
X-13744972Y-8958346D02*
X-13491988D01*
X-13741924Y-8955298D02*
X-13495036D01*
X-13738876Y-8952250D02*
X-13498084D01*
X-13735828Y-8949202D02*
X-13501132D01*
X-13732780Y-8946154D02*
X-13504180D01*
X-13729732Y-8943106D02*
X-13507228D01*
X-13726684Y-8940058D02*
X-13510276D01*
X-13723636Y-8937010D02*
X-13513324D01*
X-13720588Y-8933962D02*
X-13516372D01*
X-13717540Y-8930914D02*
X-13519420D01*
X-13714492Y-8927866D02*
X-13522468D01*
X-13711444Y-8924818D02*
X-13525516D01*
X-13708396Y-8921770D02*
X-13528564D01*
X-13705348Y-8918722D02*
X-13531612D01*
X-13702300Y-8915674D02*
X-13534660D01*
X-13699252Y-8912626D02*
X-13537708D01*
X-13696204Y-8909578D02*
X-13540756D01*
X-13693156Y-8906530D02*
X-13543804D01*
X-13690108Y-8903482D02*
X-13546852D01*
X-13687060Y-8900434D02*
X-13549900D01*
X-13684012Y-8897386D02*
X-13552948D01*
X-13680964Y-8894338D02*
X-13555996D01*
X-13677916Y-8891290D02*
X-13559044D01*
X-13674868Y-8888242D02*
X-13562092D01*
X-13671820Y-8885194D02*
X-13565140D01*
X-13668772Y-8882146D02*
X-13568188D01*
X-13665724Y-8879098D02*
X-13571236D01*
X-13662676Y-8876050D02*
X-13574284D01*
X-13659628Y-8873002D02*
X-13577332D01*
X-13656580Y-8869954D02*
X-13580380D01*
X-13653532Y-8866906D02*
X-13583428D01*
X-13650484Y-8863858D02*
X-13586476D01*
X-13647436Y-8860810D02*
X-13589524D01*
X-13644388Y-8857762D02*
X-13592572D01*
X-13641340Y-8854714D02*
X-13595620D01*
X-13638292Y-8851666D02*
X-13598668D01*
X-13635244Y-8848618D02*
X-13601716D01*
X-13632196Y-8845570D02*
X-13604764D01*
X-13629148Y-8842522D02*
X-13607812D01*
X-13626100Y-8839474D02*
X-13610860D01*
X-13623052Y-8836426D02*
X-13613908D01*
X-13620004Y-8833378D02*
X-13616956D01*
X-13218176Y-8431296D02*
X-13045964Y-8259084D01*
X-12908804Y-8396244*
X-13081016Y-8568456*
X-13218176Y-8431296*
X-13084064Y-8565408D02*
X-13077968D01*
X-13087112Y-8562360D02*
X-13074920D01*
X-13090160Y-8559312D02*
X-13071872D01*
X-13093208Y-8556264D02*
X-13068824D01*
X-13096256Y-8553216D02*
X-13065776D01*
X-13099304Y-8550168D02*
X-13062728D01*
X-13102352Y-8547120D02*
X-13059680D01*
X-13105400Y-8544072D02*
X-13056632D01*
X-13108448Y-8541024D02*
X-13053584D01*
X-13111496Y-8537976D02*
X-13050536D01*
X-13114544Y-8534928D02*
X-13047488D01*
X-13117592Y-8531880D02*
X-13044440D01*
X-13120640Y-8528832D02*
X-13041392D01*
X-13123688Y-8525784D02*
X-13038344D01*
X-13126736Y-8522736D02*
X-13035296D01*
X-13129784Y-8519688D02*
X-13032248D01*
X-13132832Y-8516640D02*
X-13029200D01*
X-13135880Y-8513592D02*
X-13026152D01*
X-13138928Y-8510544D02*
X-13023104D01*
X-13141976Y-8507496D02*
X-13020056D01*
X-13145024Y-8504448D02*
X-13017008D01*
X-13148072Y-8501400D02*
X-13013960D01*
X-13151120Y-8498352D02*
X-13010912D01*
X-13154168Y-8495304D02*
X-13007864D01*
X-13157216Y-8492256D02*
X-13004816D01*
X-13160264Y-8489208D02*
X-13001768D01*
X-13163312Y-8486160D02*
X-12998720D01*
X-13166360Y-8483112D02*
X-12995672D01*
X-13169408Y-8480064D02*
X-12992624D01*
X-13172456Y-8477016D02*
X-12989576D01*
X-13175504Y-8473968D02*
X-12986528D01*
X-13178552Y-8470920D02*
X-12983480D01*
X-13181600Y-8467872D02*
X-12980432D01*
X-13184648Y-8464824D02*
X-12977384D01*
X-13187696Y-8461776D02*
X-12974336D01*
X-13190744Y-8458728D02*
X-12971288D01*
X-13193792Y-8455680D02*
X-12968240D01*
X-13196840Y-8452632D02*
X-12965192D01*
X-13199888Y-8449584D02*
X-12962144D01*
X-13202936Y-8446536D02*
X-12959096D01*
X-13205984Y-8443488D02*
X-12956048D01*
X-13209032Y-8440440D02*
X-12953000D01*
X-13212080Y-8437392D02*
X-12949952D01*
X-13215128Y-8434344D02*
X-12946904D01*
X-13218176Y-8431296D02*
X-12943856D01*
X-13215128Y-8428248D02*
X-12940808D01*
X-13212080Y-8425200D02*
X-12937760D01*
X-13209032Y-8422152D02*
X-12934712D01*
X-13205984Y-8419104D02*
X-12931664D01*
X-13202936Y-8416056D02*
X-12928616D01*
X-13199888Y-8413008D02*
X-12925568D01*
X-13196840Y-8409960D02*
X-12922520D01*
X-13193792Y-8406912D02*
X-12919472D01*
X-13190744Y-8403864D02*
X-12916424D01*
X-13187696Y-8400816D02*
X-12913376D01*
X-13184648Y-8397768D02*
X-12910328D01*
X-13181600Y-8394720D02*
X-12910328D01*
X-13178552Y-8391672D02*
X-12913376D01*
X-13175504Y-8388624D02*
X-12916424D01*
X-13172456Y-8385576D02*
X-12919472D01*
X-13169408Y-8382528D02*
X-12922520D01*
X-13166360Y-8379480D02*
X-12925568D01*
X-13163312Y-8376432D02*
X-12928616D01*
X-13160264Y-8373384D02*
X-12931664D01*
X-13157216Y-8370336D02*
X-12934712D01*
X-13154168Y-8367288D02*
X-12937760D01*
X-13151120Y-8364240D02*
X-12940808D01*
X-13148072Y-8361192D02*
X-12943856D01*
X-13145024Y-8358144D02*
X-12946904D01*
X-13141976Y-8355096D02*
X-12949952D01*
X-13138928Y-8352048D02*
X-12953000D01*
X-13135880Y-8349000D02*
X-12956048D01*
X-13132832Y-8345952D02*
X-12959096D01*
X-13129784Y-8342904D02*
X-12962144D01*
X-13126736Y-8339856D02*
X-12965192D01*
X-13123688Y-8336808D02*
X-12968240D01*
X-13120640Y-8333760D02*
X-12971288D01*
X-13117592Y-8330712D02*
X-12974336D01*
X-13114544Y-8327664D02*
X-12977384D01*
X-13111496Y-8324616D02*
X-12980432D01*
X-13108448Y-8321568D02*
X-12983480D01*
X-13105400Y-8318520D02*
X-12986528D01*
X-13102352Y-8315472D02*
X-12989576D01*
X-13099304Y-8312424D02*
X-12992624D01*
X-13096256Y-8309376D02*
X-12995672D01*
X-13093208Y-8306328D02*
X-12998720D01*
X-13090160Y-8303280D02*
X-13001768D01*
X-13087112Y-8300232D02*
X-13004816D01*
X-13084064Y-8297184D02*
X-13007864D01*
X-13081016Y-8294136D02*
X-13010912D01*
X-13077968Y-8291088D02*
X-13013960D01*
X-13074920Y-8288040D02*
X-13017008D01*
X-13071872Y-8284992D02*
X-13020056D01*
X-13068824Y-8281944D02*
X-13023104D01*
X-13065776Y-8278896D02*
X-13026152D01*
X-13062728Y-8275848D02*
X-13029200D01*
X-13059680Y-8272800D02*
X-13032248D01*
X-13056632Y-8269752D02*
X-13035296D01*
X-13053584Y-8266704D02*
X-13038344D01*
X-13050536Y-8263656D02*
X-13041392D01*
X-13047488Y-8260608D02*
X-13044440D01*
D1008*
X-16249666Y-6800362D03*
Y-6612402D03*
X-16330184Y-8086110D03*
X-16285734Y-7739908D03*
X-16355584Y-7009912D03*
X-16340090Y-8756162D03*
X-16305546Y-8429518D03*
X-16330184Y-9446026D03*
X-16289544Y-9100078D03*
X-16340090Y-6206256D03*
D1009*
X-10902966Y-9539244D03*
X-12270248Y-9360682D03*
X-12079748D03*
X-16016748Y-6312682D03*
X-16080248Y-6757182D03*
X-15953248Y-7646182D03*
X-16334248Y-7138182D03*
X-16270748Y-7900182D03*
X-16207248Y-7011182D03*
X-15953248Y-9043182D03*
X-16270748Y-8598682D03*
X-16016748Y-9741682D03*
X-16207248Y-9424182D03*
X-15762748Y-9868682D03*
X-16143748Y-9106682D03*
X-16334248Y-9805182D03*
X-13603748Y-6439682D03*
X-11762248Y-6312682D03*
X-14365748Y-6884182D03*
X-11762248Y-6439682D03*
X-14937248Y-7519182D03*
X-15508748Y-6820682D03*
X-11762248Y-6185682D03*
X-14238748Y-6884182D03*
X-11000248Y-8535182D03*
X-11889248Y-7074682D03*
X-16588248Y-9106682D03*
X-16524748Y-7900182D03*
X-16588248Y-6884182D03*
X-11226562Y-9846076D03*
X-13286248Y-6566682D03*
X-14429248Y-6503182D03*
X-12968748Y-9551182D03*
X-11889248Y-6185682D03*
X-14683248Y-6884182D03*
X-15572248Y-8662182D03*
X-14111748Y-7201682D03*
X-13476748Y-7392182D03*
X-11908298Y-9522480D03*
X-12429506Y-9516130D03*
X-10873248Y-7011182D03*
X-11190748D03*
X-11444748Y-9233682D03*
X-13349748Y-8090682D03*
X-12841748Y-8408182D03*
X-14111748Y-7709682D03*
X-12575048Y-8281182D03*
X-15280148Y-8179582D03*
X-15381748Y-7392182D03*
X-13299710Y-8640084D03*
X-12714748Y-9360682D03*
X-13097018Y-9265178D03*
X-11571748Y-8916182D03*
X-16588248Y-8598682D03*
X-13540248Y-9360682D03*
Y-9170182D03*
X-14619748Y-7265182D03*
X-13203698Y-8554232D03*
X-14746748Y-7138182D03*
X-14556248Y-6884182D03*
X-12460748Y-6630182D03*
X-15318248Y-7011182D03*
X-11063748Y-6185682D03*
X-10174748Y-8408182D03*
X-15254748Y-6757182D03*
X-14810248Y-6884182D03*
X-15762748Y-6947682D03*
X-14810248Y-7392182D03*
X-14111748Y-8789182D03*
X-13413248Y-8725682D03*
X-12841748Y-7201682D03*
X-13667248Y-6884182D03*
X-11190748Y-7328682D03*
X-14175248Y-7582682D03*
X-13562600Y-7026930D03*
X-12943348Y-7023882D03*
X-13552948Y-6922282D03*
X-12940300D03*
X-12333748Y-8077982D03*
X-12235704Y-8173740D03*
D1010*
X-13794248Y-7937774D03*
D1012*
X-10604770Y-7513086D03*
Y-6513088D03*
D1013*
X-10428748Y-9678182D03*
D1014*
X-12329938Y-9139956D03*
X-12249928D03*
X-12169918D03*
X-12089908D03*
X-12009898D03*
D1015*
X-11729990Y-9135130D03*
X-12609846Y-9139956D03*
Y-9690120D03*
X-11729990D03*
D20*
X-14615684Y-8281182D03*
X-14365748D03*
D21*
X-10873248Y-9167642D03*
X-11086608D03*
X-10875280Y-9010670D03*
X-11088640D03*
D22*
X-12333748Y-8789182D03*
Y-8575822D03*
X-12143248Y-8789182D03*
Y-8575822D03*
D23*
X-10619248Y-9645162D03*
X-10809748Y-9551182D03*
Y-9739142D03*
D24*
Y-9360682D03*
X-11149854D03*
D22*
X-11152648Y-9736602D03*
Y-9523242D03*
D25*
X-16026654Y-6530360D03*
X-15772654D03*
X-16026654Y-7230384D03*
X-15772654D03*
X-16026654Y-7930154D03*
X-15772654D03*
X-16026654Y-8630178D03*
X-15772654D03*
X-16026654Y-9329948D03*
X-15772654D03*
D21*
X-15749540Y-6800362D03*
X-15962900D03*
D23*
X-16149590Y-6300236D03*
X-16340090Y-6206256D03*
Y-6394216D03*
X-16440166Y-6706382D03*
X-16249666Y-6800362D03*
Y-6612402D03*
D22*
X-16549640Y-6300236D03*
Y-6513596D03*
D21*
X-15736332Y-7500386D03*
X-15949692D03*
D26*
X-16449564Y-7200412D03*
X-16355584Y-7009912D03*
X-16543544D03*
X-16249666Y-7309886D03*
X-16343646Y-7500386D03*
X-16155686D03*
D22*
X-16549640Y-7583698D03*
Y-7370338D03*
D21*
X-15749540Y-8200156D03*
X-15962900D03*
D26*
X-16379714Y-7930154D03*
X-16285734Y-7739908D03*
X-16473694D03*
D23*
X-16139684Y-8180090D03*
X-16330184Y-8086110D03*
Y-8274070D03*
D22*
X-16519668Y-8263402D03*
Y-8050042D03*
D21*
X-15749540Y-8860048D03*
X-15962900D03*
D26*
X-16399526Y-8620018D03*
X-16305546Y-8429518D03*
X-16493506D03*
D23*
X-16149590Y-8850142D03*
X-16340090Y-8756162D03*
Y-8944122D03*
D22*
X-16577834Y-8963426D03*
Y-8750066D03*
D21*
X-15769606Y-9569978D03*
X-15982966D03*
D26*
X-16383524Y-9290578D03*
X-16289544Y-9100078D03*
X-16477504D03*
D23*
X-16139684Y-9540006D03*
X-16330184Y-9446026D03*
Y-9633986D03*
D22*
X-16519668Y-9643384D03*
Y-9430024D03*
D1011*
X-13478780Y-8435614D03*
X-13549392Y-8232414D03*
X-13579364Y-8536452D03*
X-13649976Y-8333252D03*
X-13680202Y-8637290D03*
X-13750814Y-8434090D03*
X-12948682Y-8965966D03*
X-13019294Y-8762766D03*
X-13049520Y-9066804D03*
X-13120132Y-8863604D03*
X-13150104Y-9167642D03*
X-13220716Y-8964442D03*
X-13653532Y-9141226D03*
X-13618480Y-8831854D03*
X-13081016Y-8568456D03*
X-13045964Y-8259084D03*
D1009*
X-14175248Y-8535182D03*
X-11571748Y-8789182D03*
X-11546348Y-9144782D03*
X-10390648Y-6312682D03*
X-10327148Y-7150882D03*
D27*
X-10428748Y-8217682D03*
D1009*
X-10301748Y-6439682D03*
X-13908548Y-8484382D03*
X-14187948Y-8979682D03*
X-13908548Y-8357382D03*
X-12892548Y-9233682D03*
X-12740148Y-8585982D03*
X-10301748Y-8408182D03*
X-11216148Y-8598682D03*
X-15432548Y-8585982D03*
X-16461248Y-8963426D03*
X-16029448Y-8979682D03*
X-13819648Y-8166882D03*
X-13184648Y-8179582D03*
X-13921248Y-8116082D03*
M02*
