G04 Filename: d:\work\mask_2 *
G04 Creator: GC-CAM (TM) 4.1.4  Fri Apr 13 18:28:33 2018 *
G04 This file contains layer(s): *
G04 Layer 5: D:\WORK\\T6-DHMI-CADCAMBOTTOMSOLDERRESIST.STOPBOT *
%FSLAX35Y35*%
G04 Units: mm   *
%MOMM*%
G71*
%SFA1.00000B1.00000*%
%OFA0.00000B0.00000*%
G75*
%AD*%
G04 D901 (position 2 of UNTITLED):0.100000 Round     *
%ADD901C,0.100000*%
G04 D36 (position 27 of UNTITLED):0.919988 Round     *
%ADD36C,0.919988*%
G04 D37 (position 28 of UNTITLED):1.173988X1.935988 Rectangle *
%ADD37R,1.173988X1.935988*%
G04 D38 (position 29 of UNTITLED):3.967988 Round     *
%ADD38C,3.967988*%
G04 D39 (position 30 of UNTITLED):2.951988X1.935988 Rectangle *
%ADD39R,2.951988X1.935988*%
G04 D42 (position 33 of UNTITLED):1.427988 Round     *
%ADD42C,1.427988*%
G04 D43 (position 34 of UNTITLED):1.173988X1.427988 Rectangle *
%ADD43R,1.173988X1.427988*%
G04 D44 (position 35 of UNTITLED):1.427988X1.173988 Rectangle *
%ADD44R,1.427988X1.173988*%
G04 D45 (position 36 of UNTITLED):1.173988X1.046988 Rectangle *
%ADD45R,1.173988X1.046988*%
G04 D47 (position 38 of UNTITLED):2.189988 Square    *
%ADD47R,2.189988X2.189988*%
G04 D49 (position 40 of UNTITLED):2.189988 Round     *
%ADD49C,2.189988*%
G04 D50 (position 41 of UNTITLED):0.010000 Ext. Poly *
%ADD50C,0.010000*%
G04 D51 (position 42 of UNTITLED):1.966011X0.696011 Rectangle *
%ADD51R,1.966011X0.696011*%
G04 D52 (position 43 of UNTITLED):0.696011X1.966011 Rectangle *
%ADD52R,0.696011X1.966011*%
G04 D53 (position 44 of UNTITLED):2.697988X1.427988 Rectangle *
%ADD53R,2.697988X1.427988*%
G04 D54 (position 45 of UNTITLED):0.665988X1.173988 Rectangle *
%ADD54R,0.665988X1.173988*%
G04 D55 (position 46 of UNTITLED):1.681988X1.046988 Rectangle *
%ADD55R,1.681988X1.046988*%
G04 D56 (position 47 of UNTITLED):1.681988X1.173988 Rectangle *
%ADD56R,1.681988X1.173988*%
G04 D57 (position 48 of UNTITLED):2.697988X2.189988 Rectangle *
%ADD57R,2.697988X2.189988*%
%IPPOS*%
G04 Layer 5: D:\WORK\\T6-DHMI-CADCAMBOTTOMSOLDERRESIST.STOPBOT *
%LN(05)D:\WORK\\T6-DHMI-CADCAMBOTTOMSOLDERRESIST.STOPBOT*%
%LPD*%
X0Y0D02*
D50*
X-13723049Y-7996473D02*
G36*
Y-7879075D01*
G02X-13687847Y-7843873I35200J2*
G01X-13646649*
G02X-13611447Y-7879075I2J-35200*
G01Y-7996473*
G02X-13646649Y-8031675I-35200J-2*
G01X-13687847*
G02X-13723049Y-7996473I-2J35200*
G37*
G01X-13596049D02*
G36*
Y-7879075D01*
G02X-13560847Y-7843873I35200J2*
G01X-13519649*
G02X-13484447Y-7879075I2J-35200*
G01Y-7996473*
G02X-13519649Y-8031675I-35200J-2*
G01X-13560847*
G02X-13596049Y-7996473I-2J35200*
G37*
G01X-13469049D02*
G36*
Y-7879075D01*
G02X-13433847Y-7843873I35200J2*
G01X-13392649*
G02X-13357447Y-7879075I2J-35200*
G01Y-7996473*
G02X-13392649Y-8031675I-35200J-2*
G01X-13433847*
G02X-13469049Y-7996473I-2J35200*
G37*
G01X-13342049D02*
G36*
Y-7879075D01*
G02X-13306847Y-7843873I35200J2*
G01X-13265649*
G02X-13230447Y-7879075I2J-35200*
G01Y-7996473*
G02X-13265649Y-8031675I-35200J-2*
G01X-13306847*
G02X-13342049Y-7996473I-2J35200*
G37*
G01X-13215049D02*
G36*
Y-7879075D01*
G02X-13179847Y-7843873I35200J2*
G01X-13138649*
G02X-13103447Y-7879075I2J-35200*
G01Y-7996473*
G02X-13138649Y-8031675I-35200J-2*
G01X-13179847*
G02X-13215049Y-7996473I-2J35200*
G37*
G01X-13088049D02*
G36*
Y-7879075D01*
G02X-13052847Y-7843873I35200J2*
G01X-13011649*
G02X-12976447Y-7879075I2J-35200*
G01Y-7996473*
G02X-13011649Y-8031675I-35200J-2*
G01X-13052847*
G02X-13088049Y-7996473I-2J35200*
G37*
G01X-12961049D02*
G36*
Y-7879075D01*
G02X-12925847Y-7843873I35200J2*
G01X-12884649*
G02X-12849447Y-7879075I2J-35200*
G01Y-7996473*
G02X-12884649Y-8031675I-35200J-2*
G01X-12925847*
G02X-12961049Y-7996473I-2J35200*
G37*
G01X-10573444Y-9482478D02*
G36*
Y-9365876D01*
G02X-10537844Y-9330278I35599J-2*
G01X-10319642*
G02X-10284044Y-9365876I-2J-35600*
G01Y-9482478*
G02X-10319642Y-9518078I-35601J0*
G01X-10537844*
G02X-10573444Y-9482478I0J35600*
G37*
G01Y-9228478D02*
G36*
Y-9111876D01*
G02X-10537844Y-9076278I35599J-2*
G01X-10319642*
G02X-10284044Y-9111876I-2J-35600*
G01Y-9228478*
G02X-10319642Y-9264078I-35601J0*
G01X-10537844*
G02X-10573444Y-9228478I0J35600*
G37*
G01Y-8974478D02*
G36*
Y-8857876D01*
G02X-10537844Y-8822278I35599J-2*
G01X-10319642*
G02X-10284044Y-8857876I-2J-35600*
G01Y-8974478*
G02X-10319642Y-9010078I-35601J0*
G01X-10537844*
G02X-10573444Y-8974478I0J35600*
G37*
G01Y-8720478D02*
G36*
Y-8603876D01*
G02X-10537844Y-8568278I35599J-2*
G01X-10319642*
G02X-10284044Y-8603876I-2J-35600*
G01Y-8720478*
G02X-10319642Y-8756078I-35601J0*
G01X-10537844*
G02X-10573444Y-8720478I0J35600*
G37*
D901*
G01X-16699500Y-10000000D02*
X-9999996D01*
Y-5800364*
X-16699500*
Y-10000000*
D36*
X-10902966Y-9539244D03*
X-12270248Y-9360682D03*
X-12079748D03*
X-16016748Y-6312682D03*
X-16080248Y-6757182D03*
X-15953248Y-7646182D03*
X-16334248Y-7138182D03*
X-16270748Y-7900182D03*
X-16207248Y-7011182D03*
X-15953248Y-9043182D03*
X-16270748Y-8598682D03*
X-16016748Y-9741682D03*
X-16207248Y-9424182D03*
X-15762748Y-9868682D03*
X-16143748Y-9106682D03*
X-16334248Y-9805182D03*
X-13603748Y-6439682D03*
X-11762248Y-6312682D03*
X-14365748Y-6884182D03*
X-11762248Y-6439682D03*
X-14937248Y-7519182D03*
X-15508748Y-6820682D03*
X-11762248Y-6185682D03*
X-14238748Y-6884182D03*
X-11000248Y-8535182D03*
X-11889248Y-7074682D03*
X-16588248Y-9106682D03*
X-16524748Y-7900182D03*
X-16588248Y-6884182D03*
X-11226562Y-9846076D03*
X-13286248Y-6566682D03*
X-14429248Y-6503182D03*
X-12968748Y-9551182D03*
X-11889248Y-6185682D03*
X-14683248Y-6884182D03*
X-15572248Y-8662182D03*
X-14111748Y-7201682D03*
X-13476748Y-7392182D03*
X-11908298Y-9522480D03*
X-12429506Y-9516130D03*
X-10873248Y-7011182D03*
X-11190748D03*
X-11444748Y-9233682D03*
X-13349748Y-8090682D03*
X-12841748Y-8408182D03*
X-14111748Y-7709682D03*
X-12575048Y-8281182D03*
X-15280148Y-8179582D03*
X-15381748Y-7392182D03*
X-13299710Y-8640084D03*
X-12714748Y-9360682D03*
X-13097018Y-9265178D03*
X-11571748Y-8916182D03*
X-16588248Y-8598682D03*
X-13540248Y-9360682D03*
Y-9170182D03*
X-14619748Y-7265182D03*
X-13203698Y-8554232D03*
X-14746748Y-7138182D03*
X-14556248Y-6884182D03*
X-12460748Y-6630182D03*
X-15318248Y-7011182D03*
X-11063748Y-6185682D03*
X-10174748Y-8408182D03*
X-15254748Y-6757182D03*
X-14810248Y-6884182D03*
X-15762748Y-6947682D03*
X-14810248Y-7392182D03*
X-14111748Y-8789182D03*
X-13413248Y-8725682D03*
X-12841748Y-7201682D03*
X-13667248Y-6884182D03*
X-11190748Y-7328682D03*
X-14175248Y-7582682D03*
X-13562600Y-7026930D03*
X-12943348Y-7023882D03*
X-13552948Y-6922282D03*
X-12940300D03*
X-12333748Y-8077982D03*
X-12235704Y-8173740D03*
D37*
X-13794248Y-7937774D03*
D38*
X-10604770Y-7513086D03*
Y-6513088D03*
D39*
X-10428748Y-9678182D03*
D51*
X-13921248Y-6862846D03*
Y-6942856D03*
Y-7022866D03*
Y-7102876D03*
Y-7182886D03*
Y-7262896D03*
Y-7342906D03*
Y-7422916D03*
Y-7502926D03*
Y-7582682D03*
Y-7662692D03*
D52*
X-14121146Y-7872750D03*
X-14201156D03*
X-14281166D03*
X-14361176D03*
X-14441186D03*
X-14521196D03*
X-14601206D03*
X-14681216D03*
X-14761226D03*
X-14841236D03*
X-14921246D03*
D51*
X-15121144Y-7662692D03*
Y-7582682D03*
Y-7502926D03*
Y-7422916D03*
Y-7342906D03*
Y-7262896D03*
Y-7182886D03*
Y-7102876D03*
Y-7022866D03*
Y-6942856D03*
Y-6862846D03*
D52*
X-14921246Y-6672854D03*
X-14841236D03*
X-14761226D03*
X-14681216D03*
X-14601206D03*
X-14521196D03*
X-14441186D03*
X-14361176D03*
X-14281166D03*
X-14201156D03*
X-14121146D03*
D53*
X-12098798Y-7049282D03*
X-11552698D03*
X-12098798Y-6795282D03*
X-11552698D03*
X-12098798Y-6541282D03*
X-11552698D03*
X-12098798Y-6287282D03*
X-11552698D03*
X-12098798Y-6033282D03*
X-11552698D03*
D42*
X-14615684Y-8281182D03*
X-14365748D03*
D54*
X-12264914Y-9500128D03*
X-12169918D03*
X-12074922D03*
Y-9774956D03*
X-12169918D03*
X-12264914D03*
D43*
X-13409692Y-7740416D03*
X-13623052D03*
X-13703062Y-8160024D03*
X-13489702D03*
D44*
X-10329942Y-7513594D03*
Y-7300234D03*
D45*
X-10419350Y-6154186D03*
X-10609850Y-6248166D03*
Y-6060206D03*
D44*
X-10769870Y-6240292D03*
Y-6026932D03*
X-11189986Y-6760230D03*
Y-6546870D03*
D55*
Y-7220224D03*
Y-6880372D03*
D44*
X-14619748Y-8408182D03*
Y-8621542D03*
X-14365748Y-8408182D03*
Y-8621542D03*
D56*
X-11910076Y-9867666D03*
X-11909822Y-9660148D03*
D44*
X-12429760D03*
Y-9873508D03*
D43*
X-10850388Y-9424182D03*
X-11063748D03*
D57*
X-11432048Y-9401322D03*
Y-9843282D03*
D47*
X-16026654Y-6530360D03*
X-15772654D03*
X-16026654Y-7230384D03*
X-15772654D03*
X-16026654Y-7930154D03*
X-15772654D03*
X-16026654Y-8630178D03*
X-15772654D03*
X-16026654Y-9329948D03*
X-15772654D03*
D44*
X-14276848Y-6386342D03*
Y-6172982D03*
D43*
X-13705348Y-7265182D03*
X-13491988D03*
X-14022848Y-6617482D03*
X-13809488D03*
D44*
X-15026148Y-6579382D03*
Y-6366022D03*
X-14111748Y-8090682D03*
Y-8304042D03*
D43*
X-15318248Y-7582682D03*
X-15531608D03*
D45*
X-13438648Y-7074682D03*
X-13248148Y-6980702D03*
Y-7168662D03*
D44*
X-13108448Y-7186442D03*
Y-6973082D03*
D43*
X-11432048Y-9005082D03*
X-11218688D03*
X-11213608Y-8789182D03*
X-11000248D03*
D44*
X-14467348Y-6388882D03*
Y-6175522D03*
D36*
X-14175248Y-8535182D03*
X-11571748Y-8789182D03*
X-11546348Y-9144782D03*
X-10390648Y-6312682D03*
X-10327148Y-7150882D03*
D49*
X-10428748Y-8217682D03*
D36*
X-10301748Y-6439682D03*
X-13908548Y-8484382D03*
X-14187948Y-8979682D03*
X-13908548Y-8357382D03*
X-12892548Y-9233682D03*
X-12740148Y-8585982D03*
X-10301748Y-8408182D03*
X-11216148Y-8598682D03*
X-15432548Y-8585982D03*
X-16461248Y-8963426D03*
X-16029448Y-8979682D03*
X-13819648Y-8166882D03*
X-13184648Y-8179582D03*
X-13921248Y-8116082D03*
M02*
