G04 Filename: d:\work\silk_1 *
G04 Creator: GC-CAM (TM) 4.1.4  Fri Apr 13 18:28:33 2018 *
G04 This file contains layer(s): *
G04 Layer 7: CLIPPED *
%FSLAX35Y35*%
G04 Units: mm   *
%MOMM*%
G71*
%SFA1.00000B1.00000*%
%OFA0.00000B0.00000*%
G75*
%AD*%
G04 D58 (position 49 of UNTITLED):0.203200 Round     *
%ADD58C,0.203200*%
G04 D59 (position 50 of UNTITLED):0.101600 Round     *
%ADD59C,0.101600*%
%IPPOS*%
G04 Layer 7: CLIPPED *
%LN(07)CLIPPED*%
%LPD*%
X0Y0D02*
D58*
X-15499604Y-7937774D02*
X-13873217D01*
X-12826686D02*
X-11199892D01*
Y-7394214*
Y-7263150D02*
Y-7076714D01*
Y-6945650D02*
Y-6088146D01*
X-15499604*
Y-6755150*
Y-6886214D02*
Y-7937774D01*
Y-7388118D02*
X-15447864D01*
X-15315632D02*
X-14876364D01*
X-14744132D02*
X-13542864D01*
X-13410632D02*
X-11219806D01*
X-11199892Y-7263150D02*
Y-7076714D01*
Y-6945650D02*
Y-6088146D01*
X-15499604*
Y-6755150*
Y-6886214D02*
Y-7388118D01*
X-15349744Y-7238004D02*
X-14680073D01*
X-14559423D02*
X-14167044D01*
X-14056452D02*
X-12897044D01*
X-12786452D02*
X-11349752D01*
Y-6238006*
X-11721760*
X-11802736D02*
X-11848760D01*
X-11929736D02*
X-15349744D01*
Y-6952991*
Y-7069373D02*
Y-7238004D01*
X-12274896Y-8047756D02*
X-11089910D01*
Y-6246439*
Y-6124925D02*
Y-5978164D01*
X-15609586*
Y-8047756*
X-11089910D02*
X-10489962D01*
Y-7699065*
Y-7327107D02*
Y-6699067D01*
Y-6327109D02*
Y-5978164D01*
X-11089910*
Y-6124925*
Y-6246439D02*
Y-8047756D01*
X-15191400Y-6738132D02*
X-15029704D01*
Y-6318016*
X-15269734*
Y-6692742*
X-15029704Y-6738132D02*
X-14789674D01*
Y-6318016*
X-15029704*
Y-6738132*
X-14789674D02*
X-14549644D01*
Y-6318016*
X-14789674*
Y-6738132*
X-14549644D02*
X-14309614D01*
Y-6318016*
X-14549644*
Y-6738132*
X-14309614D02*
X-14069584D01*
Y-6318016*
X-14309614*
Y-6738132*
X-14069584D02*
X-13829554D01*
Y-6318016*
X-14069584*
Y-6738132*
X-13829554D02*
X-13589524D01*
Y-6504300*
Y-6375064D02*
Y-6318016D01*
X-13829554*
Y-6738132*
X-13589524D02*
X-13349748D01*
Y-6585249*
Y-6548115D02*
Y-6318016D01*
X-13589524*
Y-6375064*
Y-6504300D02*
Y-6738132D01*
X-13349748D02*
X-13109972D01*
Y-6318016*
X-13349748*
Y-6548115*
Y-6585249D02*
Y-6738132D01*
X-13109972D02*
X-12869942D01*
Y-6318016*
X-13109972*
Y-6738132*
X-12869942D02*
X-12629912D01*
Y-6318016*
X-12869942*
Y-6738132*
X-12629912D02*
X-12389882D01*
Y-6318016*
X-12629912*
Y-6738132*
X-12389882D02*
X-12149852D01*
Y-6318016*
X-12389882*
Y-6738132*
X-12149852D02*
X-11909822D01*
Y-6318016*
X-12149852*
Y-6738132*
X-11909822D02*
X-11669792D01*
Y-6318016*
X-11696233*
X-11828263D02*
X-11909822D01*
Y-6738132*
X-11669792D02*
X-11429762D01*
Y-6318016*
X-11669792*
Y-6738132*
X-15269734Y-7157994D02*
X-15029704D01*
Y-6738132*
X-15191400*
X-15269734Y-6821622D02*
Y-6966199D01*
Y-7056165D02*
Y-7157994D01*
X-15029704D02*
X-14809867D01*
X-14789674Y-7087839D02*
Y-6947072D01*
Y-6821292D02*
Y-6738132D01*
X-15029704*
Y-7157994*
X-14683629D02*
X-14549644D01*
Y-6950044*
Y-6818320D02*
Y-6738132D01*
X-14789674*
Y-6821292*
Y-6947072D02*
Y-7087839D01*
X-14549644Y-7157994D02*
X-14309614D01*
Y-6919209*
Y-6849155D02*
Y-6738132D01*
X-14549644*
Y-6818320*
Y-6950044D02*
Y-7157994D01*
X-14309614D02*
X-14161430D01*
X-14069584Y-7150704D02*
Y-6738132D01*
X-14309614*
Y-6849155*
Y-6919209D02*
Y-7157994D01*
X-14062066D02*
X-13829554D01*
Y-6738132*
X-14069584*
Y-7150704*
X-13829554Y-7157994D02*
X-13589524D01*
Y-7087357*
Y-6867139D02*
Y-6738132D01*
X-13829554*
Y-7157994*
X-13589524D02*
X-13349748D01*
Y-6738132*
X-13589524*
Y-6867139*
Y-7087357D02*
Y-7157994D01*
X-13349748D02*
X-13109972D01*
Y-6738132*
X-13349748*
Y-7157994*
X-13109972D02*
X-12891430D01*
X-12869942Y-7141840D02*
Y-6738132D01*
X-13109972*
Y-7157994*
X-12792066D02*
X-12629912D01*
Y-6738132*
X-12869942*
Y-7141840*
X-12629912Y-7157994D02*
X-12389882D01*
Y-6738132*
X-12629912*
Y-7157994*
X-12389882D02*
X-12149852D01*
Y-6738132*
X-12389882*
Y-7157994*
X-12149852D02*
X-11909822D01*
Y-7137572*
Y-7011792D02*
Y-6738132D01*
X-12149852*
Y-7157994*
X-11909822D02*
X-11669792D01*
Y-6738132*
X-11909822*
Y-7011792*
Y-7137572D02*
Y-7157994D01*
X-11669792D02*
X-11429762D01*
Y-6738132*
X-11669792*
Y-7157994*
X-13774690Y-7657358D02*
X-13758942Y-7672598D01*
X-13695442*
X-13679440Y-7657358*
Y-7642118*
X-13695442Y-7626878*
X-13758942*
X-13774690Y-7611638*
Y-7596398*
X-13758942Y-7581158*
X-13695442*
X-13679440Y-7596398*
X-13647690Y-7581158D02*
X-13552440D01*
X-13600192D02*
Y-7672598D01*
X-13504942Y-7581158D02*
X-13425440D01*
Y-7596398*
X-13504942Y-7672598*
X-13393690Y-7657358D02*
Y-7596398D01*
X-13377942Y-7581158*
X-13314442*
X-13298440Y-7596398*
Y-7657358*
X-13314442Y-7672598*
X-13377942*
X-13393690Y-7657358*
Y-7672598D02*
X-13298440Y-7581158D01*
X-13250942Y-7596398D02*
X-13234940Y-7581158D01*
X-13187442*
X-13171440Y-7596398*
Y-7611638*
X-13187442Y-7626878*
X-13171440Y-7642118*
Y-7657358*
X-13187442Y-7672598*
X-13234940*
X-13250942Y-7657358*
X-13219192Y-7626878D02*
X-13187442D01*
X-13123942Y-7596398D02*
X-13107940Y-7581158D01*
X-13060442*
X-13044440Y-7596398*
Y-7611638*
X-13060442Y-7626878*
X-13107940*
X-13123942Y-7642118*
Y-7672598*
X-13044440*
X-12965192Y-7611638D02*
Y-7672598D01*
X-13169662Y-5861324D02*
Y-5922284D01*
X-13112512*
X-13036312Y-5912124D02*
X-13045964Y-5922284D01*
X-13074412*
X-13093462Y-5901964*
Y-5881644*
X-13074412Y-5861324*
X-13045964*
X-13036312Y-5871484*
X-13017262Y-5922284D02*
Y-5861324D01*
X-12979162*
X-12960112Y-5881644*
Y-5901964*
X-12979162Y-5922284*
X-13017262*
X-12922012Y-5881644D02*
X-12902962Y-5861324D01*
Y-5922284*
X-11814826Y-9974727D02*
Y-9845289D01*
Y-9534951D02*
Y-9290299D01*
X-11859759Y-9065026D02*
X-11956329D01*
X-12383507D02*
X-12480077D01*
X-12524756Y-9295125D02*
Y-9534951D01*
Y-9845289D02*
Y-9974727D01*
X-12272534Y-8938026D02*
Y-8948186D01*
X-12263136Y-8958346*
X-12225036*
X-12215384Y-8948186*
Y-8897386*
X-12186936Y-8907546D02*
X-12177284Y-8897386D01*
X-12148836*
X-12139184Y-8907546*
Y-8917706*
X-12148836Y-8927866*
X-12177284*
X-12186936Y-8938026*
Y-8958346*
X-12139184*
X-14630670Y-8081030D02*
X-14350508D01*
X-14309614Y-8085094*
X-14272022Y-8096524*
X-14237986Y-8114812*
X-14208522Y-8138942*
X-14184392Y-8168406*
X-14166104Y-8202442*
X-14154674Y-8240288*
X-14150610Y-8281182*
X-14154674Y-8322076*
X-14166104Y-8359668*
X-14184392Y-8393704*
X-14208522Y-8423168*
X-14237986Y-8447552*
X-14272022Y-8465586*
X-14309614Y-8477016*
X-14350508Y-8481080*
X-14630670*
X-14671564Y-8477016*
X-14709410Y-8465586*
X-14743446Y-8447552*
X-14772910Y-8423168*
X-14797040Y-8393704*
X-14815074Y-8359668*
X-14826504Y-8322076*
X-14830568Y-8281182*
X-14826504Y-8240288*
X-14815074Y-8202442*
X-14797040Y-8168406*
X-14772910Y-8138942*
X-14743446Y-8114812*
X-14709410Y-8096524*
X-14671564Y-8085094*
X-14630670Y-8081030*
X-14566916Y-8535690D02*
X-14509766Y-8596650D01*
X-14566916D02*
X-14509766Y-8535690D01*
X-14471666Y-8556010D02*
X-14452616Y-8535690D01*
Y-8596650*
X-10952217Y-9226062D02*
X-11007639D01*
X-10952217Y-9104142D02*
X-11007639D01*
X-10705608Y-9254002D02*
X-10766568D01*
Y-9206504*
X-10756408Y-9196852*
X-10746248*
X-10736088Y-9206504*
Y-9254002*
Y-9206504D02*
X-10725928Y-9196852D01*
X-10705608*
X-10746248Y-9158752D02*
X-10766568Y-9139702D01*
X-10705608*
X-10954249Y-9069090D02*
X-11009671D01*
X-10954249Y-8947170D02*
X-11009671D01*
X-10707386Y-9080266D02*
X-10768346D01*
Y-9032768*
X-10758186Y-9023116*
X-10748026*
X-10737866Y-9032768*
Y-9080266*
Y-9032768D02*
X-10727706Y-9023116D01*
X-10707386*
X-10758186Y-8994668D02*
X-10768346Y-8985016D01*
Y-8956568*
X-10758186Y-8946916*
X-10748026*
X-10737866Y-8956568*
Y-8985016*
X-10727706Y-8994668*
X-10707386*
Y-8946916*
X-12392168Y-8710213D02*
Y-8654791D01*
X-12270248Y-8710213D02*
Y-8654791D01*
X-12435348Y-8758702D02*
X-12496308D01*
Y-8711204*
X-12486148Y-8701552*
X-12475988*
X-12465828Y-8711204*
Y-8758702*
Y-8711204D02*
X-12455668Y-8701552D01*
X-12435348*
X-12486148Y-8625352D02*
X-12496308Y-8635004D01*
Y-8663452*
X-12486148Y-8673104*
X-12445508*
X-12435348Y-8663452*
Y-8635004*
X-12445508Y-8625352*
X-12455668*
X-12465828Y-8635004*
Y-8673104*
X-12201668Y-8710213D02*
Y-8654791D01*
X-12079748Y-8710213D02*
Y-8654791D01*
X-11959606Y-8758702D02*
X-12020566D01*
Y-8711204*
X-12010406Y-8701552*
X-12000246*
X-11990086Y-8711204*
Y-8758702*
Y-8711204D02*
X-11979926Y-8701552D01*
X-11959606*
X-12020566Y-8673104D02*
Y-8625352D01*
X-12010406*
X-11959606Y-8673104*
X-10654808Y-9789942D02*
Y-9717781D01*
X-10766568Y-9666523D02*
Y-9623801D01*
X-10654808Y-9789942D02*
X-10730779D01*
Y-9500382D02*
X-10654808D01*
Y-9572543*
X-10854198Y-9861062D02*
X-10835148Y-9840742D01*
X-10816098*
X-10797048Y-9861062*
Y-9881382*
X-10816098Y-9901702*
X-10835148*
X-10854198Y-9881382*
Y-9861062*
X-10816098Y-9881382D02*
X-10797048Y-9901702D01*
X-10758948Y-9861062D02*
X-10739898Y-9840742D01*
Y-9901702*
X-10692400Y-9850902D02*
X-10682748Y-9840742D01*
X-10654300*
X-10644648Y-9850902*
Y-9861062*
X-10654300Y-9871222*
X-10682748*
X-10692400Y-9881382*
Y-9901702*
X-10644648*
X-10882367Y-9430532D02*
X-11077235D01*
X-10882367Y-9290578D02*
X-11077235D01*
X-11063748Y-9424182D02*
Y-9297182D01*
X-11051048Y-9424182D02*
Y-9297182D01*
X-11253232Y-9431802D02*
X-11314192D01*
Y-9393702*
X-11293872Y-9374652*
X-11273552*
X-11253232Y-9393702*
Y-9431802*
X-11304032Y-9346204D02*
X-11314192Y-9336552D01*
Y-9308104*
X-11304032Y-9298452*
X-11293872*
X-11283712Y-9308104*
Y-9336552*
X-11273552Y-9346204*
X-11253232*
Y-9298452*
X-11211068Y-9657633D02*
Y-9602211D01*
X-11089148Y-9657633D02*
Y-9602211D01*
X-11277108Y-9636272D02*
X-11266948Y-9645924D01*
Y-9674372*
X-11287268Y-9693422*
X-11307588*
X-11327908Y-9674372*
Y-9645924*
X-11317748Y-9636272*
X-11327908Y-9607824D02*
Y-9560072D01*
X-11317748*
X-11266948Y-9607824*
X-15682382Y-6400693D02*
X-15689850Y-6387358D01*
X-15724394Y-6346464*
X-15765288Y-6314714*
X-15806182Y-6294140*
X-15847076Y-6281948*
X-15887970Y-6276614*
X-15899654Y-6276360*
X-16116926Y-6400693D02*
X-16109458Y-6387358D01*
X-16097114Y-6372753*
X-15957388Y-6283472D02*
X-15952232Y-6281948D01*
X-15911338Y-6276614*
X-15899654Y-6276360*
X-16116926Y-6660027D02*
X-16109458Y-6673362D01*
X-16093431Y-6692336*
X-15682382Y-6660027D02*
X-15689850Y-6673362D01*
X-15719797Y-6708795*
X-15828407Y-6773209D02*
X-15847076Y-6778772D01*
X-15883931Y-6783573*
X-16153654Y-6212860D02*
Y-6227617D01*
X-15956804Y-6217178D02*
Y-6156218D01*
X-15918704*
X-15899654Y-6176538*
Y-6196858*
X-15918704Y-6217178*
X-15956804*
X-15861554Y-6186698D02*
X-15871206Y-6176538D01*
Y-6166378*
X-15861554Y-6156218*
X-15833106*
X-15823454Y-6166378*
Y-6176538*
X-15833106Y-6186698*
X-15861554*
X-15871206Y-6196858*
Y-6207018*
X-15861554Y-6217178*
X-15833106*
X-15823454Y-6207018*
Y-6196858*
X-15833106Y-6186698*
X-15682382Y-7100717D02*
X-15689850Y-7087382D01*
X-15724394Y-7046488*
X-15765288Y-7014738*
X-15811287Y-6992640D02*
X-15847076Y-6981972D01*
X-15887970Y-6976638*
X-15899654Y-6976384*
X-16116926Y-7100717D02*
X-16109458Y-7087382D01*
X-16074914Y-7046488*
X-16034020Y-7014738*
X-15993126Y-6994164*
X-15952232Y-6981972*
X-15911338Y-6976638*
X-15899654Y-6976384*
X-16116926Y-7360051D02*
X-16109458Y-7373386D01*
X-16074914Y-7414280*
X-16034020Y-7446030*
X-16028559Y-7448773*
X-15682382Y-7360051D02*
X-15689850Y-7373386D01*
X-15719797Y-7408819*
X-15815199Y-7469296D02*
X-15847076Y-7478796D01*
X-15870723Y-7481869*
X-16150987Y-6976384D02*
X-16090154D01*
X-16153654Y-6912884D02*
Y-6972396D01*
X-15956804Y-7082302D02*
Y-7021342D01*
X-15918704*
X-15899654Y-7041662*
Y-7061982*
X-15918704Y-7082302*
X-15956804*
X-15871206Y-7021342D02*
X-15823454D01*
Y-7031502*
X-15871206Y-7082302*
X-15682382Y-7800487D02*
X-15689850Y-7787152D01*
X-15724394Y-7746258*
X-15765288Y-7714508*
X-15806182Y-7693934*
X-15847076Y-7681742*
X-15887970Y-7676408*
X-15894320Y-7676281*
X-16116926Y-7800487D02*
X-16109458Y-7787152D01*
X-16074914Y-7746258*
X-16034020Y-7714508*
X-15996936Y-7695864*
X-16116926Y-8059821D02*
X-16109458Y-8073156D01*
X-16080375Y-8107598*
X-15682382Y-8059821D02*
X-15689850Y-8073156D01*
X-15719797Y-8108589*
X-15828407Y-8173003D02*
X-15847076Y-8178566D01*
X-15883931Y-8183367*
X-16213115Y-7676408D02*
X-16090154D01*
X-16153654Y-7612908D02*
Y-7739908D01*
X-15956804Y-7774198D02*
Y-7713238D01*
X-15918704*
X-15899654Y-7733558*
Y-7753878*
X-15918704Y-7774198*
X-15956804*
X-15823454Y-7723398D02*
X-15833106Y-7713238D01*
X-15861554*
X-15871206Y-7723398*
Y-7764038*
X-15861554Y-7774198*
X-15833106*
X-15823454Y-7764038*
Y-7753878*
X-15833106Y-7743718*
X-15871206*
X-15682382Y-8500511D02*
X-15689850Y-8487176D01*
X-15724394Y-8446282*
X-15765288Y-8414532*
X-15806182Y-8393958*
X-15847076Y-8381766*
X-15887970Y-8376432*
X-15899654Y-8376178*
X-16116926Y-8500511D02*
X-16109458Y-8487176D01*
X-16074914Y-8446282*
X-16034020Y-8414532*
X-15993126Y-8393958*
X-15952232Y-8381766*
X-15911338Y-8376432*
X-15899654Y-8376178*
X-16116926Y-8759845D02*
X-16109458Y-8773180D01*
X-16070723Y-8817325D02*
X-16041767Y-8839804D01*
X-15828407Y-8873027D02*
X-15847076Y-8878590D01*
X-15883931Y-8883391*
X-16217154Y-8376178D02*
X-16090154D01*
X-16153654Y-8312678D02*
Y-8439678D01*
X-16007604Y-8494796D02*
Y-8433836D01*
X-15969504*
X-15950454Y-8454156*
Y-8474476*
X-15969504Y-8494796*
X-16007604*
X-15874254Y-8454156D02*
X-15883906Y-8464316D01*
X-15912354*
X-15922006Y-8454156*
Y-8443996*
X-15912354Y-8433836*
X-15883906*
X-15874254Y-8443996*
Y-8484636*
X-15883906Y-8494796*
X-15912354*
X-15682382Y-9200281D02*
X-15689850Y-9186946D01*
X-15724394Y-9146052*
X-15765288Y-9114302*
X-15806182Y-9093728*
X-15847076Y-9081536*
X-15887970Y-9076202*
X-15895819Y-9076024*
X-16116926Y-9200281D02*
X-16109458Y-9186946D01*
X-16074914Y-9146052*
X-16034020Y-9114302*
X-15994879Y-9094617*
X-16116926Y-9459615D02*
X-16112506Y-9467489D01*
X-15903997Y-9583846D02*
X-15899654Y-9583948D01*
X-15682382Y-9459615D02*
X-15689850Y-9472950D01*
X-15694371Y-9478309*
X-15848575Y-9578563D02*
X-15887970Y-9583694D01*
X-15899654Y-9583948*
X-16216925Y-9075948D02*
X-16202346D01*
X-16153654Y-9012448D02*
Y-9041277D01*
X-16007604Y-9182120D02*
Y-9121160D01*
X-15969504*
X-15950454Y-9141480*
Y-9161800*
X-15969504Y-9182120*
X-16007604*
X-15912354Y-9141480D02*
X-15893304Y-9121160D01*
Y-9182120*
X-15855204Y-9171960D02*
Y-9131320D01*
X-15845806Y-9121160*
X-15807706*
X-15798054Y-9131320*
Y-9171960*
X-15807706Y-9182120*
X-15845806*
X-15855204Y-9171960*
Y-9182120D02*
X-15798054Y-9121160D01*
X-15828509Y-6858782D02*
X-15883931D01*
X-15828509Y-6736862D02*
X-15883931D01*
X-16072120Y-6950222D02*
Y-6889262D01*
X-16022107Y-6891904D02*
X-16014970Y-6899422D01*
Y-6909582*
X-16024622Y-6919742*
X-16072120*
X-16024622D02*
X-16014970Y-6929902D01*
Y-6950222*
X-15976870Y-6909582D02*
X-15960309Y-6891929D01*
X-15957820Y-6892031D02*
Y-6950222D01*
X-15910322Y-6899422D02*
X-15903159Y-6891904D01*
X-15872222Y-6889262D02*
X-15862570Y-6899422D01*
Y-6909582*
X-15872222Y-6919742*
X-15900670*
X-15910322Y-6929902*
Y-6950222*
X-15862570*
X-16185150Y-6445016D02*
Y-6372855D01*
X-16296910Y-6321597D02*
Y-6278875D01*
X-16185150Y-6445016D02*
X-16261121D01*
Y-6155456D02*
X-16185150D01*
Y-6227617*
X-16282940Y-6033536D02*
X-16263890Y-6013216D01*
X-16244840*
X-16225790Y-6033536*
Y-6053856*
X-16244840Y-6074176*
X-16263890*
X-16282940Y-6053856*
Y-6033536*
X-16244840Y-6053856D02*
X-16225790Y-6074176D01*
X-16149590Y-6013216D02*
X-16197342D01*
Y-6033536*
X-16159242*
X-16149590Y-6043696*
Y-6064016*
X-16159242Y-6074176*
X-16187690*
X-16197342Y-6064016*
X-16404606Y-6561602D02*
Y-6633763D01*
X-16292846Y-6685021D02*
Y-6727743D01*
X-16404606Y-6561602D02*
X-16328635D01*
Y-6851162D02*
X-16404606D01*
Y-6779001*
X-16575294Y-6771914D02*
X-16595614Y-6752864D01*
Y-6733814*
X-16575294Y-6714764*
X-16554974*
X-16534654Y-6733814*
Y-6752864*
X-16554974Y-6771914*
X-16575294*
X-16554974Y-6733814D02*
X-16534654Y-6714764D01*
X-16554974Y-6638564D02*
Y-6695714D01*
X-16595614Y-6657614*
X-16534654*
X-16491220Y-6379205D02*
Y-6434627D01*
X-16613140Y-6379205D02*
Y-6434627D01*
X-16514080Y-6203716D02*
X-16575040D01*
Y-6156218*
X-16564880Y-6146566*
X-16554720*
X-16544560Y-6156218*
Y-6203716*
Y-6156218D02*
X-16534400Y-6146566D01*
X-16514080*
X-16554720Y-6108466D02*
X-16575040Y-6089416D01*
X-16514080*
X-16564880Y-6041918D02*
X-16575040Y-6032266D01*
Y-6003818*
X-16564880Y-5994166*
X-16554720*
X-16544560Y-6003818*
X-16534400Y-5994166*
X-16524240*
X-16514080Y-6003818*
Y-6032266*
X-16524240Y-6041918*
X-16544560Y-6022868D02*
Y-6003818D01*
X-15815301Y-7558806D02*
X-15870723D01*
X-15815301Y-7436886D02*
X-15870723D01*
X-15855712Y-7650246D02*
Y-7589286D01*
X-15798562Y-7599446D02*
Y-7609606D01*
X-15808214Y-7619766*
X-15855712*
X-15808214D02*
X-15798562Y-7629926D01*
Y-7650246*
X-15760462Y-7609606D02*
X-15743901Y-7591953D01*
X-15741412Y-7592055D02*
Y-7650246D01*
X-15646162Y-7629926D02*
X-15703312D01*
X-16594344Y-7164852D02*
X-16522183D01*
X-16470925Y-7053092D02*
X-16428203D01*
X-16594344Y-7164852D02*
Y-7088881D01*
X-16504174Y-6888246D02*
X-16485124Y-6867926D01*
X-16466074*
X-16447024Y-6888246*
Y-6908566*
X-16466074Y-6928886*
X-16485124*
X-16504174Y-6908566*
Y-6888246*
X-16466074Y-6908566D02*
X-16447024Y-6928886D01*
X-16418576Y-6867926D02*
X-16370824D01*
Y-6878086*
X-16418576Y-6928886*
X-16156423Y-7345446D02*
X-16177047D01*
X-16228305Y-7457206D02*
X-16271027D01*
X-16104886Y-7360153D02*
Y-7421417D01*
X-16394446D02*
Y-7345446D01*
X-16322285*
X-16338566Y-7591064D02*
X-16327492Y-7579253D01*
X-16292490D02*
X-16281416Y-7591064D01*
Y-7611384*
X-16300466Y-7631704*
X-16319516*
X-16338566Y-7611384*
Y-7591064*
X-16300466Y-7611384D02*
X-16281416Y-7631704D01*
X-16243316Y-7570744D02*
X-16252968Y-7580904D01*
Y-7621544*
X-16243316Y-7631704*
X-16214868*
X-16205216Y-7621544*
Y-7611384*
X-16214868Y-7601224*
X-16252968*
X-16608060Y-7504729D02*
Y-7449307D01*
X-16486140Y-7504729D02*
Y-7449307D01*
X-16416265Y-7561600D02*
X-16453882D01*
Y-7514102*
X-16446262Y-7504450*
X-16438642*
X-16431022Y-7514102*
Y-7561600*
Y-7514102D02*
X-16423402Y-7504450D01*
X-16416265*
X-16438642Y-7466350D02*
X-16453882Y-7447300D01*
X-16416265*
X-16453882Y-7399802D02*
Y-7352050D01*
X-16446262*
X-16408162Y-7399802*
X-15828509Y-8258576D02*
X-15883931D01*
X-15828509Y-8136656D02*
X-15883931D01*
X-15592822Y-8339856D02*
X-15653782D01*
Y-8292358*
X-15643622Y-8282706*
X-15633462*
X-15623302Y-8292358*
Y-8339856*
Y-8292358D02*
X-15613142Y-8282706D01*
X-15592822*
X-15633462Y-8244606D02*
X-15653782Y-8225556D01*
X-15592822*
X-15602982Y-8187456D02*
X-15643622D01*
X-15653782Y-8178058*
Y-8139958*
X-15643622Y-8130306*
X-15602982*
X-15592822Y-8139958*
Y-8178058*
X-15602982Y-8187456*
X-15592822D02*
X-15653782Y-8130306D01*
X-16458733Y-7894848D02*
X-16452333D01*
X-16401075Y-7783088D02*
X-16358353D01*
X-16524494Y-7833913D02*
Y-7818877D01*
X-16234934D02*
Y-7844556D01*
X-16615934Y-7835158D02*
X-16636254Y-7816108D01*
Y-7797058*
X-16615934Y-7778008*
X-16595614*
X-16575294Y-7797058*
Y-7816108*
X-16595614Y-7835158*
X-16615934*
X-16595614Y-7797058D02*
X-16575294Y-7778008D01*
X-16626094Y-7749560D02*
X-16636254Y-7739908D01*
Y-7711460*
X-16626094Y-7701808*
X-16615934*
X-16605774Y-7711460*
X-16595614Y-7701808*
X-16585454*
X-16575294Y-7711460*
Y-7739908*
X-16585454Y-7749560*
X-16605774Y-7730510D02*
Y-7711460D01*
X-16175244Y-8324870D02*
Y-8252709D01*
X-16287004Y-8201451D02*
Y-8158729D01*
X-16175244Y-8324870D02*
X-16251215D01*
Y-8035310D02*
X-16175244D01*
Y-8107471*
X-16107934Y-8307090D02*
X-16088884Y-8286770D01*
X-16069834*
X-16050784Y-8307090*
Y-8327410*
X-16069834Y-8347730*
X-16088884*
X-16107934Y-8327410*
Y-8307090*
X-16069834Y-8327410D02*
X-16050784Y-8347730D01*
X-15974584Y-8296930D02*
Y-8307090D01*
X-15984236Y-8317250*
X-16012684*
X-16022336Y-8327410*
Y-8347730*
X-15974584*
X-16578088Y-8184433D02*
Y-8129011D01*
X-16456168Y-8184433D02*
Y-8129011D01*
X-16611337Y-8271022D02*
X-16669528D01*
Y-8223524*
X-16659368Y-8213872*
X-16649208*
X-16639048Y-8223524*
Y-8271022*
Y-8223524D02*
X-16628888Y-8213872D01*
X-16611337*
X-16649208Y-8175772D02*
X-16669528Y-8156722D01*
X-16608568*
X-16649208Y-8099572D02*
X-16669528Y-8080522D01*
X-16611337*
X-15828509Y-8918468D02*
X-15883931D01*
X-15828509Y-8796548D02*
X-15883931D01*
X-15566914Y-8949456D02*
X-15627874D01*
Y-8901958*
X-15617714Y-8892306*
X-15607554*
X-15597394Y-8901958*
Y-8949456*
Y-8901958D02*
X-15587234Y-8892306D01*
X-15566914*
X-15607554Y-8854206D02*
X-15627874Y-8835156D01*
X-15566914*
X-15597394Y-8778006D02*
X-15607554Y-8787658D01*
X-15617714*
X-15627874Y-8778006*
Y-8749558*
X-15617714Y-8739906*
X-15607554*
X-15597394Y-8749558*
Y-8778006*
X-15587234Y-8787658*
X-15577074*
X-15566914Y-8778006*
Y-8749558*
X-15577074Y-8739906*
X-15587234*
X-15597394Y-8749558*
X-16523630Y-8584458D02*
X-16472145D01*
X-16420887Y-8472698D02*
X-16378165D01*
X-16544306Y-8549228D02*
Y-8508487D01*
X-16254746D02*
Y-8534496D01*
X-16635746Y-8499368D02*
X-16656066Y-8480318D01*
Y-8461268*
X-16635746Y-8442218*
X-16615426*
X-16595106Y-8461268*
Y-8480318*
X-16615426Y-8499368*
X-16635746*
X-16615426Y-8461268D02*
X-16595106Y-8442218D01*
X-16635746Y-8366018D02*
X-16625586Y-8375670D01*
Y-8404118*
X-16635746Y-8413770*
X-16645906*
X-16656066Y-8404118*
Y-8375670*
X-16645906Y-8366018*
X-16605266*
X-16595106Y-8375670*
Y-8404118*
X-16185150Y-8994922D02*
Y-8922761D01*
X-16296910Y-8871503D02*
Y-8828781D01*
X-16185150Y-8994922D02*
X-16261121D01*
Y-8705362D02*
X-16185150D01*
Y-8777523*
X-16148574Y-9040693D02*
X-16160004Y-9029974D01*
Y-9010924*
X-16139684Y-8991874*
X-16119364*
X-16099044Y-9010924*
Y-9029974*
X-16116545Y-9046382*
X-16119364Y-9010924D02*
X-16099044Y-8991874D01*
X-16129524Y-8953774D02*
X-16139684Y-8963426D01*
X-16149844*
X-16160004Y-8953774*
Y-8925326*
X-16129524D02*
Y-8953774D01*
X-16119364Y-8963426*
X-16109204*
X-16099044Y-8953774*
Y-8925326*
X-16636254Y-8884457D02*
Y-8829035D01*
X-16514334Y-8884457D02*
Y-8829035D01*
X-16668512Y-8644402D02*
X-16636076D01*
X-16612251Y-8660328D02*
X-16621014Y-8667262D01*
X-16668512*
X-16621014D02*
X-16616010Y-8671199D01*
X-16554212Y-8655426D02*
Y-8671097D01*
X-16472145Y-8667262D02*
X-16497062D01*
X-16506714Y-8659642*
Y-8652022*
X-16497062Y-8644402*
X-16472145*
X-15848575Y-9628398D02*
X-15903997D01*
X-15848575Y-9506478D02*
X-15903997D01*
X-15888986Y-9745238D02*
Y-9684278D01*
X-15841488*
X-15831836Y-9694438*
Y-9704598*
X-15841488Y-9714758*
X-15888986*
X-15841488D02*
X-15831836Y-9724918D01*
Y-9745238*
X-15803388Y-9694438D02*
X-15793736Y-9684278D01*
X-15765288*
X-15755636Y-9694438*
Y-9704598*
X-15765288Y-9714758*
X-15793736*
X-15803388Y-9724918*
Y-9745238*
X-15755636*
X-15736586Y-9735078D02*
Y-9694438D01*
X-15727188Y-9684278*
X-15689088*
X-15679436Y-9694438*
Y-9735078*
X-15689088Y-9745238*
X-15727188*
X-15736586Y-9735078*
Y-9745238D02*
X-15679436Y-9684278D01*
X-16528304Y-9255018D02*
X-16456143D01*
X-16404885Y-9143258D02*
X-16362163D01*
X-16528304Y-9255018D02*
Y-9179047D01*
X-16238744D02*
Y-9255018D01*
X-16310905*
X-16645144Y-9360428D02*
X-16665464Y-9341378D01*
Y-9322328*
X-16645144Y-9303278*
X-16624824*
X-16604504Y-9322328*
Y-9341378*
X-16624824Y-9360428*
X-16645144*
X-16624824Y-9322328D02*
X-16604504Y-9303278D01*
X-16645144Y-9265178D02*
X-16665464Y-9246128D01*
X-16604504*
X-16645144Y-9188978D02*
X-16665464Y-9169928D01*
X-16607654*
X-16175244Y-9684786D02*
Y-9612625D01*
X-16287004Y-9561367D02*
Y-9518645D01*
X-16175244Y-9684786D02*
X-16251215D01*
X-16216392Y-9929642D02*
X-16236712Y-9910592D01*
Y-9891542*
X-16216392Y-9872492*
X-16196072*
X-16175752Y-9891542*
Y-9910592*
X-16196072Y-9929642*
X-16216392*
X-16196072Y-9891542D02*
X-16175752Y-9872492D01*
X-16216392Y-9834392D02*
X-16236712Y-9815342D01*
X-16175752*
X-16185912Y-9777242D02*
X-16226552D01*
X-16236712Y-9767844*
Y-9729744*
X-16226552Y-9720092*
X-16185912*
X-16175752Y-9729744*
Y-9767844*
X-16185912Y-9777242*
X-16175752D02*
X-16236712Y-9720092D01*
X-16578088Y-9564415D02*
Y-9508993D01*
X-16456168Y-9564415D02*
Y-9508993D01*
X-16611337Y-9651004D02*
X-16669528D01*
Y-9603506*
X-16659368Y-9593854*
X-16649208*
X-16639048Y-9603506*
Y-9651004*
Y-9603506D02*
X-16628888Y-9593854D01*
X-16611337*
X-16659368Y-9565406D02*
X-16669528Y-9555754D01*
Y-9527306*
X-16659368Y-9517654*
X-16649208*
X-16639048Y-9527306*
Y-9555754*
X-16628888Y-9565406*
X-16608568*
Y-9517654*
X-16649208Y-9479554D02*
X-16669528Y-9460504D01*
X-16611337*
X-12922012Y-8597412D02*
Y-8802644D01*
X-13247386Y-9127764D02*
X-13452110D01*
X-13777484Y-8802644D02*
Y-8597412D01*
X-13452110Y-8272292D02*
X-13247386D01*
X-13199888Y-8700028D02*
X-13200396Y-8688090D01*
X-13204460Y-8663706*
X-13212842Y-8639322*
X-13225288Y-8616767*
X-13266055Y-8576355D02*
X-13271770Y-8572012D01*
X-13296154Y-8560074*
X-13320538Y-8552962*
X-13344922Y-8550168*
X-13349748*
X-13499608Y-8700028D02*
X-13499100Y-8688090D01*
X-13495036Y-8663706*
X-13486654Y-8639322*
X-13473192Y-8614938*
X-13452110Y-8590554*
X-13427726Y-8572012*
X-13403342Y-8560074*
X-13378958Y-8552962*
X-13354574Y-8550168*
X-13349748*
X-13499608Y-8700028D02*
X-13499100Y-8711966D01*
X-13495036Y-8736350*
X-13486654Y-8760734*
X-13473192Y-8785118*
X-13452110Y-8809502*
X-13427726Y-8828044*
X-13403342Y-8839982*
X-13378958Y-8847094*
X-13354574Y-8849888*
X-13349748*
X-13199888Y-8700028D02*
X-13200396Y-8711966D01*
X-13204460Y-8736350*
X-13212842Y-8760734*
X-13226304Y-8785118*
X-13247386Y-8809502*
X-13271770Y-8828044*
X-13296154Y-8839982*
X-13320538Y-8847094*
X-13344922Y-8849888*
X-13349748*
X-13416804Y-8632972D02*
X-13365521D01*
X-13282692Y-8704016D02*
Y-8767338D01*
X-13361838*
X-13416804Y-8659540D02*
Y-8632972D01*
X-13367274Y-8304296D02*
X-13335524D01*
X-13303774Y-8334776*
Y-8395736*
X-13636260Y-8666754D02*
Y-8714252D01*
X-13666740Y-8746002*
X-13697220*
X-13727700Y-8714252*
Y-8666754*
X-13063236Y-8657864D02*
X-12971796D01*
Y-8737112*
X-13063236D02*
Y-8657864D01*
X-13017516D02*
Y-8732032D01*
X-13314696Y-9078234D02*
X-13378196D01*
X-13409946Y-9047754*
Y-9017274*
X-13378196Y-8986794*
X-13314696*
X-13951220Y-8917706D02*
X-13908040Y-8960886D01*
X-13910834Y-8877320D02*
X-13909310Y-8919230D01*
X-13867908Y-8920500*
X-13929630Y-8939296D02*
X-13909310Y-8919230D01*
X-13869432Y-8864874D02*
X-13870448Y-8836934D01*
X-13827522Y-8880114*
X-14302248Y-8675644D02*
Y-8614684D01*
X-14254750*
X-14245098Y-8624844*
Y-8635004*
X-14254750Y-8645164*
X-14302248*
X-14226048Y-8614684D02*
X-14168898D01*
X-14197600D02*
Y-8675644D01*
X-14092698Y-8635004D02*
X-14102350Y-8645164D01*
X-14130798*
X-14140450Y-8635004*
Y-8624844*
X-14130798Y-8614684*
X-14102350*
X-14092698Y-8624844*
Y-8665484*
X-14102350Y-8675644*
X-14130798*
X-11686048Y-8726444D02*
Y-8665484D01*
X-11638550*
X-11628898Y-8675644*
Y-8685804*
X-11638550Y-8695964*
X-11686048*
X-11609848Y-8665484D02*
X-11552698D01*
X-11581400D02*
Y-8723726D01*
X-11514598Y-8685804D02*
X-11495548Y-8665484D01*
Y-8726444*
X-11584448Y-9021084D02*
X-11527298D01*
X-11556000D02*
Y-9079326D01*
X-11498850Y-9031244D02*
X-11489198Y-9021084D01*
X-11460750*
X-11451098Y-9031244*
Y-9041404*
X-11460750Y-9051564*
X-11489198*
X-11498850Y-9061724*
Y-9082044*
X-11451098*
X-10441448Y-6224798D02*
Y-6163838D01*
X-10393950*
X-10384298Y-6173998*
Y-6184158*
X-10393950Y-6194318*
X-10441448*
X-10365248Y-6163838D02*
X-10308098D01*
X-10336800D02*
Y-6224798D01*
X-10279650Y-6173998D02*
X-10269998Y-6163838D01*
X-10241550*
X-10231898Y-6173998*
Y-6184158*
X-10241550Y-6194318*
X-10231898Y-6204478*
Y-6214638*
X-10241550Y-6224798*
X-10269998*
X-10279650Y-6214638*
X-10260600Y-6194318D02*
X-10241550D01*
X-10441448Y-7062998D02*
Y-7002038D01*
X-10393950*
X-10384298Y-7012198*
Y-7022358*
X-10393950Y-7032518*
X-10441448*
X-10365248Y-7002038D02*
X-10308098D01*
X-10336800D02*
Y-7062998D01*
X-10231898Y-7002038D02*
X-10279650D01*
Y-7022358*
X-10241550*
X-10231898Y-7032518*
Y-7052838*
X-10241550Y-7062998*
X-10269998*
X-10279650Y-7052838*
X-10568956Y-8257560D02*
X-10552116D01*
X-10305380D02*
X-10288794D01*
Y-8177550*
X-10305456*
X-10552040D02*
X-10568956D01*
Y-8257560*
X-10627630Y-8344682D02*
X-10688590D01*
Y-8297184*
X-10678430Y-8287532*
X-10668270*
X-10658110Y-8297184*
Y-8344682*
X-10688590Y-8268482D02*
Y-8211332D01*
Y-8240034D02*
X-10627630D01*
X-10647950Y-8135132D02*
Y-8192282D01*
X-10688590Y-8154182*
X-10627630*
X-10152904Y-6617482D02*
X-10213864D01*
Y-6569984*
X-10203704Y-6560332*
X-10193544*
X-10183384Y-6569984*
Y-6617482*
X-10213864Y-6541282D02*
Y-6484132D01*
Y-6512834D02*
X-10152904D01*
X-10203704Y-6455684D02*
X-10213864Y-6446032D01*
Y-6417584*
X-10203704Y-6407932*
X-10193544*
X-10183384Y-6417584*
Y-6446032*
X-10173224Y-6455684*
X-10152904*
Y-6407932*
X-10163064Y-6388882D02*
X-10203704D01*
X-10213864Y-6379484*
Y-6341384*
X-10203704Y-6331732*
X-10163064*
X-10152904Y-6341384*
Y-6379484*
X-10163064Y-6388882*
X-10152904D02*
X-10213864Y-6331732D01*
X-14048248Y-8599444D02*
Y-8538484D01*
X-14000750*
X-13991098Y-8548644*
Y-8558804*
X-14000750Y-8568964*
X-14048248*
X-13972048Y-8538484D02*
X-13946623D01*
X-13943600Y-8540491D02*
Y-8599444D01*
X-13838698Y-8548644D02*
X-13848350Y-8538484D01*
X-13870473*
X-13886450Y-8548644D02*
Y-8589284D01*
X-13876798Y-8599444*
X-13848350*
X-13838698Y-8589284*
Y-8579124*
X-13848350Y-8568964*
X-13886450*
X-14302248Y-8916944D02*
Y-8855984D01*
X-14254750*
X-14245098Y-8866144*
Y-8876304*
X-14254750Y-8886464*
X-14302248*
X-14226048Y-8855984D02*
X-14168898D01*
X-14197600D02*
Y-8914226D01*
X-14130798Y-8886464D02*
X-14140450Y-8876304D01*
Y-8866144*
X-14130798Y-8855984*
X-14102350*
X-14092698Y-8866144*
Y-8876304*
X-14102350Y-8886464*
X-14130798*
X-14140450Y-8896624*
Y-8906784*
X-14130798Y-8916944*
X-14102350*
X-14092698Y-8906784*
Y-8896624*
X-14102350Y-8886464*
X-13933948Y-8296295D02*
Y-8243336D01*
X-13886450*
X-13876798Y-8253496*
Y-8263656*
X-13886450Y-8273816*
X-13933948*
X-13857748Y-8243336D02*
X-13800598D01*
X-13829300D02*
Y-8304296D01*
X-13762498Y-8263656D02*
X-13743448Y-8243336D01*
Y-8304296*
X-13705348Y-8294136D02*
Y-8253496D01*
X-13695950Y-8243336*
X-13657850*
X-13648198Y-8253496*
Y-8294136*
X-13695950Y-8304296D02*
X-13705348Y-8294136D01*
Y-8304296D02*
X-13648198Y-8243336D01*
X-13019548Y-9158244D02*
Y-9097284D01*
X-12972050*
X-12962398Y-9107444*
Y-9117604*
X-12972050Y-9127764*
X-13019548*
X-12943348Y-9097284D02*
X-12886198D01*
X-12914900D02*
Y-9158244D01*
X-12848098Y-9117604D02*
X-12829048Y-9097284D01*
Y-9158244*
X-12771898Y-9117604D02*
X-12752848Y-9097284D01*
Y-9158244*
X-12765548Y-8523244D02*
Y-8462284D01*
X-12718050*
X-12708398Y-8472444*
Y-8482604*
X-12718050Y-8492764*
X-12765548*
X-12689348Y-8462284D02*
X-12632198D01*
X-12660900D02*
Y-8523244D01*
X-12594098Y-8482604D02*
X-12575048Y-8462284D01*
Y-8523244*
X-12527550Y-8472444D02*
X-12517898Y-8462284D01*
X-12489450*
X-12479798Y-8472444*
Y-8482604*
X-12489450Y-8492764*
X-12517898*
X-12527550Y-8502924*
Y-8523244*
X-12479798*
X-10581148Y-8472444D02*
Y-8411484D01*
X-10533650*
X-10523998Y-8421644*
Y-8431804*
X-10533650Y-8441964*
X-10581148*
X-10504948Y-8411484D02*
X-10447798D01*
X-10476500D02*
Y-8472444D01*
X-10419350Y-8411484D02*
X-10371598D01*
Y-8421644*
X-10419350Y-8472444*
X-11368548Y-8535944D02*
Y-8474984D01*
X-11321050*
X-11311398Y-8485144*
Y-8495304*
X-11321050Y-8505464*
X-11368548*
X-11292348Y-8474984D02*
X-11235198D01*
X-11263900D02*
Y-8535944D01*
X-11197098Y-8495304D02*
X-11178048Y-8474984D01*
Y-8535944*
X-11130550Y-8485144D02*
X-11120898Y-8474984D01*
X-11092450*
X-11082798Y-8485144*
Y-8495304*
X-11092450Y-8505464*
X-11082798Y-8515624*
Y-8525784*
X-11092450Y-8535944*
X-11120898*
X-11130550Y-8525784*
X-11111500Y-8505464D02*
X-11092450D01*
X-15584948Y-8523244D02*
Y-8462284D01*
X-15537450*
X-15527798Y-8472444*
Y-8482604*
X-15537450Y-8492764*
X-15584948*
X-15508748Y-8462284D02*
X-15451598D01*
X-15480300D02*
Y-8523244D01*
X-15413498Y-8482604D02*
X-15394448Y-8462284D01*
Y-8523244*
X-15299198Y-8502924D02*
X-15356348D01*
X-15318248Y-8462284*
Y-8523244*
X-16419059Y-8895862D02*
X-16471408D01*
Y-8864112*
X-16461248Y-8857762*
X-16451088*
X-16440928Y-8864112*
Y-8895862*
X-16471408Y-8845062D02*
Y-8806962D01*
X-16451088Y-8781562D02*
X-16471408Y-8768862D01*
X-16419059*
X-16471408Y-8705362D02*
Y-8737112D01*
X-16451088*
Y-8711712*
X-16440928Y-8705362*
X-16420608*
X-15883398Y-9040388D02*
Y-8979428D01*
X-15835900*
X-15826248Y-8989588*
Y-8999748*
X-15835900Y-9009908*
X-15883398*
X-15807198Y-8979428D02*
X-15750048D01*
X-15778750D02*
Y-9040388D01*
X-15711948Y-8999748D02*
X-15692898Y-8979428D01*
Y-9040388*
X-15597648Y-8989588D02*
X-15607300Y-8979428D01*
X-15635748*
X-15645400Y-8989588*
Y-9030228*
X-15635748Y-9040388*
X-15607300*
X-15597648Y-9030228*
Y-9020068*
X-15607300Y-9009908*
X-15645400*
X-13756148Y-8148315D02*
Y-8119384D01*
X-13708650*
X-13698998Y-8129544*
Y-8139704*
X-13708650Y-8149864*
X-13755716*
X-13679948Y-8119384D02*
X-13622798D01*
X-13651500D02*
Y-8180344D01*
X-13584698Y-8139704D02*
X-13565648Y-8119384D01*
Y-8180344*
X-13518150Y-8119384D02*
X-13470398D01*
Y-8129544*
X-13518150Y-8180344*
X-13114798Y-8212094D02*
Y-8151134D01*
X-13067300*
X-13057648Y-8161294*
Y-8171454*
X-13067300Y-8181614*
X-13114798*
X-13038598Y-8151134D02*
X-12981448D01*
X-13010150D02*
Y-8212094D01*
X-12943348Y-8171454D02*
X-12924298Y-8151134D01*
Y-8212094*
X-12867148Y-8181614D02*
X-12876800Y-8171454D01*
Y-8161294*
X-12867148Y-8151134*
X-12838700*
X-12829048Y-8161294*
Y-8171454*
X-12838700Y-8181614*
X-12867148*
X-12876800Y-8191774*
Y-8201934*
X-12867148Y-8212094*
X-12838700*
X-12829048Y-8201934*
Y-8191774*
X-12838700Y-8181614*
X-14167120Y-8235970D02*
Y-8175010D01*
X-14119622*
X-14109970Y-8185170*
Y-8195330*
X-14119622Y-8205490*
X-14167120*
X-14090920Y-8175010D02*
X-14033770D01*
X-14062472D02*
Y-8235970D01*
X-13995670Y-8195330D02*
X-13976620Y-8175010D01*
Y-8235970*
X-13881370Y-8195330D02*
X-13891022Y-8205490D01*
X-13919470*
X-13929122Y-8195330*
Y-8185170*
X-13891174Y-8175010D02*
X-13891022D01*
X-13883935Y-8182452*
X-13881370Y-8190707D02*
Y-8225810D01*
X-13891022Y-8235970*
X-13919470*
X-15432548Y-9481078D02*
Y-9633478D01*
X-15375398*
X-15299198Y-9481078D02*
X-15356348Y-9633478D01*
Y-9481078D02*
X-15327900Y-9557278D01*
X-15222998Y-9608078D02*
X-15232650Y-9633478D01*
X-15261098*
X-15280148Y-9582678*
Y-9531878*
X-15261098Y-9481078*
X-15232650*
X-15222998Y-9506478*
X-15146798Y-9633478D02*
X-15203948D01*
Y-9481078*
X-15146798*
X-15203948Y-9557278D02*
X-15165848D01*
X-15070598Y-9633478D02*
X-15127748D01*
Y-9481078*
X-15070598*
X-15127748Y-9557278D02*
X-15089648D01*
X-14975348Y-9633478D02*
Y-9481078D01*
X-14927850*
X-14918198Y-9506478*
Y-9531878*
X-14927850Y-9557278*
X-14975348*
X-14927850D02*
X-14918198Y-9582678D01*
Y-9633478*
X-14899148Y-9531878D02*
X-14880098Y-9481078D01*
X-14861048*
X-14841998Y-9531878*
Y-9582678*
X-14861048Y-9633478*
X-14880098*
X-14899148Y-9582678*
Y-9531878*
X-14822948Y-9481078D02*
Y-9608078D01*
X-14813550Y-9633478*
X-14775450*
X-14765798Y-9608078*
Y-9481078*
X-14746748D02*
Y-9557278D01*
X-14718300Y-9633478*
X-14689598Y-9557278*
Y-9481078*
X-14661150D02*
X-14623050D01*
X-14642100D02*
Y-9633478D01*
X-14661150D02*
X-14623050D01*
X-14537198D02*
X-14594348D01*
Y-9481078*
X-14537198*
X-14594348Y-9557278D02*
X-14556248D01*
X-14518148Y-9633478D02*
Y-9481078D01*
X-14470650*
X-14460998Y-9506478*
Y-9531878*
X-14470650Y-9557278*
X-14518148*
X-14470650D02*
X-14460998Y-9582678D01*
Y-9633478*
X-14384798D02*
X-14441948D01*
Y-9481078*
X-14384798*
X-14441948Y-9557278D02*
X-14403848D01*
X-14280150D02*
X-14232398D01*
X-14137148Y-9481078D02*
X-14079998D01*
X-14108700D02*
Y-9633478D01*
X-14060948Y-9531878D02*
X-14041898Y-9481078D01*
X-14022848*
X-14003798Y-9531878*
Y-9582678*
X-14022848Y-9633478*
X-14041898*
X-14060948Y-9582678*
Y-9531878*
X-13984748Y-9481078D02*
Y-9608078D01*
X-13975350Y-9633478*
X-13937250*
X-13927598Y-9608078*
Y-9481078*
X-13908548D02*
Y-9633478D01*
X-13851398*
X-13832348Y-9531878D02*
X-13813298Y-9481078D01*
X-13794248*
X-13775198Y-9531878*
Y-9582678*
X-13794248Y-9633478*
X-13813298*
X-13832348Y-9582678*
Y-9531878*
X-13756148Y-9633478D02*
Y-9481078D01*
X-13698998Y-9633478*
Y-9481078*
X-15546848Y-9830582D02*
Y-9678182D01*
X-15499350*
X-15489698Y-9703582*
Y-9728982*
X-15499350Y-9754382*
X-15489698Y-9779782*
Y-9805182*
X-15499350Y-9830582*
X-15546848*
Y-9754382D02*
X-15499350D01*
X-15470648Y-9678182D02*
X-15413498D01*
X-15442200D02*
Y-9830582D01*
X-15394448Y-9805182D02*
X-15385050Y-9830582D01*
X-15346950*
X-15337298Y-9805182*
Y-9779782*
X-15346950Y-9754382*
X-15385050*
X-15394448Y-9728982*
Y-9703582*
X-15385050Y-9678182*
X-15346950*
X-15337298Y-9703582*
X-15242048Y-9805182D02*
X-15232650Y-9830582D01*
X-15194550*
X-15184898Y-9805182*
Y-9779782*
X-15194550Y-9754382*
X-15232650*
X-15242048Y-9728982*
Y-9703582*
X-15232650Y-9678182*
X-15194550*
X-15184898Y-9703582*
X-15108698Y-9678182D02*
X-15165848Y-9830582D01*
Y-9678182D02*
X-15137400Y-9754382D01*
X-15089648Y-9805182D02*
X-15080250Y-9830582D01*
X-15042150*
X-15032498Y-9805182*
Y-9779782*
X-15042150Y-9754382*
X-15080250*
X-15089648Y-9728982*
Y-9703582*
X-15080250Y-9678182*
X-15042150*
X-15032498Y-9703582*
X-15013448Y-9678182D02*
X-14956298D01*
X-14985000D02*
Y-9830582D01*
X-14880098D02*
X-14937248D01*
Y-9678182*
X-14880098*
X-14937248Y-9754382D02*
X-14899148D01*
X-14861048Y-9830582D02*
Y-9678182D01*
X-14832600Y-9754382*
X-14803898Y-9678182*
Y-9830582*
X-14727698D02*
X-14784848D01*
Y-9678182*
X-14727698*
X-14784848Y-9754382D02*
X-14746748D01*
X-14708648Y-9805182D02*
X-14699250Y-9830582D01*
X-14661150*
X-14651498Y-9805182*
Y-9779782*
X-14661150Y-9754382*
X-14699250*
X-14708648Y-9728982*
Y-9703582*
X-14699250Y-9678182*
X-14661150*
X-14651498Y-9703582*
X-14556248Y-9830582D02*
Y-9678182D01*
X-14499098Y-9830582*
Y-9678182*
X-14480048D02*
Y-9805182D01*
X-14470650Y-9830582*
X-14432550*
X-14422898Y-9805182*
Y-9678182*
X-14403848Y-9830582D02*
Y-9678182D01*
X-14375400Y-9754382*
X-14346698Y-9678182*
Y-9830582*
X-14270498D02*
X-14327648D01*
Y-9678182*
X-14270498*
X-14327648Y-9754382D02*
X-14289548D01*
X-14251448Y-9830582D02*
Y-9678182D01*
X-14203950*
X-14194298Y-9703582*
Y-9728982*
X-14203950Y-9754382*
X-14251448*
X-14203950D02*
X-14194298Y-9779782D01*
Y-9830582*
X-14165850Y-9678182D02*
X-14127750D01*
X-14146800D02*
Y-9830582D01*
X-14165850D02*
X-14127750D01*
X-14099048Y-9728982D02*
X-14079998Y-9678182D01*
X-14060948*
X-14041898Y-9728982*
Y-9779782*
X-14060948Y-9830582*
X-14079998*
X-14099048Y-9779782*
Y-9728982*
X-14060948Y-9779782D02*
X-14041898Y-9830582D01*
X-14022848Y-9678182D02*
Y-9805182D01*
X-14013450Y-9830582*
X-13975350*
X-13965698Y-9805182*
Y-9678182*
X-13889498Y-9830582D02*
X-13946648D01*
Y-9678182*
X-13889498*
X-13946648Y-9754382D02*
X-13908548D01*
X-13870448Y-9805182D02*
X-13861050Y-9830582D01*
X-13822950*
X-13813298Y-9805182*
Y-9779782*
X-13822950Y-9754382*
X-13861050*
X-13870448Y-9728982*
Y-9703582*
X-13861050Y-9678182*
X-13822950*
X-13813298Y-9703582*
X-13660898Y-9830582D02*
X-13718048D01*
Y-9678182*
X-13660898*
X-13718048Y-9754382D02*
X-13679948D01*
X-13584698Y-9805182D02*
X-13594350Y-9830582D01*
X-13622798*
X-13641848Y-9779782*
Y-9728982*
X-13622798Y-9678182*
X-13594350*
X-13584698Y-9703582*
X-15635748Y-9932182D02*
X-13476748D01*
Y-9424182*
X-13521681*
X-13558815D02*
X-15635748D01*
Y-9932182*
D59*
X-12956327Y-7582784D02*
X-12974057D01*
Y-7580371D02*
X-12956327D01*
X-12975352Y-7583850D02*
Y-7578466D01*
X-12974057Y-7583850D02*
Y-7578466D01*
X-12967884Y-7570998D02*
X-12962500D01*
Y-7573132D02*
X-12967884D01*
Y-7572293D02*
X-12962500D01*
X-12957572Y-7577958D02*
X-12972812D01*
Y-7585197D02*
X-12957572D01*
X-12955032Y-7578466D02*
Y-7583850D01*
X-12956327Y-7578466D02*
Y-7583850D01*
X-12962500Y-7591318D02*
X-12967884D01*
Y-7590023D02*
X-12962500D01*
X-12967884*
X-12960518Y-7587610D02*
X-12969866D01*
X-12970805Y-7575545D02*
X-12959579D01*
D58*
X-13645937Y-8656594D02*
X-13636260Y-8666754D01*
X-13727700D02*
X-13716372Y-8654867D01*
X-13777484Y-8597412D02*
X-13777027Y-8596955D01*
X-13452110Y-9127764D02*
X-13520233Y-9059692D01*
X-13710403Y-8869675D02*
X-13777484Y-8802644D01*
X-13395747Y-8331626D02*
X-13367274Y-8304296D01*
X-13453532Y-8273714D02*
X-13452110Y-8272292D01*
X-13607304Y-8047756D02*
X-13600192D01*
X-13480304D02*
X-13473192D01*
X-13246421Y-9126799D02*
X-13247386Y-9127764D01*
X-13314696Y-9059235D02*
Y-9078234D01*
Y-8986794D02*
Y-9004218D01*
X-12987874Y-8531601D02*
X-12922012Y-8597412D01*
X-13247386Y-8272292D02*
X-13180609Y-8338992D01*
X-13226304Y-8047756D02*
X-13219192D01*
X-12922012Y-8802644D02*
X-12922926Y-8803558D01*
X-12971796Y-8737112D02*
X-12979924Y-8745646D01*
X-13055108D02*
X-13063236Y-8737112D01*
X-13099304Y-8047756D02*
X-13092192D01*
X-12845304D02*
X-12392600D01*
X-12972304D02*
X-12965192D01*
X-13648198Y-8294136D02*
X-13656047Y-8302416D01*
X-13671541Y-8304296D02*
X-13695950D01*
X-13381803Y-8365256D02*
X-13303774D01*
X-15609586Y-8047756D02*
X-13873090D01*
X-16072120Y-6889262D02*
X-16041742D01*
X-15884058D02*
X-15872222D01*
X-15855712Y-7589286D02*
X-15815174D01*
X-15805699Y-7591928D02*
X-15798562Y-7599446D01*
X-15703312Y-7629926D02*
X-15667676Y-7591928D01*
X-15665212D02*
Y-7650246D01*
X-16228178Y-7570744D02*
X-16243316D01*
X-16060842Y-8124972D02*
X-16041767Y-8139780D01*
X-15682382Y-8759845D02*
X-15687234Y-8768506D01*
X-16472018Y-8690122D02*
X-16486165D01*
X-16471408Y-8826012D02*
X-16418932D01*
X-16668512Y-8671224D02*
Y-8644402D01*
M02*
