G04 Filename: d:\work\silk_2 *
G04 Creator: GC-CAM (TM) 4.1.4  Fri Apr 13 18:28:33 2018 *
G04 This file contains layer(s): *
G04 Layer 8: CLIPPED *
%FSLAX35Y35*%
G04 Units: mm   *
%MOMM*%
G71*
%SFA1.00000B1.00000*%
%OFA0.00000B0.00000*%
G75*
%AD*%
G04 D58 (position 49 of UNTITLED):0.203200 Round     *
%ADD58C,0.203200*%
G04 D59 (position 50 of UNTITLED):0.101600 Round     *
%ADD59C,0.101600*%
%IPPOS*%
G04 Layer 8: CLIPPED *
%LN(08)CLIPPED*%
%LPD*%
X0Y0D02*
D58*
X-10682748Y-9805182D02*
X-10098548D01*
Y-8535182*
X-10682748*
Y-9805182*
D59*
Y-9678182D02*
Y-8662182D01*
X-10677668Y-9678182D02*
Y-8662182D01*
X-10672588Y-9678182D02*
Y-8662182D01*
X-10667508Y-9678182D02*
Y-8662182D01*
X-10662428Y-9678182D02*
Y-8662182D01*
X-10657348Y-9678182D02*
Y-8662182D01*
X-10652268Y-9678182D02*
Y-8662182D01*
X-10647188Y-9678182D02*
Y-8662182D01*
X-10642108Y-9678182D02*
Y-8662182D01*
X-10637028Y-9678182D02*
Y-8662182D01*
X-10631948Y-9678182D02*
Y-8662182D01*
X-10626868Y-9678182D02*
Y-8662182D01*
X-10621788Y-9678182D02*
Y-8662182D01*
X-10616708Y-9678182D02*
Y-8662182D01*
X-10611628Y-9678182D02*
Y-8662182D01*
X-10606548Y-9678182D02*
Y-8662182D01*
X-10601468Y-9678182D02*
Y-8662182D01*
X-10596388Y-9678182D02*
Y-8662182D01*
X-10593848Y-9678182D02*
Y-8662182D01*
D58*
X-10682748Y-9678182D02*
X-10596617D01*
X-10593848Y-8662182D02*
X-10682748D01*
Y-9678182*
X-10812288Y-8522482D02*
X-10802128D01*
X-10791968Y-8531880*
Y-8569980*
X-10802128Y-8579632*
X-10852928*
X-10832608Y-8617732D02*
X-10852928Y-8636782D01*
X-10791968*
X-14074918Y-6862338D02*
Y-6859290D01*
X-14076188Y-6852686*
X-14078220Y-6846082*
X-14082030Y-6839478*
X-14087618Y-6832874*
X-14094222Y-6827794*
X-14100826Y-6824492*
X-14107430Y-6822460*
X-14114034Y-6821698*
X-14115558*
X-14156198Y-6862338D02*
Y-6859290D01*
X-14154928Y-6852686*
X-14152896Y-6846082*
X-14149086Y-6839478*
X-14143498Y-6832874*
X-14136894Y-6827794*
X-14130290Y-6824492*
X-14123686Y-6822460*
X-14117082Y-6821698*
X-14115558*
X-14156198Y-6862338D02*
Y-6865386D01*
X-14154928Y-6871990*
X-14152896Y-6878594*
X-14149086Y-6885198*
X-14143498Y-6891802*
X-14136894Y-6896882*
X-14130290Y-6900184*
X-14123686Y-6902216*
X-14117082Y-6902978*
X-14115558*
X-14074918Y-6862338D02*
Y-6865386D01*
X-14076188Y-6871990*
X-14078220Y-6878594*
X-14082030Y-6885198*
X-14087618Y-6891802*
X-14094222Y-6896882*
X-14100826Y-6900184*
X-14107430Y-6902216*
X-14114034Y-6902978*
X-14115558*
D59*
X-14971233Y-6772930D02*
X-15021068D01*
Y-6812859*
Y-7712679D02*
Y-7772928D01*
X-14971233*
X-14071159D02*
X-14021070D01*
Y-7712679*
X-14034735Y-6819209D02*
X-14071159Y-6782785D01*
D58*
X-14470396Y-7369322D02*
Y-7420122D01*
X-14479794Y-7430282*
X-14517894*
X-14527546Y-7420122*
Y-7369322*
X-14565646Y-7389642D02*
X-14584696Y-7369322D01*
Y-7430282*
X-11952748Y-7176282D02*
X-11571748D01*
Y-7140951*
Y-6957613D02*
Y-6886951D01*
Y-6703613D02*
Y-6632951D01*
Y-6449613D02*
Y-6378951D01*
Y-6195613D02*
Y-6124951D01*
Y-5941613D02*
Y-5906282D01*
X-12079748*
Y-5941613*
Y-6124951D02*
Y-6195613D01*
Y-6378951D02*
Y-6449613D01*
Y-6632951D02*
Y-6703613D01*
Y-6886951D02*
Y-6957613D01*
X-11988181Y-7140849D02*
X-11952748Y-7176282D01*
X-11749548Y-7272802D02*
Y-7282962D01*
X-11758946Y-7293122*
X-11797046*
X-11806698Y-7282962*
Y-7232162*
X-11835146Y-7242322D02*
X-11844798Y-7232162D01*
X-11873246*
X-11882898Y-7242322*
Y-7252482*
X-11873246Y-7262642*
X-11882898Y-7272802*
Y-7282962*
X-11873246Y-7293122*
X-11844798*
X-11835146Y-7282962*
X-11854196Y-7262642D02*
X-11873246D01*
D59*
X-12297426Y-9575058D02*
X-12047490D01*
X-12046220Y-9577598D02*
Y-9701067D01*
X-12297426Y-9614936D02*
X-12283202Y-9620778D01*
X-12277360Y-9635002*
X-12297426Y-9664974D02*
X-12283202Y-9659386D01*
X-12277360Y-9645162*
X-12297426Y-9664974D02*
Y-9701067D01*
Y-9614936D02*
Y-9575058D01*
X-12277360Y-9635002D02*
Y-9645162D01*
D58*
X-12247388Y-9605030D02*
Y-9604522D01*
X-12247642Y-9602998*
X-12248150Y-9601474*
X-12248912Y-9599950*
X-12249928Y-9598426*
X-12251452Y-9597156*
X-12252976Y-9596140*
X-12254500Y-9595632*
X-12256024Y-9595124*
X-12257294*
X-12267200Y-9605030D02*
Y-9604522D01*
X-12266946Y-9602998*
X-12266438Y-9601474*
X-12265676Y-9599950*
X-12264660Y-9598426*
X-12263136Y-9597156*
X-12261612Y-9596140*
X-12260088Y-9595632*
X-12258564Y-9595124*
X-12257294*
X-12267200Y-9605030D02*
Y-9605538D01*
X-12266946Y-9607062*
X-12266438Y-9608586*
X-12265676Y-9610110*
X-12264660Y-9611634*
X-12263136Y-9612904*
X-12261612Y-9613920*
X-12260088Y-9614428*
X-12258564Y-9614936*
X-12257294*
X-12247388Y-9605030D02*
Y-9605538D01*
X-12247642Y-9607062*
X-12248150Y-9608586*
X-12248912Y-9610110*
X-12249928Y-9611634*
X-12251452Y-9612904*
X-12252976Y-9613920*
X-12254500Y-9614428*
X-12256024Y-9614936*
X-12257294*
X-12110990Y-9873508D02*
Y-9924308D01*
X-12120388Y-9934468*
X-12158488*
X-12168140Y-9924308*
Y-9873508*
X-12196588Y-9883668D02*
X-12206240Y-9873508D01*
X-12234688*
X-12244340Y-9883668*
Y-9893828*
X-12234688Y-9903988*
X-12206240*
X-12196588Y-9914148*
Y-9934468*
X-12244340*
X-13488661Y-7681996D02*
X-13544083D01*
X-13488661Y-7803916D02*
X-13544083D01*
X-13497322Y-7615956D02*
X-13487670Y-7626116D01*
X-13459222*
X-13440172Y-7605796*
Y-7585476*
X-13459222Y-7565156*
X-13487670*
X-13497322Y-7575316*
X-13535422Y-7585476D02*
X-13554472Y-7565156D01*
Y-7626116*
X-13624093Y-8218444D02*
X-13568671D01*
X-13624093Y-8096524D02*
X-13568671D01*
X-13590032Y-8331982D02*
X-13580380Y-8342142D01*
X-13551932*
X-13532882Y-8321822*
Y-8301502*
X-13551932Y-8281182*
X-13580380*
X-13590032Y-8291342*
X-13618480D02*
X-13628132Y-8281182D01*
X-13656580*
X-13666232Y-8291342*
Y-8301502*
X-13656580Y-8311662*
X-13628132*
X-13618480Y-8321822*
Y-8342142*
X-13666232*
X-10271522Y-7434625D02*
Y-7379203D01*
X-10393442Y-7434625D02*
Y-7379203D01*
X-10141982Y-7330714D02*
X-10202942D01*
Y-7378212*
X-10192782Y-7387864*
X-10182622*
X-10172462Y-7378212*
Y-7330714*
Y-7378212D02*
X-10162302Y-7387864D01*
X-10141982*
X-10192782Y-7416312D02*
X-10202942Y-7425964D01*
Y-7454412*
X-10192782Y-7464064*
X-10182622*
X-10172462Y-7454412*
X-10162302Y-7464064*
X-10152142*
X-10141982Y-7454412*
Y-7425964*
X-10152142Y-7416312*
X-10172462Y-7435362D02*
Y-7454412D01*
X-10454910Y-6009406D02*
Y-6081567D01*
X-10566670Y-6132825D02*
Y-6175547D01*
X-10454910Y-6009406D02*
X-10530881D01*
Y-6298966D02*
X-10455367D01*
X-10454910Y-6296959D02*
Y-6226805D01*
X-10425700Y-5917966D02*
X-10444750Y-5897646D01*
X-10463800*
X-10482850Y-5917966*
Y-5938286*
X-10463800Y-5958606*
X-10444750*
X-10425700Y-5938286*
Y-5917966*
X-10463800Y-5938286D02*
X-10482850Y-5958606D01*
X-10520950Y-5917966D02*
X-10540000Y-5897646D01*
Y-5958606*
X-10711450Y-6161323D02*
Y-6105901D01*
X-10833370Y-6161323D02*
Y-6105901D01*
X-10886710Y-5943112D02*
X-10947670D01*
Y-5990610*
X-10937510Y-6000262*
X-10927350*
X-10917190Y-5990610*
Y-5943112*
Y-5990610D02*
X-10907030Y-6000262D01*
X-10886710*
X-10907030Y-6076462D02*
Y-6019312D01*
X-10947670Y-6057412*
X-10886710*
X-11131566Y-6681261D02*
Y-6625839D01*
X-11253486Y-6681261D02*
Y-6625839D01*
X-11027426Y-6590050D02*
X-11088386D01*
Y-6637548*
X-11078226Y-6647200*
X-11068066*
X-11057906Y-6637548*
Y-6590050*
Y-6637548D02*
X-11047746Y-6647200D01*
X-11027426*
X-11088386Y-6723400D02*
Y-6675648D01*
X-11068066*
Y-6713748*
X-11057906Y-6723400*
X-11037586*
X-11027426Y-6713748*
Y-6685300*
X-11037586Y-6675648*
X-11119882Y-7147605D02*
Y-6952991D01*
X-11259836Y-7147605D02*
Y-6952991D01*
X-11126486Y-6966224D02*
X-11142209D01*
X-11239287D02*
X-11253486D01*
X-11126486Y-6978924D02*
X-11132988D01*
X-11248508D02*
X-11253486D01*
X-11003042Y-6999498D02*
X-11064002D01*
Y-7037598*
X-11043682Y-7056648*
X-11023362*
X-11003042Y-7037598*
Y-6999498*
X-11043682Y-7094748D02*
X-11064002Y-7113798D01*
X-11003042*
X-14678168Y-8487151D02*
Y-8542573D01*
X-14556248Y-8487151D02*
Y-8542573D01*
X-14744208Y-8445012D02*
X-14734048Y-8435360D01*
Y-8406912*
X-14754368Y-8387862*
X-14774688*
X-14795008Y-8406912*
Y-8435360*
X-14784848Y-8445012*
X-14774688Y-8483112D02*
X-14795008Y-8502162D01*
X-14734048*
X-14744208Y-8540262D02*
X-14784848D01*
X-14795008Y-8549660*
Y-8587760*
X-14784848Y-8597412*
X-14744208*
X-14734048Y-8587760*
Y-8549660*
X-14744208Y-8540262*
X-14734048D02*
X-14795008Y-8597412D01*
X-14424168Y-8487151D02*
Y-8542573D01*
X-14302248Y-8487151D02*
Y-8542573D01*
X-14351778Y-8766322D02*
X-14342126Y-8776482D01*
X-14313678*
X-14294628Y-8756162*
Y-8735842*
X-14313678Y-8715522*
X-14342126*
X-14351778Y-8725682*
X-14427978Y-8735842D02*
X-14418326Y-8746002D01*
X-14389878*
X-14380226Y-8735842*
Y-8725682*
X-14389878Y-8715522*
X-14418326*
X-14427978Y-8725682*
Y-8766322*
X-14418326Y-8776482*
X-14389878*
X-11836416Y-9788697D02*
Y-9739117D01*
X-11983736Y-9788697D02*
Y-9739117D01*
X-11767836Y-9687580D02*
X-11706876D01*
Y-9744730*
X-11747516Y-9782830D02*
X-11767836Y-9801880D01*
X-11706876*
X-12488180Y-9739117D02*
Y-9794539D01*
X-12366260Y-9739117D02*
Y-9794539D01*
X-12554220Y-9696978D02*
X-12544060Y-9687326D01*
Y-9658878*
X-12564380Y-9639828*
X-12584700*
X-12605020Y-9658878*
Y-9687326*
X-12594860Y-9696978*
X-12584700Y-9735078D02*
X-12605020Y-9754128D01*
X-12544060*
X-12564380Y-9849378D02*
Y-9792228D01*
X-12605020Y-9830328*
X-12544060*
X-10929357Y-9365762D02*
X-10984779D01*
X-10944419Y-9487682D02*
X-10984779D01*
X-10880868Y-9309882D02*
Y-9248922D01*
X-10928366*
X-10938018Y-9259082*
Y-9269242*
X-10928366Y-9279402*
X-10880868*
X-10928366D02*
X-10938018Y-9289562D01*
Y-9309882*
X-10976118Y-9279402D02*
X-10966466Y-9269242D01*
Y-9259082*
X-10976118Y-9248922*
X-11004566*
X-11014218Y-9259082*
Y-9269242*
X-11004566Y-9279402*
X-10976118*
X-10966466Y-9289562*
Y-9299722*
X-10976118Y-9309882*
X-11004566*
X-11014218Y-9299722*
Y-9289562*
X-11004566Y-9279402*
X-11602228Y-9510542D02*
Y-9736602D01*
X-11254248Y-9510542D02*
Y-9731522D01*
Y-9675642D02*
X-11602228D01*
X-11658108Y-9469902D02*
X-11719068D01*
Y-9508002*
X-11698748Y-9527052*
X-11678428*
X-11658108Y-9508002*
Y-9469902*
X-11708908Y-9555500D02*
X-11719068Y-9565152D01*
Y-9593600*
X-11708908Y-9603252*
X-11698748*
X-11688588Y-9593600*
X-11678428Y-9603252*
X-11668268*
X-11658108Y-9593600*
Y-9565152*
X-11668268Y-9555500*
X-11688588Y-9574550D02*
Y-9593600D01*
X-14218428Y-6307373D02*
Y-6251951D01*
X-14340348Y-6307373D02*
Y-6251951D01*
X-14124448Y-6222512D02*
X-14114288Y-6212860D01*
Y-6184412*
X-14134608Y-6165362*
X-14154928*
X-14175248Y-6184412*
Y-6212860*
X-14165088Y-6222512*
X-14154928Y-6260612D02*
X-14175248Y-6279662D01*
X-14114288*
X-14165088Y-6327160D02*
X-14175248Y-6336812D01*
Y-6365260*
X-14165088Y-6374912*
X-14154928*
X-14144768Y-6365260*
Y-6336812*
X-14134608Y-6327160*
X-14114288*
Y-6374912*
X-13626379Y-7323602D02*
X-13570957D01*
X-13626379Y-7201682D02*
X-13570957D01*
X-13605018Y-7404882D02*
X-13595366Y-7415042D01*
X-13566918*
X-13547868Y-7394722*
Y-7374402*
X-13595366Y-7354082D02*
X-13605018Y-7364242D01*
X-13643118Y-7374402D02*
X-13659679Y-7356749D01*
X-13662168Y-7356851D02*
Y-7415042D01*
X-13719318Y-7374402D02*
X-13735879Y-7356749D01*
X-13738368Y-7356851D02*
Y-7415042D01*
X-13943879Y-6675902D02*
X-13888457D01*
X-13943879Y-6553982D02*
X-13888457D01*
X-13884418Y-6490482D02*
X-13874766Y-6500642D01*
X-13846318*
X-13827268Y-6480322*
Y-6460002*
X-13846318Y-6439682*
X-13874766*
X-13884418Y-6449842*
X-13912866D02*
X-13922518Y-6439682D01*
X-13950966*
X-13960618Y-6449842*
Y-6460002*
X-13950966Y-6470162*
X-13960618Y-6480322*
Y-6490482*
X-13950966Y-6500642*
X-13922518*
X-13912866Y-6490482*
X-13931916Y-6470162D02*
X-13950966D01*
X-14967728Y-6500413D02*
Y-6444991D01*
X-15089648Y-6500413D02*
Y-6444991D01*
X-15165848Y-6352052D02*
X-15155688Y-6342400D01*
Y-6313952*
X-15176008Y-6294902*
X-15196328*
X-15216648Y-6313952*
Y-6342400*
X-15206488Y-6352052*
X-15176008Y-6428252D02*
Y-6371102D01*
X-15216648Y-6409202*
X-15155688*
X-14170168Y-8169651D02*
Y-8225073D01*
X-14048248Y-8169651D02*
Y-8225073D01*
X-14236208Y-8089412D02*
X-14226048Y-8079760D01*
Y-8051312*
X-14246368Y-8032262*
X-14266688*
X-14287008Y-8051312*
Y-8079760*
X-14276848Y-8089412*
X-14287008Y-8165612D02*
Y-8117860D01*
X-14266688*
Y-8155960*
X-14256528Y-8165612*
X-14236208*
X-14226048Y-8155960*
Y-8127512*
X-14236208Y-8117860*
X-15397217Y-7524262D02*
X-15452639D01*
X-15397217Y-7646182D02*
X-15452639D01*
X-15437628Y-7756672D02*
X-15427976Y-7766832D01*
X-15399528*
X-15380478Y-7746512*
Y-7726192*
X-15399528Y-7705872*
X-15427976*
X-15437628Y-7716032*
X-15513828D02*
X-15504176Y-7705872D01*
X-15475728*
X-15466076Y-7716032*
Y-7756672*
X-15475728Y-7766832*
X-15504176*
X-15513828Y-7756672*
Y-7746512*
X-15504176Y-7736352*
X-15466076*
X-13403088Y-7219462D02*
Y-7147301D01*
X-13291328Y-7096043D02*
Y-7053321D01*
X-13403088Y-7219462D02*
X-13327117D01*
Y-6929902D02*
X-13403088D01*
Y-7002063*
X-13229098Y-6858782D02*
X-13248148Y-6838462D01*
X-13267198*
X-13286248Y-6858782*
Y-6879102*
X-13267198Y-6899422*
X-13248148*
X-13229098Y-6879102*
Y-6858782*
X-13267198Y-6879102D02*
X-13286248Y-6899422D01*
X-13324348Y-6858782D02*
X-13343398Y-6838462D01*
Y-6899422*
X-13390896Y-6848622D02*
X-13400548Y-6838462D01*
X-13428996*
X-13438648Y-6848622*
Y-6858782*
X-13428996Y-6868942*
X-13438648Y-6879102*
Y-6889262*
X-13428996Y-6899422*
X-13400548*
X-13390896Y-6889262*
X-13409946Y-6868942D02*
X-13428996D01*
X-13050028Y-7107473D02*
Y-7052051D01*
X-13027168Y-6894113D02*
Y-6833382D01*
X-13074666*
X-13084318Y-6843542*
Y-6853702*
X-13074666Y-6863862*
X-13027168*
X-13074666D02*
X-13084318Y-6874022D01*
Y-6894113*
X-13160518Y-6853702D02*
X-13150866Y-6863862D01*
X-13122418*
X-13112766Y-6853702*
Y-6843542*
X-13122418Y-6833382*
X-13150866*
X-13160518Y-6843542*
Y-6884182*
X-13150968Y-6894215*
X-11353079Y-9063502D02*
X-11297657D01*
X-11353079Y-8941582D02*
X-11297657D01*
X-11122168Y-9167642D02*
Y-9106682D01*
X-11169666*
X-11179318Y-9116842*
Y-9127002*
X-11169666Y-9137162*
X-11122168*
X-11169666D02*
X-11179318Y-9147322D01*
Y-9167642*
X-11217418Y-9127002D02*
X-11236468Y-9106682D01*
Y-9167642*
X-11331718Y-9106682D02*
X-11283966D01*
Y-9127002*
X-11322066*
X-11331718Y-9137162*
Y-9157482*
X-11322066Y-9167642*
X-11293618*
X-11283966Y-9157482*
X-11134639Y-8847602D02*
X-11079217D01*
X-11134639Y-8725682D02*
X-11079217D01*
X-11305048Y-8657102D02*
X-11366008D01*
Y-8704600*
X-11355848Y-8714252*
X-11345688*
X-11335528Y-8704600*
Y-8657102*
Y-8704600D02*
X-11325368Y-8714252D01*
X-11305048*
X-11345688Y-8752352D02*
X-11366008Y-8771402D01*
X-11305048*
X-11355848Y-8866652D02*
X-11366008Y-8857000D01*
Y-8828552*
X-11355848Y-8818900*
X-11315208*
X-11305048Y-8828552*
Y-8857000*
X-11315208Y-8866652*
X-11325368*
X-11335528Y-8857000*
Y-8818900*
X-14408928Y-6309913D02*
Y-6254491D01*
X-14530848Y-6309913D02*
Y-6254491D01*
X-14594348Y-6250452D02*
X-14584188Y-6240800D01*
Y-6212352*
X-14604508Y-6193302*
X-14624828*
X-14645148Y-6212352*
Y-6240800*
X-14634988Y-6250452*
X-14614668Y-6288552D02*
X-14624828Y-6278900D01*
X-14634988*
X-14645148Y-6288552*
Y-6317000*
X-14634988Y-6326652*
X-14624828*
X-14614668Y-6317000*
Y-6288552*
X-14604508Y-6278900*
X-14594348*
X-14584188Y-6288552*
Y-6317000*
X-14594348Y-6326652*
X-14604508*
X-14614668Y-6317000*
X-11076448Y-7646182D02*
Y-7493782D01*
X-11123946*
X-11133598Y-7519182*
Y-7544582*
X-11123946Y-7569982*
X-11133598Y-7595382*
Y-7620782*
X-11123946Y-7646182*
X-11076448*
Y-7569982D02*
X-11123946D01*
X-11209798Y-7646182D02*
X-11152648D01*
Y-7493782*
X-11209798*
X-11152648Y-7569982D02*
X-11190748D01*
X-11228848Y-7646182D02*
Y-7493782D01*
X-11276346*
X-11285998Y-7519182*
Y-7544582*
X-11276346Y-7569982*
X-11228848*
X-11276346D02*
X-11285998Y-7595382D01*
Y-7646182*
X-11305048Y-7493782D02*
X-11362198D01*
X-11333496D02*
Y-7646182D01*
X-11381248D02*
Y-7544582D01*
X-11400298Y-7493782*
X-11419348*
X-11438398Y-7544582*
Y-7646182*
X-11381248Y-7595382D02*
X-11438398D01*
X-11457448Y-7493782D02*
Y-7620782D01*
X-11466846Y-7646182*
X-11504946*
X-11514598Y-7620782*
Y-7493782*
X-11533648D02*
X-11590798Y-7646182D01*
X-11533648D02*
X-11590798Y-7493782D01*
X-11695446Y-7569982D02*
X-11743198D01*
X-11838448Y-7646182D02*
Y-7493782D01*
X-11885946*
X-11895598Y-7519182*
Y-7544582*
X-11885946Y-7569982*
X-11895598Y-7595382*
Y-7620782*
X-11885946Y-7646182*
X-11838448*
Y-7569982D02*
X-11885946D01*
X-11971798Y-7646182D02*
X-11914648D01*
Y-7493782*
X-11971798*
X-11914648Y-7569982D02*
X-11952748D01*
X-11990848Y-7493782D02*
X-12047998D01*
X-11990848Y-7646182*
X-12047998*
X-12067048D02*
Y-7544582D01*
X-12086098Y-7493782*
X-12105148*
X-12124198Y-7544582*
Y-7646182*
X-12067048Y-7595382D02*
X-12124198D01*
X-12143248Y-7646182D02*
Y-7493782D01*
X-12171696Y-7569982*
X-12200398Y-7493782*
Y-7646182*
X-12219448D02*
Y-7544582D01*
X-12238498Y-7493782*
X-12257548*
X-12276598Y-7544582*
Y-7646182*
X-12219448Y-7595382D02*
X-12276598D01*
X-12295648Y-7646182D02*
Y-7493782D01*
X-12352798Y-7646182*
Y-7493782*
X-12381246D02*
X-12419346D01*
X-12400296D02*
Y-7646182D01*
X-12381246D02*
X-12419346D01*
X-12448048D02*
Y-7493782D01*
X-12505198*
X-12448048Y-7569982D02*
X-12486148D01*
X-12524248Y-7646182D02*
Y-7544582D01*
X-12543298Y-7493782*
X-12562348*
X-12581398Y-7544582*
Y-7646182*
X-12524248Y-7595382D02*
X-12581398D01*
X-12600448Y-7646182D02*
Y-7493782D01*
X-12647946*
X-12657598Y-7519182*
Y-7544582*
X-12647946Y-7569982*
X-12600448*
X-12647946D02*
X-12657598Y-7595382D01*
Y-7646182*
X-12733798Y-7493782D02*
X-12676648Y-7646182D01*
Y-7493782D02*
X-12705096Y-7569982D01*
X-11520948Y-7696982D02*
Y-7773182D01*
X-11549396Y-7849382*
X-11578098Y-7773182*
Y-7696982*
X-11616198Y-7747782D02*
X-11635248Y-7696982D01*
Y-7849382*
X-11701796Y-7823982D02*
X-11711448D01*
Y-7849382*
X-11701796*
Y-7823982*
X-11749548D02*
Y-7722382D01*
X-11758946Y-7696982*
X-11797046*
X-11806698Y-7722382*
Y-7823982*
X-11797046Y-7849382*
X-11758946*
X-11749548Y-7823982*
Y-7849382D02*
X-11806698Y-7696982D01*
X-13705348Y-9500382D02*
Y-9652782D01*
X-13762498*
X-13838698Y-9500382D02*
X-13781548Y-9652782D01*
Y-9500382D02*
X-13809996Y-9576582D01*
X-13914898Y-9627382D02*
X-13905246Y-9652782D01*
X-13876798*
X-13857748Y-9601982*
Y-9551182*
X-13876798Y-9500382*
X-13905246*
X-13914898Y-9525782*
X-13991098Y-9652782D02*
X-13933948D01*
Y-9500382*
X-13991098*
X-13933948Y-9576582D02*
X-13972048D01*
X-14067298Y-9652782D02*
X-14010148D01*
Y-9500382*
X-14067298*
X-14010148Y-9576582D02*
X-14048248D01*
X-14162548Y-9652782D02*
Y-9500382D01*
X-14210046*
X-14219698Y-9525782*
Y-9551182*
X-14210046Y-9576582*
X-14162548*
X-14210046D02*
X-14219698Y-9601982D01*
Y-9652782*
X-14238748Y-9551182D02*
X-14257798Y-9500382D01*
X-14276848*
X-14295898Y-9551182*
Y-9601982*
X-14276848Y-9652782*
X-14257798*
X-14238748Y-9601982*
Y-9551182*
X-14314948Y-9500382D02*
Y-9627382D01*
X-14324346Y-9652782*
X-14362446*
X-14372098Y-9627382*
Y-9500382*
X-14391148D02*
Y-9576582D01*
X-14419596Y-9652782*
X-14448298Y-9576582*
Y-9500382*
X-14476746D02*
X-14514846D01*
X-14495796D02*
Y-9652782D01*
X-14476746D02*
X-14514846D01*
X-14600698D02*
X-14543548D01*
Y-9500382*
X-14600698*
X-14543548Y-9576582D02*
X-14581648D01*
X-14619748Y-9652782D02*
Y-9500382D01*
X-14667246*
X-14676898Y-9525782*
Y-9551182*
X-14667246Y-9576582*
X-14619748*
X-14667246D02*
X-14676898Y-9601982D01*
Y-9652782*
X-14753098D02*
X-14695948D01*
Y-9500382*
X-14753098*
X-14695948Y-9576582D02*
X-14734048D01*
X-14857746D02*
X-14905498D01*
X-15000748Y-9500382D02*
X-15057898D01*
X-15029196D02*
Y-9652782D01*
X-15076948Y-9551182D02*
X-15095998Y-9500382D01*
X-15115048*
X-15134098Y-9551182*
Y-9601982*
X-15115048Y-9652782*
X-15095998*
X-15076948Y-9601982*
Y-9551182*
X-15153148Y-9500382D02*
Y-9627382D01*
X-15162546Y-9652782*
X-15200646*
X-15210298Y-9627382*
Y-9500382*
X-15229348D02*
Y-9652782D01*
X-15286498*
X-15305548Y-9551182D02*
X-15324598Y-9500382D01*
X-15343648*
X-15362698Y-9551182*
Y-9601982*
X-15343648Y-9652782*
X-15324598*
X-15305548Y-9601982*
Y-9551182*
X-15381748Y-9652782D02*
Y-9500382D01*
X-15438898Y-9652782*
Y-9500382*
X-13603748Y-9894082D02*
Y-9741682D01*
X-13651246*
X-13660898Y-9767082*
Y-9792482*
X-13651246Y-9817882*
X-13660898Y-9843282*
Y-9868682*
X-13651246Y-9894082*
X-13603748*
Y-9817882D02*
X-13651246D01*
X-13679948Y-9741682D02*
X-13737098D01*
X-13708396D02*
Y-9894082D01*
X-13756148Y-9868682D02*
X-13765546Y-9894082D01*
X-13803646*
X-13813298Y-9868682*
Y-9843282*
X-13803646Y-9817882*
X-13765546*
X-13756148Y-9792482*
Y-9767082*
X-13765546Y-9741682*
X-13803646*
X-13813298Y-9767082*
X-13908548Y-9868682D02*
X-13917946Y-9894082D01*
X-13956046*
X-13965698Y-9868682*
Y-9843282*
X-13956046Y-9817882*
X-13917946*
X-13908548Y-9792482*
Y-9767082*
X-13917946Y-9741682*
X-13956046*
X-13965698Y-9767082*
X-14041898Y-9741682D02*
X-13984748Y-9894082D01*
Y-9741682D02*
X-14013196Y-9817882D01*
X-14060948Y-9868682D02*
X-14070346Y-9894082D01*
X-14108446*
X-14118098Y-9868682*
Y-9843282*
X-14108446Y-9817882*
X-14070346*
X-14060948Y-9792482*
Y-9767082*
X-14070346Y-9741682*
X-14108446*
X-14118098Y-9767082*
X-14137148Y-9741682D02*
X-14194298D01*
X-14165596D02*
Y-9894082D01*
X-14270498D02*
X-14213348D01*
Y-9741682*
X-14270498*
X-14213348Y-9817882D02*
X-14251448D01*
X-14289548Y-9894082D02*
Y-9741682D01*
X-14317996Y-9817882*
X-14346698Y-9741682*
Y-9894082*
X-14422898D02*
X-14365748D01*
Y-9741682*
X-14422898*
X-14365748Y-9817882D02*
X-14403848D01*
X-14441948Y-9868682D02*
X-14451346Y-9894082D01*
X-14489446*
X-14499098Y-9868682*
Y-9843282*
X-14489446Y-9817882*
X-14451346*
X-14441948Y-9792482*
Y-9767082*
X-14451346Y-9741682*
X-14489446*
X-14499098Y-9767082*
X-14594348Y-9894082D02*
Y-9741682D01*
X-14651498Y-9894082*
Y-9741682*
X-14670548D02*
Y-9868682D01*
X-14679946Y-9894082*
X-14718046*
X-14727698Y-9868682*
Y-9741682*
X-14746748Y-9894082D02*
Y-9741682D01*
X-14775196Y-9817882*
X-14803898Y-9741682*
Y-9894082*
X-14880098D02*
X-14822948D01*
Y-9741682*
X-14880098*
X-14822948Y-9817882D02*
X-14861048D01*
X-14899148Y-9894082D02*
Y-9741682D01*
X-14946646*
X-14956298Y-9767082*
Y-9792482*
X-14946646Y-9817882*
X-14899148*
X-14946646D02*
X-14956298Y-9843282D01*
Y-9894082*
X-14984746Y-9741682D02*
X-15022846D01*
X-15003796D02*
Y-9894082D01*
X-14984746D02*
X-15022846D01*
X-15051548Y-9792482D02*
X-15070598Y-9741682D01*
X-15089648*
X-15108698Y-9792482*
Y-9843282*
X-15089648Y-9894082*
X-15070598*
X-15051548Y-9843282*
Y-9792482*
X-15089648Y-9843282D02*
X-15108698Y-9894082D01*
X-15127748Y-9741682D02*
Y-9868682D01*
X-15137146Y-9894082*
X-15175246*
X-15184898Y-9868682*
Y-9741682*
X-15261098Y-9894082D02*
X-15203948D01*
Y-9741682*
X-15261098*
X-15203948Y-9817882D02*
X-15242048D01*
X-15280148Y-9868682D02*
X-15289546Y-9894082D01*
X-15327646*
X-15337298Y-9868682*
Y-9843282*
X-15327646Y-9817882*
X-15289546*
X-15280148Y-9792482*
Y-9767082*
X-15289546Y-9741682*
X-15327646*
X-15337298Y-9767082*
X-15489698Y-9894082D02*
X-15432548D01*
Y-9741682*
X-15489698*
X-15432548Y-9817882D02*
X-15470648D01*
X-15565898Y-9868682D02*
X-15556246Y-9894082D01*
X-15527798*
X-15508748Y-9843282*
Y-9792482*
X-15527798Y-9741682*
X-15556246*
X-15565898Y-9767082*
X-15648448Y-9970282D02*
X-13527548D01*
Y-9425604*
X-13582641Y-9411482D02*
X-15642885D01*
X-10593848Y-9561240D02*
Y-8662182D01*
X-15648448Y-9459590D02*
Y-9970282D01*
X-13547868Y-7374402D02*
X-13564429Y-7356724D01*
X-13570830Y-7354082D02*
X-13595366D01*
X-13171948Y-7096170D02*
Y-7052051D01*
M02*
